<?xml version="1.0" standalone="no"?>
<!DOCTYPE svg PUBLIC "-//W3C//DTD SVG 1.1//EN" "http://www.w3.org/Graphics/SVG/1.1/DTD/svg11.dtd" >
<svg xmlns="http://www.w3.org/2000/svg">
<metadata>Generated by IcoMoon</metadata>
<defs>
<font id="icomoon" horiz-adv-x="1024">
<font-face units-per-em="1024" ascent="960" descent="-64" />
<missing-glyph horiz-adv-x="1024" />
<glyph unicode="&#x20;" d="" horiz-adv-x="512" />
<glyph unicode="&#xe600;" d="M847.092 588.869c0 178.277-144.521 322.799-322.799 322.799-178.276 0-322.799-144.522-322.799-322.799 0 0-17.072-284 322.799-571.107 339.872 287.107 322.799 571.107 322.799 571.107zM797.106 575.627c-0.744-15.57-2.801-30.792-6.045-45.572-16.093-83.171-72.218-246.522-266.769-437.799-194.552 191.278-250.677 354.63-266.769 437.801-3.243 14.779-5.301 30-6.045 45.57-0.518 8.661-0.324 13.243-0.324 13.243 0 150.853 122.286 273.138 273.138 273.138s273.139-122.286 273.139-273.138c0 0 0.193-4.581-0.325-13.243zM524.293 663.362c-41.126 0-74.492-33.341-74.492-74.492s33.365-74.491 74.492-74.491 74.493 33.341 74.493 74.491c-0.001 41.15-33.367 74.492-74.493 74.492z" />
<glyph unicode="&#xe601;" d="M755.596 860.821l-35.461 35.449-451.378-445.906 451.378-451.375 35.461 35.461-418.326 416.416z" />
<glyph unicode="&#xe602;" d="M957.4 853.89l-42.63 42.645-404.339-404.347-404.332 404.333-42.63-42.631 404.329-404.336-404.329-404.336 42.63-42.644 404.335 404.342 404.336-404.342 42.63 42.644-404.332 404.333z" />
<glyph unicode="&#xe603;" d="M747.581 566.072h-160.441v118.876c0 16.289 13.077 29.489 29.211 29.489h130.455v173.024h-128.969c-112.584 0-203.861-91.789-203.861-205.013v-116.377h-136.149v-173.397h136.15v-383.836h173.164v383.836h160.441v173.398z" />
<glyph unicode="&#xe604;" d="M815.167 893.997h-606.879c-78.864 0-142.795-63.937-142.795-142.794v-606.88c0-78.858 63.931-142.794 142.795-142.794h606.879c78.863 0 142.794 63.936 142.794 142.794v606.88c0 78.857-63.931 142.794-142.794 142.794zM696.171 763.102c0 6.578 5.328 11.9 11.9 11.9h118.996c6.571 0 11.899-5.322 11.899-11.9v-118.995c0-6.578-5.328-11.9-11.899-11.9h-118.996c-6.572 0-11.9 5.322-11.9 11.9v118.995zM511.727 572.708c88.719 0 160.646-71.92 160.646-160.644 0-88.725-71.927-160.645-160.646-160.645-88.723 0-160.644 71.92-160.644 160.645 0 88.724 71.921 160.644 160.644 160.644zM886.565 144.323c0-39.428-31.969-71.396-71.397-71.396h-606.88c-39.429 0-71.398 31.967-71.398 71.396v392.687h179.275c-23.091-36.066-36.479-78.942-36.479-124.946 0-128.153 103.888-232.042 232.041-232.042s232.042 103.888 232.042 232.042c0 46.004-13.389 88.878-36.479 124.946h179.275v-392.687z" />
<glyph unicode="&#xe605;" d="M723.602 479.528h-415.986v-55.465h415.985v55.465zM723.602 645.921h-415.986v-55.464h415.985v55.464zM168.954 895.512v-887.436h693.309v887.436h-693.309zM806.798 63.543h-582.378v776.506h582.378v-776.506zM723.602 313.133h-415.986v-55.465h415.985v55.465z" />
<glyph unicode="&#xe606;" d="M299.010 53.968v418.559l-198.708-198.709c39.313-93.947 109.882-171.564 198.708-219.85zM424.52 658.472l0.202-0.194 115.143 0.132-198.971 198.972c-94.59-39.238-172.724-110.132-221.217-199.456l304.843 0.546zM723.728 837.507l-0.053-304.948 0.093-0.093-0.097-22.201-0.016-93.298 199.466 199.465c-39.255 94.522-110.112 172.611-199.392 221.075zM600.284 657.017l29.963-30.223 51.277-51.277v282.091c-52.397 21.653-109.823 33.607-170.042 33.607-44.208 0-86.911-6.439-127.226-18.43l215.767-215.767 0.26-0.001zM938.538 573.047l-215.532-215.532-0.002-0.437-51.213-50.779-30.314-30.314h282.086c21.561 52.302 33.461 109.605 33.461 169.69 0 44.263-6.466 87.014-18.485 127.372zM598.462 233.594l-38.359 0.166h-77.148l199.593-199.594c94.497 39.331 172.544 110.256 220.942 199.594l-305.028-0.166zM423.075 234.353l-60.733 61.257-20.423 20.424v-282.49c52.269-21.529 109.53-33.409 169.564-33.409 44.395 0 87.27 6.504 127.733 18.593l-215.615 215.622-0.526 0.002zM99.507 615.59c-21.621-52.364-33.563-109.742-33.563-169.915 0-44.241 6.46-86.97 18.468-127.31l297.227 297.224h-282.132z" />
<glyph unicode="&#xe607;" d="M823.746 520.242v148.738l-323.534 223.108v-613.346c-90.259 24.347-298.646 58.435-298.646-145.887 0-93.301 99.014-133.198 135.812-133.198 36.77 0 237.641 36.073 237.641 199.772 0 6.291-0.051 12.195-0.147 17.737v398.421l248.873-95.346z" />
<glyph unicode="&#xe608;" d="M516.968 423.431c-61.686 0-111.69-50.003-111.69-111.69s50.004-111.691 111.69-111.691c61.687 0 111.691 50.004 111.691 111.691s-50.004 111.69-111.691 111.69zM516.968 249.69c-34.273 0-62.050 27.778-62.050 62.051s27.778 62.050 62.050 62.050 62.050-27.778 62.050-62.050c0-34.275-27.778-62.051-62.050-62.051zM806.309 373.609l-92.331 173.924c-19.925 30.59-33.086 49.641-60.5 49.641h-49.64v99.28h-49.641v-99.28h-74.461v99.28h-49.641v-99.28h-49.641c-27.414 0-42.078-19.003-60.5-49.641l-97.729-186.926c0-0.143 0.003-0.281 0.003-0.424-9.551-9.047-15.516-21.839-15.516-36.031v-273.023c0-27.413 22.226-49.641 49.641-49.641h521.223c27.414 0 49.641 22.227 49.641 49.641v273.023c0.001 26.028 2.321 47.366-20.909 49.456zM777.58 51.129h-521.223v262.164l131.857 234.24h257.509l131.857-232.689v-263.715zM628.659 895.015h-223.382c-137.081 0-248.202-111.133-248.202-248.202v-49.641h49.64v49.641c0 109.654 88.895 198.561 198.562 198.561h223.382c109.666 0 198.56-88.907 198.56-198.561v-49.641h49.642v49.641c0 137.069-111.122 248.202-248.202 248.202z" />
<glyph unicode="&#xe609;" d="M937.241 810.499c-41.864 41.836-82.639 82.64-82.639 82.64l-207.633-207.631 103.314-103.315c0 0 139.444-108.935-62.682-311.032-202.099-202.127-311.032-62.684-311.032-62.684l-103.316 103.314-207.632-207.632c0 0 40.804-40.775 82.64-82.64 336.036-99.271 601.246 187.76 601.246 187.76s287.005 265.183 187.734 601.219z" />
<glyph unicode="&#xe60a;" d="M834.463 594.513l-323.086 312.439-323.086-312.439 46.218-56.428 241.002 232.547v-770.661h71.734v770.661l241.002-232.547z" />
<glyph unicode="&#xe60b;" d="M456.094 892.657c-210.362 0-380.911-170.537-380.911-380.911s170.549-380.91 380.911-380.91c210.36 0 380.909 170.536 380.909 380.91s-170.549 380.911-380.909 380.911zM456.094 177.006c-184.865 0-334.741 149.865-334.741 334.741s149.875 334.741 334.741 334.741c184.862 0 334.739-149.865 334.739-334.741s-149.876-334.741-334.739-334.741zM760.984 216.414l-32.644-32.643 184.685-184.685 32.643 32.644-184.684 184.684z" />
<glyph unicode="&#xe60c;" d="M828.48 464.529c0 17.506-1.489 34.662-4.32 51.362l120.589 110.615-70.401 121.919-156.125-49.132c-26.283 21.832-56.288 39.337-88.925 51.418l-35.487 159.691h-140.803l-35.486-159.692c-32.637-12.081-62.644-29.586-88.925-51.418l-156.125 49.132-70.401-121.918 120.589-110.615c-2.831-16.699-4.32-33.856-4.32-51.362 0-17.505 1.489-34.661 4.32-51.361l-120.589-110.615 70.4-121.919 156.126 49.131c26.283-21.832 56.288-39.336 88.925-51.417l35.486-159.691h140.803l35.486 159.691c32.638 12.081 62.644 29.585 88.926 51.417l156.125-49.131 70.401 121.919-120.588 110.615c2.831 16.698 4.319 33.855 4.319 51.361zM523.409 276.793c-103.689 0-187.736 84.061-187.736 187.737s84.048 187.736 187.736 187.736c103.689 0 187.737-84.059 187.737-187.736s-84.048-187.737-187.737-187.737z" />
<glyph unicode="&#xe60d;" d="M782.689 522.736v-469.692h-543.854v469.692h-49.441v-519.133h642.737v519.133h-49.441zM486.040 806.69v-605.322h49.441v605.325l166.116-160.28 31.842 38.892-221.461 211.413-223.896-211.413 31.843-38.892 166.114 160.278z" />
<glyph unicode="&#xe60e;" d="M956.759 467.569h-45.177c-11.158 203.767-174.404 367.011-378.17 378.168v45.179h-44.563v-45.179c-203.767-11.158-367.010-174.402-378.168-378.168h-45.179v-44.563h45.179c11.157-203.766 174.401-367.011 378.168-378.17v-45.177h44.563v45.177c203.767 11.157 367.011 174.403 378.17 378.17h45.177v44.563zM533.412 89.472v155.282h-44.563v-155.282c-179.147 11.048-322.46 154.398-333.511 333.534h155.26v44.563h-155.259c11.051 179.137 154.363 322.486 333.511 333.533v-155.282h44.563v155.281c179.145-11.047 322.46-154.396 333.511-333.534h-155.259v-44.563h155.259c-11.052-179.136-154.365-322.486-333.512-333.532z" />
<glyph unicode="&#xe60f;" d="M242.692 304.958c110.527-64.4 428.046-64.4 538.572 0 18.697 10.979 26.196 26.264 29.046 38.676-4.579 35.664-9.455 76.905-14.135 122.477-17.294 168.454-41.975 284.065-284.199 284.065-242.226 0-266.899-115.611-284.2-284.065-4.678-45.575-9.556-86.818-14.135-122.482 2.851-12.412 10.351-27.694 29.051-38.672zM948.97 411.128c-11.608 5.672-21.394 8.655-48.905-13.74-27.493-22.4-74.858-38.183-74.858-38.183 46.61 6.402 75.598 22.875 90.139 32.067 19.795 12.519 25.109-2.61 19.871-15.272-37.801-171.954-423.241-163.412-423.241-163.412s-385.434-8.543-423.241 163.412c-5.234 12.661 0.081 27.791 19.862 15.272 14.553-9.192 43.537-25.666 90.153-32.067 0 0-47.365 15.782-74.873 38.183-27.502 22.395-37.289 19.412-48.889 13.74-27.422-13.397-33.618-262.679 436.989-262.679 470.604 0 464.415 249.281 436.995 262.679z" />
<glyph unicode="&#xe610;" d="M869.542 632.78l89.007 89.774-88.847-29.875 59.227 104.548-81.061-35.040c-0.503 1.705-1.005 3.409-1.525 5.105l-0.78-6.101-20.292-8.772 1.678-7.615c-33.955 41.16-85.123 67.367-142.361 67.367-102.222 0-185.099-83.592-185.099-186.705 0-12.828 1.285-25.353 3.729-37.455-1.244 0.029-2.488 0.067-3.729 0.117-160.782 6.404-282.558 72.659-370.216 194.167-71.921-155.758 44.43-253.906 44.43-253.906s-33.896-0.912-74.038 29.866c21.147-151.483 148.078-194.154 148.078-194.154s-45.065 0-74.039 0c6.349-29.876 37.948-118.836 162.897-119.491-102.181-84.071-206.066-91.443-268.223-85.65 80.138-49.864 174.544-78.64 275.616-78.64 290.341 0 525.707 237.379 525.707 530.215 0 3.135-0.034 6.264-0.088 9.386 0.053 1.842 0.088 3.689 0.088 5.545 0.001 2.451-0.064 4.886-0.16 7.315z" />
<glyph unicode="&#xe611;" d="M802.702 521.185c0 0 57.512 72.013 0 136.446-57.513 64.433-187.591 43.066-244.913 0 0 0 62.318 90.776 0 136.457-62.615 45.893-207.789-43.597-244.89-68.229-37.101-24.63-270.894-166.774-244.912-386.609 25.982-219.844 311.695-250.164 423.020-250.164 111.327 0 467.541 41.695 467.541 318.393 0 110.837-155.846 113.707-155.846 113.707zM483.927 134.236c-162.183-13.991-300.511 71.47-308.953 190.875-8.463 119.406 116.173 227.531 278.378 241.521 162.183 13.98 300.511-71.47 308.954-190.875 8.439-119.404-116.196-227.53-278.379-241.521zM436.238 480.809c-108.179 0-195.882-68.143-195.882-152.212 0-84.057 87.705-152.211 195.882-152.211s195.882 68.154 195.882 152.211c0 84.070-87.705 152.212-195.882 152.212zM392.48 241.489c-36.081 0-65.316 24.367-65.316 54.431 0 30.063 29.235 54.429 65.316 54.429s65.317-24.367 65.317-54.429c0-30.064-29.235-54.431-65.317-54.431z" />
<glyph unicode="&#xe612;" d="M660.528 654.106c16.444 0 32.596-1.092 48.375-3.191-45.125 103.993-162.916 178.168-301.119 178.168-177.16 0-320.791-121.883-320.791-272.224 0-89.658 51.082-169.183 129.884-218.786l-45.472-92.247 124.346 55.878c18.692-5.913 38.212-10.378 58.364-13.263-9.343 26.448-14.377 54.562-14.377 83.711 0 155.717 143.629 281.955 320.79 281.955zM942.435 372.162c0 134.242-126.221 243.062-281.908 243.062s-281.907-108.82-281.907-243.062c0-134.241 126.221-243.061 281.907-243.061 19.013 0 37.584 1.634 55.541 4.728l122.511-62.977-24.841 97.261c77.45 43.32 128.696 118.52 128.696 204.049z" />
<glyph unicode="&#xe613;" d="M847.801 524.218v149.133l-323.122 223.701v-437.108l-305.549 305.549-35.147-35.147 340.696-340.695v-107.572c-90.143 24.411-298.267 58.59-298.267-146.275 0-93.548 98.888-133.55 135.637-133.55 36.725 0 237.342 36.167 237.342 200.301 0 6.289-0.050 12.191-0.146 17.732v94.797l206.127-206.127 35.146 35.149-241.272 241.273v234.439l248.556-95.598z" />
<glyph unicode="&#xe614;" d="M620.968 291.211l231.768 548.093h111.033v48.971h-146.915v-6.147l-97.943-231.619v17.395h-612.143v-6.313l-2.558 6.217-46.186-18.459 171.174-415.876v-6.312h342.799v-48.97h-293.828v-0.885c-4 0.573-8.084 0.885-12.243 0.885-47.333 0-85.699-38.38-85.699-85.699 0-47.323 38.366-85.702 85.699-85.702s85.701 38.379 85.701 85.702c0 13.144-2.969 25.594-8.26 36.727h187.92c-5.29-11.134-8.259-23.583-8.259-36.727 0-47.323 38.366-85.702 85.7-85.702s85.699 38.379 85.699 85.702c0 47.319-38.365 85.699-85.699 85.699-4.159 0-8.244-0.313-12.244-0.885v0.885h24.487v113.020zM265.925 55.762c-20.289 0-36.729 16.451-36.729 36.731 0 20.276 16.439 36.727 36.729 36.727s36.729-16.451 36.729-36.727c0-20.28-16.439-36.731-36.729-36.731zM608.725 129.219c20.289 0 36.727-16.451 36.727-36.727 0-20.279-16.437-36.731-36.727-36.731s-36.73 16.451-36.73 36.731c0.001 20.277 16.44 36.727 36.73 36.727zM560.602 276.134h-295.181l-141.094 342.799h581.232l-144.956-342.799z" />
<glyph unicode="&#xe615;" d="M744.095 313.402h-207.513v-181.574h207.513v181.574zM692.219 183.705h-103.757v77.819h103.758v-77.819zM844.248 650.614l-126.093 228.746v4.706h-2.594l-0.14 0.254-0.609-0.254h-411.685v-4.71l-126.090-228.742h-3.605v-622.544h674.421v622.544h-3.605zM536.582 832.187h147.601l100.090-181.573h-247.69v181.573zM337.103 832.187h147.602v-181.573h-247.691l100.090 181.573zM795.975 79.948h-570.664v518.786h570.664v-518.786z" />
<glyph unicode="&#xe616;" d="M649.771 594.769h-64.213v321.064h-149.829v-321.064h-64.212c-47.282 0-85.618-38.335-85.618-85.617v-535.107h449.491v535.107c0 47.282-38.336 85.617-85.618 85.617zM542.749 873.024v-107.020h-64.211v107.020h64.211zM328.707 402.13h192.638v-256.852h-192.638v256.852zM692.579 16.852h-363.871v85.618h235.445v342.468h-235.445v64.213c0 23.641 19.167 42.808 42.808 42.808h107.022v171.234h64.211v-171.234h107.021c23.641 0 42.808-19.167 42.808-42.808v-492.299z" />
<glyph unicode="&#xe617;" d="M877.939 600.307c0 86.464-70.103 156.566-156.565 156.566-40.101 0-76.677-15.087-104.378-39.884-21.558 19.299-48.493 32.707-78.282 37.707v106.555h104.376v52.189h-260.943v-52.189h104.377v-106.554c-29.789-5-56.724-18.408-78.283-37.707-27.701 24.797-64.277 39.883-104.377 39.883-86.462 0-156.566-70.102-156.566-156.566 0-76.35 54.667-139.931 126.988-153.762-14.349-23.652-22.611-51.405-22.611-81.087 0-76.349 54.667-139.931 126.988-153.762-14.349-23.652-22.611-51.405-22.611-81.087 0-86.462 70.103-156.565 156.566-156.565s156.566 70.103 156.566 156.565c0 29.682-8.262 57.435-22.612 81.087 72.322 13.832 126.99 77.412 126.99 153.762 0 29.682-8.262 57.435-22.612 81.087 72.321 13.831 126.988 77.412 126.988 153.762zM512.619 704.684c57.642 0 104.377-46.735 104.377-104.377s-46.735-104.376-104.377-104.376-104.377 46.735-104.377 104.376c0.001 57.642 46.735 104.377 104.377 104.377zM199.488 600.307c0 57.642 46.734 104.377 104.376 104.377 27.789 0 53.040-10.864 71.745-28.574-12.455-22.462-19.555-48.302-19.555-75.803 0-27.496 7.099-53.333 19.549-75.791-3.159-2.991-6.499-5.794-10.012-8.375-14.492-4.094-28.126-10.23-40.583-18.065-6.827-1.405-13.9-2.144-21.143-2.144-57.642-0.001-104.377 46.734-104.377 104.375zM303.865 365.458c0 57.642 46.735 104.377 104.377 104.377 7.249 0 14.324-0.746 21.157-2.153 12.451-7.829 26.077-13.961 40.56-18.054 3.515-2.582 6.866-5.374 10.027-8.367-12.455-22.462-19.555-48.302-19.555-75.803s7.101-53.341 19.555-75.802c-3.161-2.992-6.512-5.784-10.027-8.367-14.483-4.093-28.109-10.224-40.56-18.054-6.833-1.407-13.908-2.153-21.157-2.153-57.642 0-104.377 46.735-104.377 104.376zM512.619 26.233c-57.642 0-104.377 46.735-104.377 104.376 0 57.642 46.734 104.378 104.377 104.378s104.377-46.736 104.377-104.378c0-57.641-46.735-104.376-104.377-104.376zM616.996 261.082c-7.244 0-14.314 0.74-21.143 2.145-12.458 7.835-26.091 13.97-40.582 18.064-25.861 18.998-42.652 49.621-42.652 84.167s16.79 65.169 42.652 84.167c14.491 4.095 28.125 10.231 40.582 18.066 6.829 1.405 13.899 2.144 21.143 2.144 57.643 0 104.378-46.735 104.378-104.377 0-57.641-46.735-104.376-104.378-104.376zM721.375 495.931c-7.244 0-14.315 0.74-21.144 2.145-12.458 7.835-26.091 13.97-40.582 18.065-3.514 2.581-6.853 5.385-10.013 8.376 12.452 22.459 19.549 48.294 19.549 75.79 0 27.501-7.101 53.342-19.555 75.803 18.704 17.709 43.956 28.574 71.745 28.574 57.642 0 104.377-46.735 104.377-104.377s-46.735-104.376-104.377-104.376z" />
<glyph unicode="&#xe618;" d="M934.647 415.826c-36.838-26.862-108.064-61.574-112.223-63.594-5.947 53.906-14.708 132.365-24.281 214.851-17.398 149.937-123.101 206.986-281.013 206.986h-8.022c-157.906 0-263.622-57.049-281.021-206.986-9.444-81.421-20.467-158.915-28.57-212.748-16.627 8.213-75.55 37.883-107.925 61.49-13.714 10.014-48.17 13.931-48.17-23.882 0-37.816 26.091-238.83 473.708-238.83 447.62 0 465.687 201.014 465.687 238.83 0.001 37.815-34.455 33.898-48.17 23.883zM256.238 556.232c15.681 134.731 110.956 185.995 253.268 185.995h7.235c142.305 0 237.573-51.265 253.261-185.995 12.215-105.025 22.485-226.925 26.424-275.574-129.74-42.511-279.296-39.971-279.296-39.971h-8.022c0 0-154.797-2.63-286.038 42.226 6.258 50.066 21.135 169.869 33.167 273.32zM83.569 368.060c-10.705 12.611-8.031 15.922-8.031 15.922s-4.517 10.948 8.031 0c6.513-5.685 39.116-33.384 111.513-58.696-1.911-12.324-3.516-22.446-4.717-29.933-42.153 17.818-79.98 41.425-106.795 72.707zM517.131 185.005c0-0.047-8.022-0.047-8.022 0-321.783 1.928-401.455 119.368-401.455 119.368 137.902-91.769 372.557-95.487 405.466-95.547 32.9 0.061 267.563 3.778 405.465 95.547 0.001 0-79.671-117.44-401.453-119.368zM942.669 368.060c-28.273-32.98-68.785-57.432-113.702-75.561-0.795 7.326-1.937 17.801-3.37 30.878 76.285 25.81 110.39 54.776 117.071 60.604 12.55 10.948 8.024 0 8.024 0s2.691-3.31-8.024-15.922z" />
<glyph unicode="&#xe619;" d="M974.072 682.489l-17.161 17.16-449.905-449.899-449.9 449.899-17.166-17.16 467.283-466.849z" />
<glyph unicode="&#xe61a;" d="M540.598 890.916l-44.165-44.18 370.915-370.954h-818.741v-63.922h812.949l-360.006-366.347 44.165-44.181 443.124 442.489z" />
<glyph unicode="&#xe61b;" d="M863.363 405.647c0-184.431-150.053-334.425-334.426-334.425-184.433 0-334.426 149.992-334.426 334.425 0 184.404 149.992 334.427 334.426 334.427v-152.131l288.822 167.273-288.821 167.153v-151.892c-201.534 0-364.828-163.294-364.828-364.829 0-201.474 163.294-364.828 364.828-364.828 201.475 0 364.828 163.354 364.828 364.828h-30.403z" />
<glyph unicode="&#xe61c;" d="M189.537 301.487l323.086-312.439 323.086 312.439-46.218 56.428-241.002-232.547v770.661h-71.734v-770.661l-241.002 232.547z" />
<glyph unicode="&#xe61d;" d="M83.060 588.588v-445.196h890.389v445.196l-445.193-304.607-445.196 304.607zM83.060 752.608v-93.725l445.196-304.607 445.194 304.607v93.725h-890.39z" />
<glyph unicode="&#xe61e;" d="M773.326 463.972l-448.997 449.012-49.68-49.699 399.298-399.312-399.298-399.315 49.68-49.699 399.307 399.322 0.3-0.3z" />
</font>
</defs>
</svg>
