<?xml version="1.0" standalone="no"?>
<!DOCTYPE svg PUBLIC "-//W3C//DTD SVG 1.1//EN" "http://www.w3.org/Graphics/SVG/1.1/DTD/svg11.dtd" >
<svg xmlns="http://www.w3.org/2000/svg">
<metadata></metadata>
<defs>
<font id="jaguarjcbold" horiz-adv-x="1247" >
<font-face units-per-em="2048" ascent="1638" descent="-410" />
<missing-glyph horiz-adv-x="653" />
<glyph horiz-adv-x="0" />
<glyph unicode="&#xd;" horiz-adv-x="653" />
<glyph unicode=" "  horiz-adv-x="653" />
<glyph unicode="&#x09;" horiz-adv-x="653" />
<glyph unicode="&#xa0;" horiz-adv-x="653" />
<glyph unicode="!" horiz-adv-x="692" d="M197 1274q0 156 172 156q72 0 119 -41t47 -115q0 -240 -125 -813h-88q-125 575 -125 813zM201 133q0 68 48 116t116 48t115.5 -48t47.5 -116q0 -66 -48 -114t-115 -48q-68 0 -116 47.5t-48 114.5z" />
<glyph unicode="&#x22;" horiz-adv-x="794" d="M80 1245q-2 94 28.5 142.5t116.5 48.5q63 0 104.5 -35t41.5 -92q-1 -27 -11 -58l-143 -415l-129 2zM475 1245q-2 94 29 142.5t117 48.5q63 0 104 -35t41 -92q0 -27 -10 -58l-144 -415l-129 2z" />
<glyph unicode="#" horiz-adv-x="1593" d="M74 457l45 123h325l109 299h-352l41 122h354l158 447h143l-154 -447h308l159 447h144l-156 -447h315l-43 -122h-317l-106 -299h339l-43 -123h-339l-168 -480h-148l172 480h-311l-172 -480h-146l170 480h-327zM592 580h311l105 299h-312z" />
<glyph unicode="$" d="M131 303q129 -215 459 -215v512q-236 96 -289 135q-150 109 -149 299q0 154 133 260q125 100 305 115v115h94v-113q217 -10 354 -80v-217q-31 57 -110 111q-104 68 -244 82v-433q197 -82 197 -81q113 -55 168 -129q71 -97 71 -242q0 -162 -135 -281q-121 -111 -301 -145 v-158h-94v148q-18 -2 -88 -2q-229 0 -369 108zM410 1118q0 -88 45 -135q35 -37 135 -82v412q-86 0 -133 -55.5t-47 -139.5zM684 94q82 18 132 86t50 150q0 92 -47 149q-41 51 -135 94v-479z" />
<glyph unicode="%" horiz-adv-x="1634" d="M61 1018q0 150 119 252q113 100 260 100t250 -92q111 -96 111 -248q0 -162 -117 -266q-109 -98 -266 -98q-145 0 -251 99t-106 253zM283 1042q0 -297 147 -297q148 0 148 256q0 289 -148 289q-66 0 -106.5 -65.5t-40.5 -182.5zM356 -57l836 1489h129l-832 -1489h-133z M874 348q0 150 117 254q113 98 260 98t254 -94t107 -246q0 -162 -113 -263t-270 -101q-145 0 -250 99.5t-105 252.5zM1104 373q0 -297 145 -297q148 0 148 254q0 289 -148 288q-63 0 -104 -61q-41 -68 -41 -184z" />
<glyph unicode="&#x26;" horiz-adv-x="1478" d="M86 334q0 295 371 440q-137 174 -138 334q0 180 140 266q113 68 293 68q369 0 368 -256q0 -104 -95 -205.5t-247 -171.5q166 -209 303 -369q109 168 109 279q0 31 -14 57h182q-45 -238 -205 -418l193 -229q34 -41 122 -129h-378q-45 68 -132 168q-190 -195 -458 -195 q-184 0 -299 100.5t-115 260.5zM391 389q0 -121 60.5 -190.5t177.5 -69.5q172 0 254 123q-176 190 -367 444q-125 -111 -125 -307zM596 1167q0 -121 133 -286q164 121 164 299q0 78 -38 126t-103 48q-156 0 -156 -187z" />
<glyph unicode="'" horiz-adv-x="407" d="M80 1245q-4 190 145 191q63 0 104.5 -35t41.5 -92q-1 -27 -11 -58l-143 -415l-129 2z" />
<glyph unicode="(" horiz-adv-x="706" d="M127 598q0 401 438 868l92 -61q-133 -180 -188 -379q-51 -178 -51 -420q0 -512 237 -801l-86 -77q-213 225 -311 399q-131 231 -131 471z" />
<glyph unicode=")" horiz-adv-x="706" d="M51 -203q242 317 242 799q0 506 -240 801l84 78q211 -219 312 -392q135 -231 135 -462q0 -244 -123 -474q-104 -195 -316 -411z" />
<glyph unicode="*" horiz-adv-x="1032" d="M150 1174q51 63 81 139q158 -119 244 -180q-8 92 -41 303q80 -12 156 0q-25 -190 -33 -303q129 90 240 188q27 -68 75 -137q-156 -61 -280 -123q127 -54 289 -113q-49 -66 -80 -135l-246 176q16 -164 45 -301q-80 12 -160 0q25 168 35 303q-139 -100 -239 -188 q-27 74 -78 135q154 66 278 125q-104 47 -286 111z" />
<glyph unicode="+" horiz-adv-x="1724" d="M244 508v242h499v510h242v-510h496v-242h-496v-510h-242v510h-499z" />
<glyph unicode="," horiz-adv-x="532" d="M78 -360q53 76 106 151q37 66 37 160q0 43 -67.5 88t-67.5 125q0 70 54.5 116t129.5 46q76 0 125 -52.5t49 -140.5q0 -248 -274 -502z" />
<glyph unicode="-" horiz-adv-x="948" d="M109 475v234h731v-234h-731z" />
<glyph unicode="." horiz-adv-x="532" d="M88 147q0 74 52.5 126.5t125.5 52.5q74 0 125 -52.5t51 -126.5q0 -72 -52 -123t-124 -51q-74 0 -126 50.5t-52 123.5z" />
<glyph unicode="/" horiz-adv-x="616" d="M-55 -193l575 1768h152l-574 -1768h-153z" />
<glyph unicode="0" d="M70 686q0 342 151 533q145 186 400 186q258 0 407.5 -186.5t149.5 -524.5q0 -356 -156 -547q-145 -178 -401 -178q-252 0 -401.5 187.5t-149.5 529.5zM393 688q0 -342 43 -475q49 -154 187 -154q141 0 190 148q41 129 41 489q0 326 -47 463q-53 156 -184 156 q-137 0 -187 -152q-43 -131 -43 -475z" />
<glyph unicode="1" d="M240 1030l2 168q145 47 293 96q201 68 307 123q-20 -387 -21 -717q0 -283 10 -700h-301l11 242q6 188 6 460q0 358 -4 490q-100 -72 -303 -162z" />
<glyph unicode="2" d="M82 0v115q133 129 266 256q164 164 246 295q109 174 108 331q0 137 -60 214t-171 77q-231 0 -330 -278v247q55 63 179 104.5t258 41.5q203 0 331.5 -105.5t128.5 -283.5q0 -143 -133 -305q-98 -119 -291 -271q-141 -109 -282 -217q55 -2 162 -2q250 0 475 17q14 14 14 49 v20h72v-305q-137 2 -553 4q-63 2 -420 -4z" />
<glyph unicode="3" d="M150 297q158 -225 333 -225q289 0 289 321q0 123 -72.5 204t-181.5 81q-100 0 -151 -14v127q41 -6 79 -7q260 0 261 269q0 115 -61.5 179t-151.5 64q-98 0 -191.5 -65.5t-122.5 -147.5l2 209q123 111 391 111q184 0 314 -92q137 -96 137 -250q0 -182 -276 -320 q152 -25 247 -108q105 -95 105 -230q0 -207 -168 -325q-154 -113 -400 -113q-90 0 -211.5 36t-168.5 75z" />
<glyph unicode="4" d="M47 393v68q426 571 666 936l254 2q-10 -188 -11 -625q0 -252 -2 -231h50q131 0 178 35l-27 -179q-72 0 -201 2q2 23 2 -180q0 -129 9 -221l-308 2q12 207 13 219v174q-188 4 -285 4q-160 0 -338 -6zM250 545h424v612q-160 -252 -424 -612z" />
<glyph unicode="5" d="M123 70v219q90 -111 145 -152q90 -70 199 -69q127 0 207 102t80 270q0 137 -77 212t-202 75q-121 0 -217 -65l-57 22q14 121 14 246q0 23 6 223q4 129 -4 221l401 -4l408 4v-297h-57q-14 61 -54 64l-264 4l-299 -4q-12 -180 -12 -307v-31q84 53 270 53q188 0 324 -111 q143 -118 143 -296q0 -211 -163.5 -347.5t-409.5 -136.5q-213 0 -381 105z" />
<glyph unicode="6" d="M121 567q0 373 194 613q188 231 467 231q156 0 269 -35l-2 -153q-104 78 -285 77q-150 0 -236 -162.5t-86 -432.5q90 141 269 141q195 0 315 -96q135 -105 135 -304q0 -233 -153 -360q-139 -117 -367 -117q-229 0 -371 150q-150 160 -149 448zM451 381q0 -315 192 -315 q106 0 154 86q45 80 45 254q0 313 -193 313q-199 0 -198 -338z" />
<glyph unicode="7" d="M162 1374h932l10 -78q-375 -639 -647 -1296h-258q188 281 673 1141l-335 4l-256 -4q-31 0 -45 -31q-6 -20 -13 -41h-59z" />
<glyph unicode="8" d="M100 406q0 141 105 247q98 102 231 113q-117 20 -191.5 106t-74.5 199q0 170 139 258q121 76 320 76q203 0 321 -78q133 -86 133 -252q0 -104 -76.5 -188t-187.5 -113q135 -14 225 -104q103 -100 103 -260q0 -440 -516 -441q-238 0 -377 103q-154 113 -154 334zM418 412 q0 -352 213 -353q198 1 198 351q0 307 -200 307q-211 0 -211 -305zM471 1073q0 -274 158 -274q157 0 157 272q0 248 -159 248q-156 0 -156 -246z" />
<glyph unicode="9" d="M80 956q0 221 166 342q141 106 352 107q240 0 383 -152.5t143 -418.5q0 -399 -170 -632t-452 -233q-236 0 -316 51v166q150 -115 281 -114q334 0 334 579q-76 -117 -281 -116q-182 0 -311 119.5t-129 301.5zM387 963q0 -295 213 -295q197 0 197 313q0 170 -46 246 t-153 76q-121 0 -170 -89q-41 -76 -41 -251z" />
<glyph unicode=":" horiz-adv-x="532" d="M90 147q0 74 51.5 124.5t122.5 50.5q74 0 125 -51.5t51 -123.5t-52 -123t-124 -51t-123 51.5t-51 122.5zM90 788q0 72 51.5 123.5t122.5 51.5q74 0 125 -51.5t51 -123.5t-52 -125t-124 -53t-123 52.5t-51 125.5z" />
<glyph unicode=";" horiz-adv-x="532" d="M76 -360q53 76 106 151q37 66 37 160q0 43 -67.5 88t-67.5 125q0 70 54.5 116t129.5 46q76 0 125 -52.5t49 -140.5q0 -248 -274 -502zM88 786q0 74 52.5 125.5t123.5 51.5q74 0 126 -51.5t52 -125.5q0 -72 -53 -123t-125 -51t-124 50.5t-52 123.5z" />
<glyph unicode="&#x3c;" horiz-adv-x="1724" d="M254 492v315l1216 500v-256l-987 -402l987 -399v-256z" />
<glyph unicode="=" horiz-adv-x="1724" d="M244 279v241h1237v-241h-1237zM244 743v242h1237v-242h-1237z" />
<glyph unicode="&#x3e;" horiz-adv-x="1724" d="M254 -6v256l987 399l-987 402v256l1216 -500v-315z" />
<glyph unicode="?" horiz-adv-x="911" d="M164 1126v107q2 74 2 106q139 84 313 84q152 0 262 -80q123 -88 123 -223q0 -129 -164 -260l-94 -76l-114 -82q-47 -37 -48 -75q0 -100 56 -187l-105 -12q-90 78 -108 96q-70 74 -70 140t35 104q53 43 104 88l117 102q96 84 96 197q0 72 -46 115t-115 43q-96 0 -162 -60 q-20 -43 -21 -127h-61zM266 133q0 68 48 116t116 48t116 -48t48 -116q0 -66 -48 -114t-116 -48t-116 47.5t-48 114.5z" />
<glyph unicode="@" horiz-adv-x="2048" d="M106 555q0 412 308 680q293 258 710 258q334 0 572 -176q264 -194 264 -520q0 -360 -252 -559q-145 -115 -322 -115q-190 0 -210 135q-106 -135 -273 -135q-334 0 -334 348q0 240 140.5 403.5t345.5 163.5q176 0 252 -137l47 98h133l-146 -585q-16 -63 -16 -88 q0 -72 86 -72q100 0 199 78q197 156 196 471q0 240 -186 397q-193 162 -498 162q-369 0 -610 -229q-248 -236 -248 -603q0 -324 225 -512q211 -178 543 -178q344 0 639 201l62 -88q-315 -238 -680 -238q-408 0 -668 211q-279 229 -279 629zM733 463q0 -215 187 -215 q170 0 251 176q26 49 89 311q-37 178 -193 178q-145 0 -239.5 -128t-94.5 -322z" />
<glyph unicode="A" horiz-adv-x="1402" d="M20 0q115 227 293 672q145 367 291 733h195q129 -330 258 -662q154 -389 270 -655q23 -16 66 -16h18v-72h-389q-53 162 -176 492q-78 4 -236 4q-131 0 -209 -4q-55 -129 -161 -416q12 -2 36 -2h21v-74h-277zM440 614l171 -4h-3q29 0 89.5 2t105.5 2q-57 172 -178 494z " />
<glyph unicode="B" horiz-adv-x="1343" d="M94 1325v70h588q258 0 381 -72q133 -78 133 -248q0 -113 -106 -207q-94 -84 -222 -114q164 -35 265 -113q120 -92 120 -219q0 -207 -151.5 -316.5t-423.5 -109.5q-51 0 -153.5 4t-133.5 4q-39 0 -227 -4q20 303 20 565q0 483 -10 733q-12 27 -59 27h-21zM475 502 q0 -254 10 -379q63 -14 117 -14h2q330 0 330 290q0 150 -74 217q-82 74 -266 74q-33 0 -119 -8v-180zM475 803q49 -4 90 -4q172 0 244 67q68 62 68 197q0 115 -58 170q-63 59 -213 59q-53 0 -123 -8q-8 -100 -8 -227v-254z" />
<glyph unicode="C" horiz-adv-x="1376" d="M96 694q0 319 209 522t543 203q274 0 440 -104l2 -250h-71v20q0 25 -21 70q-109 162 -305 162q-227 0 -344 -172q-111 -160 -111 -453q0 -289 125 -444.5t352 -155.5q214 0 396 203l-2 -162q-188 -160 -469 -160q-338 0 -535 181q-209 190 -209 540z" />
<glyph unicode="D" horiz-adv-x="1607" d="M98 1321v74h641q352 0 549 -152q219 -170 219 -512q0 -346 -215 -540.5t-606 -194.5q-45 0 -111.5 4t-117.5 4q-96 0 -281 -4q8 231 8 694q0 408 -6 600q-12 27 -59 27h-21zM483 748q0 -360 9 -633q111 -8 126 -9q315 0 449 166q113 144 113 441q0 295 -107 428 q-115 143 -385 143q-162 0 -199 -2q-6 -266 -6 -534z" />
<glyph unicode="E" horiz-adv-x="1169" d="M113 1321v74h938v-209h-72q0 63 -23 78q-203 16 -419 16h-27q-4 -225 -4 -422v-67l495 10v-139q-285 12 -497 12v-72q0 -115 4 -487h31q199 0 450 18q18 14 19 76h73q0 -39 -2 -107v-102h-891q16 264 17 711q0 565 -13.5 587.5t-58.5 22.5h-20z" />
<glyph unicode="F" horiz-adv-x="1159" d="M109 1321v74h962v-215h-74q0 61 -16 75q-143 20 -442 21h-29q-8 -139 -8 -297v-195q156 0 512 13v-144q-358 12 -512 13v-414q0 -74 4 -154q19 -26 78 -26h4v-72h-398q14 203 15 686q0 584 -17 612q-14 23 -59 23h-20z" />
<glyph unicode="G" horiz-adv-x="1564" d="M96 676q0 328 221.5 535.5t585.5 207.5q301 0 500 -125v-239h-72v20q0 14 -14 58q-88 98 -166 137q-92 45 -227 45q-231 0 -362.5 -169t-131.5 -454q0 -274 125 -438q131 -176 371 -176q84 0 159 31q61 23 86 47q4 175 5 175v-1q0 31 -5 178q-13 22 -57 22h-4h-18v74h342 q-8 -231 -9 -272q1 -154 11 -246q-225 -111 -580 -111q-356 0 -561 195q-199 188 -199 506z" />
<glyph unicode="H" horiz-adv-x="1648" d="M113 1321v74h403q-14 -119 -14 -521v-57q49 -2 160 -4q86 -2 159 -2q72 0 164 2q115 2 162 4v57q0 254 -10 414q-20 33 -68 33h-18v74h405q-14 -305 -14 -645q0 -287 12 -650q14 -28 66 -28h4h14v-72h-408q16 270 17 606v74q-193 6 -322 6t-323 -6v-74q0 -383 4 -500 q10 -34 69 -34h3h14v-72h-406q18 291 19 750q0 360 -8 538q-8 33 -66 33h-18z" />
<glyph unicode="I" horiz-adv-x="706" d="M113 1323v72h403q-14 -287 -14 -650q0 -520 4 -636q10 -35 72 -35h14v-72h-406q18 291 19 750q0 360 -8 538q-8 33 -66 33h-18z" />
<glyph unicode="J" horiz-adv-x="628" d="M-70 -397q158 176 213 307q61 141 62 360v473q-2 270 -19 562q-16 20 -59 20h-18v70h393q-10 -256 -10 -521q0 -221 4 -441t4 -222q0 -180 -152 -342q-141 -133 -285 -266h-133zM494 727z" />
<glyph unicode="K" horiz-adv-x="1513" d="M115 1323v72h399q-14 -152 -14 -342v-584q0 -203 8 -373q13 -24 57 -24h4h19v-72h-398q14 238 15 606q0 446 -10 692q-14 25 -60 25h-20zM510 739q170 188 534 609q14 16 21 47h276v-72h-20q-74 0 -180 -102q-145 -141 -375 -381q225 -319 627 -758q29 -12 57 -12h20v-70 h-216t-183 0q-12 16 -240 315z" />
<glyph unicode="L" horiz-adv-x="1091" d="M113 1323v72h401q-20 -512 -20 -703q0 -238 12 -569q35 -2 117 -2q197 0 329 20q23 14 23 60v20h72v-221q-371 6 -418 6q-299 0 -439 -6q14 424 15 696q0 260 -12 600q-14 27 -60 27h-20z" />
<glyph unicode="M" horiz-adv-x="1959" d="M61 0q78 344 211 1405h177q129 -268 258 -537q156 -326 272 -530q225 418 524 1067h178q6 -63 158 -1329q14 -6 39 -6h20v-70h-212.5t-159.5 0q-33 522 -96 924q-324 -610 -439 -936h-196q-166 444 -437 946q-78 -549 -88 -832q14 -30 59 -30h3h20v-72h-291z" />
<glyph unicode="N" horiz-adv-x="1624" d="M109 0v72h20q45 0 59 24q23 522 23 1094v215h192q358 -414 428 -494q227 -256 447 -477q2 16 2 137q0 698 -15.5 725t-60.5 27h-20v72h332v-72h-19q-47 0 -61 -27q-12 -432 -13 -854q0 -147 4 -448h-180q-270 336 -887 993q-4 -131 -4 -211q0 -242 13 -680q13 -24 56 -24 h3h21v-72h-340z" />
<glyph unicode="O" horiz-adv-x="1769" d="M98 688q0 328 221.5 528.5t565.5 200.5q350 0 568 -197.5t218 -527.5q0 -326 -221 -523.5t-565 -197.5q-352 0 -569.5 194.5t-217.5 522.5zM434 688q0 -608 451 -608q225 0 342 170q108 159 108 444q0 616 -450 617q-217 0 -334 -166t-117 -457z" />
<glyph unicode="P" horiz-adv-x="1339" d="M94 1323v72q86 0 303 3t308 3q514 -13 514 -367q0 -411 -581 -411h-3q-117 0 -172 2v-269q0 -113 8 -258q12 -26 56 -26h3h21v-72h-379q12 352 12 694q0 584 -13 606.5t-56 22.5h-21zM461 725q43 -2 110 -2q186 0 263 84q61 68 61 209q0 147 -64 209q-71 69 -251 69h-5 q-51 0 -104 -4q-10 -205 -10 -391v-174z" />
<glyph unicode="Q" horiz-adv-x="1769" d="M98 692q0 328 221.5 526.5t565.5 198.5q350 0 568 -197.5t218 -527.5q0 -236 -139 -426q-129 -176 -324 -248q49 -49 191 -178q120 -108 215 -108h2q41 0 117 26l20 -75q-217 -72 -289 -72q-180 0 -303 113q-80 86 -254 249q-35 -2 -22 -2q-350 0 -568.5 195.5 t-218.5 525.5zM434 688q0 -608 451 -608q452 0 452 614q0 616 -452 617q-219 0 -335 -161t-116 -462z" />
<glyph unicode="R" horiz-adv-x="1318" d="M92 1323v72q39 0 116 -2t116 -2q37 0 184 5t215 5q229 0 353 -90t124 -254q0 -145 -74 -230q-80 -88 -258 -127q129 -213 367 -579q49 -49 78 -49h26v-74q2 0 -241 0q-88 0 -121 12q-39 16 -70 68q-115 221 -368 661h30q315 0 316 293q0 125 -51 185q-62 73 -216 73h-4 q-43 0 -122 -4q-10 -82 -11 -194v-773q0 -102 6 -233q27 -14 68 -14h20v-72h-405q16 250 16 694q0 586 -14 607.5t-59 21.5h-21z" />
<glyph unicode="S" horiz-adv-x="1101" d="M55 82v223h72v-18q0 -23 12 -51q70 -74 115 -103q88 -55 203 -55q123 0 204.5 66.5t81.5 183.5q0 96 -55 155q-47 47 -156 95q-217 90 -292 151q-143 117 -144 305q0 188 148 291q131 92 342 92q213 0 375 -82v-229h-72v20q0 29 -17 60q-119 129 -264 129 q-104 0 -171.5 -52.5t-67.5 -142.5q0 -106 55 -157q33 -31 156 -84q215 -92 294 -162q140 -119 140 -305q0 -199 -157 -319t-386 -120q-274 0 -416 109z" />
<glyph unicode="T" horiz-adv-x="1198" d="M51 1180v215h1114v-217h-71v20q0 43 -15 62q-110 22 -250 22h-12h-49q-10 -158 -10 -528q0 -653 12 -664q16 -16 55 -16h21v-74h-395q10 600 10 766l-2 516h-56q-145 0 -258 -12q-23 -12 -22 -72v-18h-72z" />
<glyph unicode="U" horiz-adv-x="1611" d="M123 1319v76h391q-8 -580 -8 -690q0 -299 69 -429q81 -151 292 -151h3q217 0 304 145q63 109 71 357q4 92 4 354v94q0 215 -8 225q-16 20 -59 21h-21v74h334v-76h-20q-57 0 -66 -35q-6 -178 -6 -323q0 -39 2 -119v-121q0 -354 -88 -516q-131 -231 -490 -232 q-301 0 -460 154q-166 158 -166 463q0 55 4 352q1 108 1 196t-1 158q-16 23 -62 23h-20z" />
<glyph unicode="V" horiz-adv-x="1431" d="M-4 1325v70h377q143 -410 448 -1155q195 475 400 1058q-14 25 -58 25h-20v72h299q-389 -922 -578 -1411h-248q-104 274 -272 667q-141 332 -285 662q-8 6 -43 10z" />
<glyph unicode="W" horiz-adv-x="2189" d="M4 1325v70h381q197 -729 320 -1116q158 436 313 1019q-14 25 -60 25h-20v72h383q119 -385 172 -549q96 -303 186 -549q152 442 297 995q-14 31 -61 31h-21v72h301q-162 -471 -469 -1411l-270 2q-154 535 -350 1081q-152 -446 -350 -1083h-267q-164 543 -415 1327 q-14 14 -49 14h-21z" />
<glyph unicode="X" horiz-adv-x="1316" d="M31 0q164 227 485 688q-201 315 -407 633q-10 2 -27 2h-21v72h369q162 -313 287 -508q74 106 149 211q84 123 138 219q-14 4 -35 4h-21v74h303q-264 -344 -463 -619q188 -315 445 -696q35 -8 49 -8h21v-72h-398q-68 150 -317 567q-215 -315 -307 -489q14 -6 38 -6h21v-72 h-309z" />
<glyph unicode="Y" horiz-adv-x="1269" d="M-4 1323v72h373q178 -401 368 -688q76 125 301 608q-14 6 -41 6h-20v74h303q-203 -326 -471 -815q-4 -133 -4 -185q0 -137 8 -299q13 -24 56 -24h3h21v-72h-399q12 205 12 303q0 119 -10 264q-111 195 -447 752q-12 4 -33 4h-20z" />
<glyph unicode="Z" horiz-adv-x="1308" d="M20 0q166 258 482 774q299 492 301 506q-41 2 -164 2q-233 0 -455 -18q-27 -14 -26 -62v-18h-72v211h1147q-229 -348 -797 -1274q127 -4 199 -4q213 0 500 18q25 14 24 60v20h72v-215h-1211z" />
<glyph unicode="[" horiz-adv-x="669" d="M137 -221q6 100 6 399v817q0 299 -6 400h23q23 0 123 -2h122.5h75.5q49 2 76 2h21v-117q-53 14 -99 14h-71q-8 -150 -9 -479v-453q0 -328 9 -479h71q45 0 99 15v-117q-72 4 -175 4q-197 0 -266 -4z" />
<glyph unicode="\" horiz-adv-x="598" d="M-49 1528h149l557 -1714h-149z" />
<glyph unicode="]" horiz-adv-x="669" d="M59 -104q53 -14 99 -15h71q8 121 9 479v453q0 360 -9 479h-71q-45 0 -99 -14v117h21q27 0 76 -2h75.5h124.5q98 2 121 2h23q-6 -94 -6 -391v-824q0 -299 6 -401q-68 4 -269 4q-100 0 -172 -4v117z" />
<glyph unicode="^" horiz-adv-x="2004" d="M270 791l553 661h359l551 -661h-295l-434 514l-439 -514h-295z" />
<glyph unicode="_" horiz-adv-x="1013" d="M-10 -334h1032v-207h-1032v207z" />
<glyph unicode="`" horiz-adv-x="653" d="M8 1401q0 41 33 70.5t88 29.5q78 0 139 -74l271 -323h-117l-344 201q-70 41 -70 96z" />
<glyph unicode="a" horiz-adv-x="1099" d="M37 244q0 180 174 260q57 25 321 82q82 16 111 39v30q0 137 -35 197q-41 70 -145 70q-94 0 -177 -69t-106 -157h-69v193q70 59 192 92q106 31 211 31q209 0 303 -74q111 -86 111 -301v-428q0 -82 6 -100q12 -37 61 -37h21v-72h-350l-21 104q-134 -122 -312 -122h-3 q-139 0 -216 68.5t-77 193.5zM340 250q0 -137 123 -137q72 0 124 56.5t52 158.5v192q-188 -33 -252 -102q-47 -53 -47 -168z" />
<glyph unicode="b" horiz-adv-x="1327" d="M74 1454v74h383q-12 -264 -13 -539v-125q121 145 304 146q221 0 344 -113q139 -123 139 -369q0 -279 -158 -424q-137 -129 -362 -129q-170 0 -310 119q-59 -41 -147 -117h-98q2 27 6 547l2 555q0 164 -6 342q-8 33 -64 33h-20zM436 438q0 -362 232 -362q254 0 254 444 q0 379 -236 379q-250 0 -250 -461z" />
<glyph unicode="c" horiz-adv-x="1060" d="M84 492q0 227 155.5 372.5t389.5 145.5q225 0 350 -80v-209h-76v22q0 63 -53 115q-63 57 -164 57q-291 0 -291 -421q0 -195 77 -307.5t220 -112.5q90 0 159 58t69 116v18h71v-190q-129 -100 -383 -101q-219 0 -368 144q-156 147 -156 373z" />
<glyph unicode="d" horiz-adv-x="1329" d="M96 481q0 250 137 396q129 137 330 137q225 0 328 -140v293q0 141 -4 275q-13 24 -58 24h-4h-20v62h377q-8 -256 -8 -658q0 -772 14 -790.5t55 -18.5h21v-59l-344 -2q-20 100 -21 156q-55 -82 -152.5 -128t-205.5 -46q-197 0 -316 124q-129 135 -129 375zM401 485 q0 -391 232 -391q260 0 260 428q0 383 -238 383q-254 0 -254 -420z" />
<glyph unicode="e" horiz-adv-x="1155" d="M84 492q0 229 145.5 374.5t374.5 145.5q209 0 333 -122t124 -315v-30q-2 -18 -2 -29h-662v-31q0 -399 285 -399q102 0 183 50t81 112v20h76v-188q-141 -102 -416 -103q-221 0 -371.5 146.5t-150.5 368.5zM401 635h365q0 145 -23 201q-37 84 -147 84q-180 0 -195 -285z " />
<glyph unicode="f" horiz-adv-x="610" d="M27 868v115q74 -6 141 -6q0 172 123 350q137 199 313 199q96 0 158 -23v-217h-80v19q0 92 -88 92q-80 0 -123 -62q-37 -53 -37 -137q0 -152 6 -221q119 0 207 8v-117q-23 2 -94 4q-61 2 -111 2v-235q0 -336 9 -514q8 -53 73 -53h19v-72h-391q10 141 10 643v231 q-10 0 -135 -6z" />
<glyph unicode="g" horiz-adv-x="1144" d="M31 -305q0 131 202 209h127q-102 -55 -102 -168q0 -92 92 -144q82 -45 211 -45q156 0 232 78q57 57 57 127q0 205 -301 205q-401 0 -402 209q0 121 213 186q-276 78 -276 299q0 176 143 271q133 88 351 88q47 0 158.5 -12.5t168.5 -12.5q82 0 101 6q39 12 38 70v20h84 v-20q0 -68 -2 -80q-6 -78 -88 -78q-20 0 -86 10q111 -82 111 -237q0 -178 -160 -273q-131 -79 -327 -79h-5q-27 0 -47 2t-30 2q-37 0 -70 -15q-39 -16 -39 -45q0 -80 160 -80q581 0 581 -359q0 -185 -182 -284q-160 -88 -416 -88q-195 0 -333 58q-164 63 -164 180zM383 668 q0 -121 50 -191.5t142 -70.5q177 0 177 262t-179 262q-190 0 -190 -262z" />
<glyph unicode="h" horiz-adv-x="1318" d="M84 1452v74h383q-10 -201 -10 -445v-254q100 186 317 187q172 0 268.5 -90t96.5 -265q0 -39 -3 -156.5t-3 -180.5q0 -61 6 -220q10 -30 60 -30h3h21v-72h-381q10 383 10 557q0 184 -23 246q-31 82 -133 82q-123 0 -190 -150q-47 -106 -47 -211v-274q0 -57 2 -154 q15 -22 57 -22h4h21v-74h-379q10 252 10 469v334q0 616 -10 629q-16 20 -60 20h-20z" />
<glyph unicode="i" horiz-adv-x="653" d="M104 913v72h377q-10 -266 -10 -475q0 -190 6 -406q10 -30 63 -30h3h18v-74h-375q12 291 13 510q0 182 -6 356q-8 47 -68 47h-21zM166 1290q0 68 48 115t116 47t116 -47t48 -115t-48.5 -116t-115.5 -48q-68 0 -116 48.5t-48 115.5z" />
<glyph unicode="j" horiz-adv-x="593" d="M-57 -543q158 143 204 287q35 106 35 338q0 530 -6 786q-6 45 -67 45h-19v72h375q-8 -92 -8 -248l2 -725q0 -158 -111 -305q-61 -84 -242 -252zM152 1290q0 68 48 115t115 47q68 0 116 -47t48 -115t-48 -116t-116 -48t-115.5 48.5t-47.5 115.5z" />
<glyph unicode="k" horiz-adv-x="1249" d="M80 1464v64h391q-12 -510 -12 -750v-393q0 -145 6 -279q10 -45 67 -45h19v-61h-387q12 406 12 766q0 365 -8 647q-8 51 -68 51h-20zM479 551l213 213q133 133 203 221h260q-233 -145 -426 -328q102 -145 207 -288q133 -186 229 -293q29 -14 45 -15h29v-61h-371l-8 10 q-125 180 -381 541z" />
<glyph unicode="l" horiz-adv-x="657" d="M104 1454v74h383q-8 -252 -8 -611v-147v-134q0 -269 6 -544q18 -18 60 -18h18v-74h-379q10 469 11 764q0 657 -13 670q-14 20 -57 20h-21z" />
<glyph unicode="m" horiz-adv-x="2009" d="M109 913v72h181t161 0q23 -113 22 -154q41 86 133 135.5t201 49.5q102 0 188 -45q100 -53 131 -150q43 88 154 142q100 51 203 51q147 0 237 -76q111 -90 111 -276q0 -203 -2 -328q-1 -98 -1 -157t1 -79q14 -26 56 -26h3h21v-72h-371q8 150 8 588q0 162 -30 225 q-37 74 -136 74q-145 0 -192 -129q-37 -100 -37 -383q0 -137 4 -277q12 -26 56 -26h3h21v-72h-379q16 238 16 567q0 172 -34.5 245t-132.5 73q-154 0 -205 -191q-25 -100 -25 -319q0 -135 6 -279q13 -24 57 -24h3h20v-72h-377q10 102 11 336v334q0 106 -7 217q-14 26 -56 26 h-3h-20z" />
<glyph unicode="n" horiz-adv-x="1337" d="M100 913v72h361q16 -123 16 -164q111 195 318 195q170 0 267 -97.5t97 -277.5q0 -49 -2 -166t-2 -164q0 -35 3 -101.5t3 -100.5q0 -47 68 -48h20v-61h-387q10 158 10 590q0 154 -30 219q-35 76 -123 76q-115 0 -182 -119q-57 -104 -58 -246v-151q0 -106 4 -258 q8 -47 68 -48h18v-63h-387q12 168 13 344v311q0 92 -7 211q-4 47 -67 47h-21z" />
<glyph unicode="o" horiz-adv-x="1251" d="M84 492q0 248 168 389q152 129 377 129q233 0 377 -125q161 -139 161 -393q0 -268 -166 -404q-141 -113 -376 -113q-231 0 -377 123q-164 137 -164 394zM395 494q0 -219 47 -318q53 -108 181 -108h2q129 0 182 106q49 94 49 305q0 225 -47 324q-53 112 -180 112h-2 q-127 0 -183 -108q-49 -98 -49 -313z" />
<glyph unicode="p" horiz-adv-x="1318" d="M74 915v70h377q-1 -42 -1 -73.5t1 -51.5q119 158 313 158q213 0 338 -125q133 -135 133 -397q0 -252 -148 -394q-133 -127 -342 -127q-180 0 -286 127v-178q0 -25 6 -362q12 -31 63 -31h21v-72q-88 0 -385 -2q6 184 6 844q0 416 -4 547q-4 67 -70 67h-2h-20zM451 496 q0 -414 239 -414q236 0 236 420q0 401 -236 401q-240 0 -239 -407z" />
<glyph unicode="q" horiz-adv-x="1314" d="M96 461q0 244 139.5 398.5t368.5 154.5q152 0 291 -117q47 39 92 94h172q0 -31 -4 -526l-2 -574q0 -150 4 -327q8 -33 66 -33h20v-72h-385q10 221 10 531q0 14 -2 131q-117 -139 -288 -139q-199 0 -336 131q-145 137 -146 348zM408 469q0 -379 245 -379q123 0 178 115 q52 109 52 336q0 372 -225 372h-1q-139 0 -198 -114q-51 -102 -51 -330z" />
<glyph unicode="r" horiz-adv-x="886" d="M100 913v70h342q13 -124 13 -192v-9q129 223 276 224q66 0 127 -23v-270h-80v20q0 86 -88 86q-98 0 -158 -76q-73 -93 -73 -279v-5q0 -240 4 -359q10 -28 61 -28h4h21v-74h-371q6 100 10 299l2 383q0 137 -6 219q-25 14 -63 14h-21z" />
<glyph unicode="s" horiz-adv-x="929" d="M84 57v215h78v-20q0 -86 74 -143q63 -49 145 -50q90 0 142 46.5t52 115.5q0 61 -49 101t-182 92q-119 45 -172 100q-72 76 -72 201t117 210t268 85q201 0 330 -80v-203h-78v21q0 66 -58 119t-140 53q-78 0 -124 -40t-46 -106q0 -57 51 -96q41 -31 139 -70 q150 -59 211 -116q82 -78 82 -207q0 -156 -135 -238q-117 -70 -299 -70q-217 0 -334 80z" />
<glyph unicode="t" horiz-adv-x="774" d="M57 868v117q47 -4 127 -6v43q0 92 -4 211l299 45q-8 -156 -8 -184v-117q176 0 248 8v-115q-78 4 -250 4l-4 -86q0 -57 -4 -214.5t-4 -256.5q0 -127 30.5 -173t110.5 -46q47 0 123 72l49 -82q-43 -51 -131 -82q-75 -26 -150 -26h-6q-313 0 -313 290q0 29 5 218.5t5 338.5 v47q-66 0 -123 -6z" />
<glyph unicode="u" horiz-adv-x="1308" d="M90 913v72h385q-14 -139 -18 -348v-242q0 -150 20 -198q31 -76 141 -76q238 0 238 395v106.5v90.5q0 59 -8 172q-10 28 -64 28h-4h-18v72h383q-13 -252 -13 -496q0 -201 9 -395q13 -22 55 -22h4h19v-72h-347q-10 53 -20 154q-37 -74 -143.5 -125.5t-202.5 -51.5 q-332 0 -332 347q0 543 -2 563q-14 26 -60 26h-3h-19z" />
<glyph unicode="v" horiz-adv-x="1110" d="M0 915v70h375q86 -328 270 -743q152 299 258 659q-6 12 -35 12h-18v72h16h234q-160 -358 -410 -997h-258q-109 356 -354 903q-26 24 -56 24h-2h-20z" />
<glyph unicode="w" horiz-adv-x="1785" d="M12 913v72h365q51 -209 244 -715q135 307 204 604q-10 39 -63 39h-21v72h373q82 -303 234 -719q137 301 231 621q-14 26 -56 26h-3h-21v72h277q-96 -221 -207 -481q-137 -326 -187 -514h-260q-16 94 -61 231q-51 160 -158 471q-168 -410 -246 -704l-254 2 q-43 180 -174 518q-53 150 -155 397q-14 8 -41 8h-21z" />
<glyph unicode="x" horiz-adv-x="1142" d="M41 -2q137 156 403 477q-100 147 -311 432q-14 6 -61 6h-19v72h385q102 -203 203 -330q61 68 125 138q55 63 74 110q-14 10 -45 10h-19v72h330q-133 -133 -393 -424q113 -166 346 -481q18 -8 43 -8h18v-72h-370q-63 145 -224 367q-90 -106 -129 -156q-61 -80 -90 -131 q14 -8 43 -8h19v-72q-94 0 -328 -2z" />
<glyph unicode="y" horiz-adv-x="1095" d="M0 913v72h369q43 -152 125 -352q72 -174 143 -346q66 147 131 297q66 160 111 321q-14 8 -43 8h-21v72h277q-70 -137 -218 -446l-284 -602q-92 -197 -203 -480h-229q158 201 270 443l33 69q-92 248 -404 938q-12 6 -37 6h-20z" />
<glyph unicode="z" horiz-adv-x="1009" d="M27 2v66q115 139 297 405q270 395 286 416h-41q-162 0 -405 -33q-6 -14 -6 -41v-18h-72v188l879 2v-57q-123 -154 -299 -412q-143 -209 -287 -418q172 2 258 9q145 10 252 34q10 14 10 45v21h72v-209z" />
<glyph unicode="{" horiz-adv-x="1013" d="M160 481v105q10 0 30 -2h33q76 0 105 26q23 23 22 84q0 18 -3 71.5t-3 90.5v234q0 379 449 378h65v-100h-55q-119 0 -162 -68q-35 -55 -35 -200v-234q0 -141 -28 -211q-35 -84 -123 -123q88 -39 123 -122q29 -70 28 -211v-234q0 -143 33 -201q41 -68 156 -67q6 0 20 2h23 h20v-100h-65q-223 0 -332 84q-117 90 -117 292v236q0 37 3 90t3 72q0 59 -22 84q-29 27 -105 26h-33q-20 -2 -30 -2z" />
<glyph unicode="|" horiz-adv-x="1013" d="M424 -428v1935h166v-1935h-166z" />
<glyph unicode="}" horiz-adv-x="1013" d="M158 -301h57q117 0 158 65q37 55 37 201v234q0 141 26 211q35 84 125 122q-90 39 -125 123q-27 70 -26 211v234q0 145 -35 203q-41 68 -154 67q-8 0 -22 -2h-23h-18v100h65q446 0 447 -378v-234q0 -37 -2 -90t-2 -72q0 -59 24.5 -84.5t102.5 -25.5h30q23 2 33 2v-105 q-35 2 -63 2q-78 0 -102.5 -25.5t-24.5 -84.5q0 -18 2 -71.5t2 -90.5v-236q0 -203 -117 -292q-109 -84 -330 -84h-65v100z" />
<glyph unicode="~" horiz-adv-x="1673" d="M164 436v260q246 172 393 172q104 0 286.5 -98t274.5 -98q96 0 211 65q31 18 184 129v-262q-238 -168 -395 -168q-102 0 -283.5 97.5t-277.5 97.5q-94 0 -209 -68q-29 -16 -184 -127z" />
<glyph unicode="&#xa1;" horiz-adv-x="692" d="M180 127q0 240 125 813h88q125 -575 125 -813q0 -156 -172 -156q-72 0 -119 41t-47 115zM184 1268q0 66 49.5 114t114.5 48q70 0 118 -47t48 -115q0 -70 -48 -117t-118 -47q-68 0 -116 47t-48 117z" />
<glyph unicode="&#xa2;" d="M127 485q0 246 186 385q164 123 414 123q47 0 88 -4l68 182h106l-76 -202q68 -20 123 -56v-208q-59 104 -157 163l-271 -739q59 -41 162 -41q168 0 279 193v-201q-129 -100 -340 -100q-51 0 -152 16l-88 -238h-107l103 258q-41 14 -80 29q-100 51 -166 139 q-92 125 -92 301zM438 487q0 -178 84 -292l254 702q-14 2 -31 2q-145 0 -226 -107.5t-81 -304.5z" />
<glyph unicode="&#xa3;" d="M154 594v141q39 -4 196 -4q-10 111 -10 170q0 242 86 356q106 143 373 144q197 0 327 -144v-239q-119 268 -317 268q-102 0 -143 -80q-35 -70 -35 -221q0 -84 14 -256q260 0 320 8v-137q-78 8 -324 8v-26q0 -129 -74 -234q-35 -51 -155 -170q184 57 454 58 q145 -1 297 -17v-229q-209 33 -465 33q-289 0 -495 -48l-45 148q90 35 133 90q70 84 69 244q0 72 -6 147q-133 0 -200 -10z" />
<glyph unicode="&#xa4;" horiz-adv-x="1349" d="M96 100l213 215q-86 123 -86 260q0 139 86 265l-213 213l99 96l211 -211q121 84 264 84q147 0 266 -84l211 211l98 -96l-213 -213q84 -121 84 -265q0 -139 -84 -260l211 -215l-96 -96l-211 211q-121 -86 -266 -86q-141 0 -264 86l-211 -211zM418 578q0 -102 74.5 -177 t179.5 -75q104 0 177 75t73 177q0 104 -73 176.5t-177 72.5t-179 -73.5t-75 -175.5z" />
<glyph unicode="&#xa5;" d="M16 1321v74h361q129 -311 330 -629q139 242 274 549q-12 6 -39 6h-18v74h278q-215 -365 -371 -650h289v-88h-334l-12 -22q-2 -47 -2 -123h348v-88h-350q0 -166 8 -328q14 -25 58 -24h18v-72h-385q12 205 12 344v80h-364v88h360q-2 41 -4 111l-20 34h-336v88h289 q-111 182 -338 572q-12 4 -33 4h-19z" />
<glyph unicode="&#xa6;" horiz-adv-x="1044" d="M449 -352v798h149v-798h-149zM449 672v798h149v-798h-149z" />
<glyph unicode="&#xa7;" d="M166 657q0 147 182 222q-111 76 -110 215q0 186 141 274q111 70 289 70q84 0 186 -29q115 -35 152 -80v-215q-39 84 -123 146q-90 68 -181 67q-223 0 -223 -158q0 -106 154 -188q143 -70 287 -141q153 -98 153 -250q0 -164 -153 -258q102 -76 102 -217q0 -172 -158 -269 q-133 -82 -311 -82q-86 0 -193 27q-117 31 -178 76v194q123 -176 353 -176q240 0 239 168q0 102 -158 191q-145 78 -292 155q-158 106 -158 258zM401 684q0 -68 160 -166q125 -70 250 -137q29 47 29 141q0 76 -150 172q-10 6 -229 127q-59 -49 -60 -137z" />
<glyph unicode="&#xa8;" horiz-adv-x="653" d="M-18 1290q0 57 40.5 99.5t98.5 42.5q55 0 97 -42.5t42 -99.5q0 -59 -41 -99t-98 -40q-59 0 -99 40t-40 99zM389 1290q0 57 42 99.5t99 42.5q55 0 96.5 -42.5t41.5 -99.5q0 -59 -40 -99t-98 -40q-59 0 -100 40t-41 99z" />
<glyph unicode="&#xa9;" horiz-adv-x="1673" d="M106 719q0 301 214.5 516t515.5 215q305 0 518 -213t213 -518q0 -303 -214 -517t-517 -214q-297 0 -513.5 216t-216.5 515zM195 719q0 -262 190 -457.5t451 -195.5q266 0 455.5 191.5t189.5 459.5q0 272 -187.5 464.5t-457.5 192.5q-262 0 -451.5 -195.5t-189.5 -459.5z M455 717q0 188 112.5 294.5t306.5 106.5q135 0 232 -61v-170h-64v31q0 12 -8 32q-63 88 -164 88q-121 0 -184 -86t-63 -237q0 -311 251 -312q123 0 242 134v-129q-106 -92 -248 -93q-414 0 -413 402z" />
<glyph unicode="&#xaa;" horiz-adv-x="876" d="M66 891q0 127 145 178q125 29 248 57q23 6 33 13v37q0 78 -19 104q-25 35 -102 35q-61 0 -124 -50.5t-77 -103.5h-55v139q106 86 291 86q178 0 256 -61q72 -57 71 -178v-287v-51q4 -27 33 -27h25v-61h-283l-12 70q-84 -82 -197 -82q-233 0 -233 182zM70 479v119h759v-119 h-759zM309 907q0 -94 86 -94q33 0 63.5 31.5t30.5 64.5v148q-117 -23 -153 -58q-27 -29 -27 -92z" />
<glyph unicode="&#xab;" horiz-adv-x="1085" d="M78 508l446 477l43 -82l-202 -395l202 -397l-43 -80zM532 508l449 477l43 -82l-205 -395l205 -395l-43 -82z" />
<glyph unicode="&#xac;" horiz-adv-x="1673" d="M236 682v240h1202v-629h-236v389h-966z" />
<glyph unicode="&#xad;" horiz-adv-x="948" d="M109 475v234h731v-234h-731z" />
<glyph unicode="&#xae;" horiz-adv-x="1673" d="M106 719q0 301 214.5 516t515.5 215q305 0 518 -213t213 -518q0 -303 -214 -517t-517 -214q-297 0 -513.5 216t-216.5 515zM195 719q0 -262 190 -457.5t451 -195.5q266 0 455.5 191.5t189.5 459.5q0 272 -187.5 464.5t-457.5 192.5q-262 0 -451.5 -195.5t-189.5 -459.5z M526 1071v64h31q14 0 55 -2h58q20 0 90.5 2t107.5 2q264 0 265 -195q0 -162 -185 -207q61 -94 213 -307q35 -4 51 -4v-66h-110q-47 0 -65.5 9.5t-39.5 40.5q-78 111 -227 370h37q172 0 172 150q0 127 -166 127q-29 0 -78 -4q-2 -33 -2 -101v-407v-117q14 -4 29 -4h20v-64 h-202q8 162 8 387q0 168 -6 299q-18 27 -25 27h-31z" />
<glyph unicode="&#xaf;" horiz-adv-x="653" d="M41 1192v162h573v-162h-573z" />
<glyph unicode="&#xb0;" horiz-adv-x="673" d="M47 1155q0 121 85 206t206 85q119 0 203 -85t84 -206q0 -119 -84 -204t-205 -85t-205 84t-84 205zM162 1155q0 -72 51 -122t125 -50t124 50t50 122q0 74 -51 125t-123 51t-124 -51t-52 -125z" />
<glyph unicode="&#xb1;" horiz-adv-x="1673" d="M236 -20h1202v-218h-1202v218zM236 512v238h483v432h237v-432h482v-238h-482v-436h-237v436h-483z" />
<glyph unicode="&#xb2;" horiz-adv-x="761" d="M98 565v70q219 215 240 239q133 156 133 289q0 154 -139 154t-199 -166v170q78 86 262 86q125 0 211 -64.5t86 -168.5q0 -119 -151 -256q-125 -100 -252 -199q35 -2 98 -2q98 0 234 10q8 8 8 29v12h53v-203q-82 2 -332 2q-39 2 -252 -2z" />
<glyph unicode="&#xb3;" horiz-adv-x="761" d="M78 608v154q31 -51 84 -90q59 -45 117 -45q172 0 172 172q0 74 -43 116.5t-109 42.5q-59 0 -92 -8v92q25 -2 49 -2q156 0 156 154q0 125 -127 125q-59 0 -115.5 -39t-73.5 -88v145q74 68 246 68q113 0 193 -55q88 -59 88 -152q0 -61 -50.5 -117.5t-115.5 -72.5 q80 -4 145.5 -62.5t65.5 -140.5q0 -123 -105 -197q-98 -66 -246 -65q-55 0 -133 20.5t-106 44.5z" />
<glyph unicode="&#xb4;" horiz-adv-x="653" d="M63 1104l293 323q66 74 138 74q102 0 102 -100q0 -55 -70 -96l-344 -201h-119z" />
<glyph unicode="&#xb6;" horiz-adv-x="1116" d="M72 1038q0 158 118.5 257.5t303.5 99.5h550v-107h-124v-1495h-140v1495h-182v-1495h-141v889q-170 12 -277.5 110.5t-107.5 245.5z" />
<glyph unicode="&#xb7;" horiz-adv-x="761" d="M199 668q0 76 53 129t129 53t129 -53t53 -129q0 -74 -54 -127.5t-128 -53.5q-76 0 -129 52.5t-53 128.5z" />
<glyph unicode="&#xb8;" horiz-adv-x="653" d="M8 -356l47 82q111 -61 201 -62q51 0 82 31q27 25 27 57q0 86 -105 86q-12 0 -65 -10l81 211h80l-51 -127q20 2 49 2q72 0 124 -39t52 -113q0 -88 -69.5 -138t-175.5 -50q-98 0 -166 20q-35 10 -111 50z" />
<glyph unicode="&#xb9;" horiz-adv-x="761" d="M139 1169v121q94 29 187 58q133 42 194 75q-12 -233 -12 -432q0 -168 6 -420h-203l6 146q4 113 5 276q0 195 -5 273q-59 -43 -178 -97z" />
<glyph unicode="&#xba;" horiz-adv-x="1017" d="M88 1047q0 180 141 270q111 70 281 69q174 0 283 -67q137 -88 137 -272q0 -182 -139 -271q-109 -68 -281 -67q-422 0 -422 338zM94 459v119h830v-119h-830zM348 1049q0 -264 162 -265q160 0 160 254q0 272 -162 273q-160 0 -160 -262z" />
<glyph unicode="&#xbb;" horiz-adv-x="1085" d="M80 111l205 397l-205 395l45 82l446 -477l-446 -477zM539 113l202 395l-202 395l41 82l448 -477l-448 -477z" />
<glyph unicode="&#xbc;" horiz-adv-x="1775" d="M139 1169v121q94 29 187 58q133 42 194 75q-12 -233 -12 -432q0 -168 6 -420h-203l6 146q4 113 5 276q0 195 -5 273q-59 -43 -178 -97zM356 -57l836 1489h129l-832 -1489h-133zM981 225v54q186 246 387 561h186q-6 -113 -6 -375q0 -150 -2 -137q10 -2 29 -2q79 -1 108 22 l-16 -119q-43 0 -121 2q2 12 2 -108q0 -68 4 -121h-204q8 125 8 121v104q-115 2 -172 2q-96 0 -203 -4zM1124 328h234v354q-94 -139 -234 -354z" />
<glyph unicode="&#xbd;" horiz-adv-x="1775" d="M139 1169v121q94 29 187 58q133 42 194 75q-12 -233 -12 -432q0 -168 6 -420h-203l6 146q4 113 5 276q0 195 -5 273q-59 -43 -178 -97zM356 -57l836 1489h129l-832 -1489h-133zM1096 0v70q219 215 239 237q133 158 133 291q0 154 -139 154t-199 -166v168q78 88 263 88 q123 0 210 -65t87 -169q0 -121 -152 -258q-125 -98 -252 -198h96q100 0 236 10q8 8 8 28v13h53v-203q-82 2 -331 2q-39 0 -252 -2z" />
<glyph unicode="&#xbe;" horiz-adv-x="1777" d="M78 608v154q31 -51 84 -90q59 -45 117 -45q172 0 172 172q0 74 -43 116.5t-109 42.5q-59 0 -92 -8v92q25 -2 49 -2q156 0 156 154q0 125 -127 125q-59 0 -115.5 -39t-73.5 -88v145q74 68 246 68q113 0 193 -55q88 -59 88 -152q0 -61 -50.5 -117.5t-115.5 -72.5 q80 -4 145.5 -62.5t65.5 -140.5q0 -123 -105 -197q-98 -66 -246 -65q-55 0 -133 20.5t-106 44.5zM403 -57l836 1489h129l-831 -1489h-134zM981 225v54q186 246 387 561h186q-6 -113 -6 -375q0 -150 -2 -137q10 -2 29 -2q79 -1 108 22l-16 -119q-43 0 -121 2q2 12 2 -108 q0 -68 4 -121h-204q8 125 8 121v104q-115 2 -172 2q-96 0 -203 -4zM1124 328h234v354q-94 -139 -234 -354z" />
<glyph unicode="&#xbf;" horiz-adv-x="911" d="M123 274q0 129 164 261l94 75q57 41 115 82q47 37 47 76q0 100 -56 186l105 13q90 -78 108 -97q70 -74 70 -139q0 -66 -37 -104q-51 -45 -102 -88l-117 -103q-96 -84 -96 -196q0 -72 45 -115t117 -43q94 0 159 59q20 41 21 127h63q0 -39 -2 -106v-107q-139 -84 -313 -84 q-152 0 -264 80q-121 86 -121 223zM391 1262q0 66 49 113.5t115 47.5q70 0 118 -46.5t48 -114.5q0 -70 -48 -117t-118 -47q-68 0 -116 47t-48 117z" />
<glyph unicode="&#xc0;" horiz-adv-x="1402" d="M20 0q113 221 285 651q141 356 283 713h188q125 -322 250 -643q147 -377 262 -637q23 -14 64 -14h18v-70h-379q-51 158 -170 477q-76 4 -229 4q-127 0 -201 -4q-55 -127 -158 -403q12 -2 35 -2h21v-72h-269zM322 1765q0 39 32.5 69t89.5 30q76 0 138 -74l272 -324h-119 l-344 203q-70 39 -69 96zM428 596q188 -4 162 -4q29 0 87 2t103 2q-55 166 -174 479z" />
<glyph unicode="&#xc1;" horiz-adv-x="1300" d="M20 0q113 221 285 651q141 356 283 713h188q125 -322 250 -643q147 -377 262 -637q23 -14 64 -14h18v-70h-379q-51 158 -170 477q-76 4 -229 4q-127 0 -201 -4q-55 -127 -158 -403q12 -2 35 -2h21v-72h-269zM428 596q188 -4 162 -4q29 0 87 2t103 2q-55 166 -174 479z M459 1466l293 324q66 74 137 74q102 -1 102 -99q0 -57 -69 -96l-344 -203h-119z" />
<glyph unicode="&#xc2;" horiz-adv-x="1402" d="M20 0q113 221 285 651q141 356 283 713h188q125 -322 250 -643q147 -377 262 -637q23 -14 64 -14h18v-70h-379q-51 158 -170 477q-76 4 -229 4q-127 0 -201 -4q-55 -127 -158 -403q12 -2 35 -2h21v-72h-269zM362 1466l228 336q53 41 92 41q59 0 92 -41l225 -336h-100 l-217 197l-219 -197h-101zM428 596q188 -4 162 -4q29 0 87 2t103 2q-55 166 -174 479z" />
<glyph unicode="&#xc3;" horiz-adv-x="1402" d="M20 0q113 221 285 651q141 356 283 713h188q125 -322 250 -643q147 -377 262 -637q23 -14 64 -14h18v-70h-379q-51 158 -170 477q-76 4 -229 4q-127 0 -201 -4q-55 -127 -158 -403q12 -2 35 -2h21v-72h-269zM356 1458q33 123 62 168q53 84 151 84q43 0 145.5 -43 t133.5 -43q47 0 78 102h88q-23 -115 -56 -165q-51 -82 -149 -82q-45 0 -147.5 42t-137.5 42q-49 0 -80 -107zM428 596q188 -4 162 -4q29 0 87 2t103 2q-55 166 -174 479z" />
<glyph unicode="&#xc4;" horiz-adv-x="1402" d="M20 0q113 221 285 651q141 356 283 713h188q125 -322 250 -643q147 -377 262 -637q23 -14 64 -14h18v-70h-379q-51 158 -170 477q-76 4 -229 4q-127 0 -201 -4q-55 -127 -158 -403q12 -2 35 -2h21v-72h-269zM334 1614q0 55 40 97t97 42t99 -42t42 -97q0 -59 -41 -100 t-100 -41t-98 40.5t-39 100.5zM428 596q188 -4 162 -4q29 0 87 2t103 2q-55 166 -174 479zM739 1614q0 55 43 97t99 42q57 0 97 -42t40 -97q0 -59 -39 -100t-98 -41q-57 0 -99.5 40.5t-42.5 100.5z" />
<glyph unicode="&#xc5;" horiz-adv-x="1402" d="M20 0q113 221 285 651q141 356 283 713h188q125 -322 250 -643q147 -377 262 -637q23 -14 64 -14h18v-70h-379q-51 158 -170 477q-76 4 -229 4q-127 0 -201 -4q-55 -127 -158 -403q12 -2 35 -2h21v-72h-269zM428 596q188 -4 162 -4q29 0 87 2t103 2q-55 166 -174 479z M473 1645q0 90 59.5 148t149.5 58q92 0 151.5 -56t59.5 -146q0 -94 -61.5 -152.5t-153.5 -58.5q-88 0 -146.5 60.5t-58.5 146.5zM575 1642q0 -133 105 -133q106 1 106 142q0 131 -104 131q-106 0 -107 -140z" />
<glyph unicode="&#xc6;" horiz-adv-x="1742" d="M-20 -2q434 858 659 1395l985 2v-209h-72q0 63 -22 78q-203 16 -420 16h-27q-4 -225 -4 -424v-68l496 11v-133q-285 12 -498 12v-72q0 -119 4 -491h31q199 0 451 18q18 14 18 76h74q0 -39 -2 -107v-104q-127 4 -359 4q-383 0 -532 -4q14 215 16 510q-84 4 -151 4 q-150 0 -228 -4q-4 -8 -100 -213q-61 -129 -90 -221q12 -2 37 -2h18v-74h-284zM451 625q195 -4 180 -4q29 0 64.5 2t82.5 2v96q0 305 -8 528l-2 51h-33q-72 -182 -284 -675z" />
<glyph unicode="&#xc7;" horiz-adv-x="1376" d="M96 694q0 319 209 522t543 203q274 0 440 -104l2 -250h-71v20q0 25 -21 70q-109 162 -305 162q-227 0 -344 -172q-111 -160 -111 -453q0 -289 125 -444.5t352 -155.5q214 0 396 203l-2 -162q-188 -160 -469 -160q-59 0 -115 7l-27 -68q20 2 50 2q72 0 124 -39t52 -113 q0 -88 -70 -138t-176 -50q-98 0 -166 20q-35 10 -111 50l48 82q111 -61 200 -62q51 0 82 31q27 25 27 57q0 86 -105 86q-12 0 -65 -10l61 162q-256 49 -401 223q-152 184 -152 481z" />
<glyph unicode="&#xc8;" horiz-adv-x="1169" d="M113 1282v70h909v-201h-70q0 61 -20 76q-199 14 -408 14h-26q-4 -217 -4 -410v-65l481 12v-137q-276 12 -483 12v-69q0 -111 4 -473h28q193 0 439 18q18 14 18 72h70v-100.5v-100.5h-865q16 256 17 690q0 547 -13.5 569.5t-56.5 22.5h-20zM236 1765q0 39 32.5 69t87.5 30 q78 0 140 -74l272 -324h-119l-344 203q-70 39 -69 96z" />
<glyph unicode="&#xc9;" horiz-adv-x="1169" d="M113 1282v70h909v-201h-70q0 61 -20 76q-199 14 -408 14h-26q-4 -217 -4 -410v-65l481 12v-137q-276 12 -483 12v-69q0 -111 4 -473h28q193 0 439 18q18 14 18 72h70v-100.5v-100.5h-865q16 256 17 690q0 547 -13.5 569.5t-56.5 22.5h-20zM352 1425l293 324q66 74 137 74 q103 -1 103 -99q0 -57 -70 -96l-344 -203h-119z" />
<glyph unicode="&#xca;" horiz-adv-x="1169" d="M113 1282v70h909v-201h-70q0 61 -20 76q-199 14 -408 14h-26q-4 -217 -4 -410v-65l481 12v-137q-276 12 -483 12v-69q0 -111 4 -473h28q193 0 439 18q18 14 18 72h70v-100.5v-100.5h-865q16 256 17 690q0 547 -13.5 569.5t-56.5 22.5h-20zM254 1466l227 336q51 41 92 41 q59 0 93 -41l225 -336h-100l-220 197l-217 -197h-100z" />
<glyph unicode="&#xcb;" horiz-adv-x="1169" d="M113 1282v70h909v-201h-70q0 61 -20 76q-199 14 -408 14h-26q-4 -217 -4 -410v-65l481 12v-137q-276 12 -483 12v-69q0 -111 4 -473h28q193 0 439 18q18 14 18 72h70v-100.5v-100.5h-865q16 256 17 690q0 547 -13.5 569.5t-56.5 22.5h-20zM250 1593q0 55 41 97.5t98 42.5 q55 0 97 -42.5t42 -97.5q0 -59 -41 -100t-98 -41q-59 0 -99 41t-40 100zM657 1593q0 55 42 97.5t100 42.5q55 0 96 -42.5t41 -97.5q0 -59 -40 -100t-97 -41q-59 0 -100.5 41t-41.5 100z" />
<glyph unicode="&#xcc;" horiz-adv-x="706" d="M59 1765q0 39 33 69t90 30q76 0 137 -74l273 -324h-119l-344 203q-70 39 -70 96zM109 1284v68h393q-14 -276 -15 -629q0 -506 5 -619q10 -33 69 -32h12v-70h-393q18 283 19 727q0 350 -9 524q-8 31 -63 31h-18z" />
<glyph unicode="&#xcd;" horiz-adv-x="706" d="M88 1466l291 324q68 74 139 74q100 -1 100 -99q0 -57 -67 -96l-346 -203h-117zM109 1284v68h393q-14 -276 -15 -629q0 -506 5 -619q10 -33 69 -32h12v-70h-393q18 283 19 727q0 350 -9 524q-8 31 -63 31h-18z" />
<glyph unicode="&#xce;" horiz-adv-x="706" d="M53 1466l217 336q49 41 88 41q55 0 86 -41l215 -336h-94l-209 197l-209 -197h-94zM109 1284v68h393q-14 -276 -15 -629q0 -506 5 -619q10 -33 69 -32h12v-70h-393q18 283 19 727q0 350 -9 524q-8 31 -63 31h-18z" />
<glyph unicode="&#xcf;" horiz-adv-x="706" d="M12 1593q0 55 41 97.5t97 42.5q57 0 99 -42.5t42 -97.5q0 -59 -41 -100t-100 -41q-57 0 -97.5 41t-40.5 100zM109 1284v68h393q-14 -276 -15 -629q0 -506 5 -619q10 -33 69 -32h12v-70h-393q18 283 19 727q0 350 -9 524q-8 31 -63 31h-18zM420 1593q0 55 42 97.5t97 42.5 q57 0 98 -42.5t41 -97.5q0 -59 -40 -100t-99 -41q-57 0 -98 41t-41 100z" />
<glyph unicode="&#xd0;" horiz-adv-x="1607" d="M-16 670v123h200q0 309 -4 501q-14 27 -61 27h-21v74h602q354 0 560 -152q229 -170 229 -512t-229.5 -539.5t-624.5 -197.5q-45 0 -137 4t-142 4q4 0 -180 -4q8 233 8 672h-200zM483 670q0 -287 9 -557q113 -8 126 -9q305 0 431 158q108 140 108 447q0 311 -107.5 446 t-361.5 135q-68 0 -199 -8q-6 -252 -6 -489h301v-123h-301z" />
<glyph unicode="&#xd1;" horiz-adv-x="1644" d="M106 0v70h19q45 0 59 24q20 506 21 1059v211h186q348 -403 416 -481q219 -246 434 -463v135q0 676 -14 705q-14 23 -58 22h-20v70h321v-70h-18q-45 0 -59 -25q-12 -420 -13 -827q0 -143 4 -436h-176q-260 326 -858 962q-4 -127 -4 -204q0 -233 12 -658q14 -25 58 -24h20 v-70h-330zM502 1458q33 123 61 168q53 84 152 84q43 0 145.5 -43t132.5 -43q47 0 76 102h90q-23 -115 -55 -165q-51 -82 -150 -82q-45 0 -147 42t-137 42q-49 0 -80 -107z" />
<glyph unicode="&#xd2;" horiz-adv-x="1769" d="M98 668q0 317 215 511.5t549 194.5q340 0 551 -191.5t211 -510.5q0 -315 -215 -508t-547 -193q-342 0 -553 188.5t-211 508.5zM424 668q0 -590 438 -590q217 0 330 164q106 156 106 432q0 598 -436 598q-213 0 -325.5 -161t-112.5 -443zM481 1765q0 39 33 69t90 30 q76 0 137 -74l273 -324h-119l-344 203q-70 39 -70 96z" />
<glyph unicode="&#xd3;" horiz-adv-x="1769" d="M98 668q0 317 215 511.5t549 194.5q340 0 551 -191.5t211 -510.5q0 -315 -215 -508t-547 -193q-342 0 -553 188.5t-211 508.5zM424 668q0 -590 438 -590q217 0 330 164q106 156 106 432q0 598 -436 598q-213 0 -325.5 -161t-112.5 -443zM657 1468l291 324q68 74 139 74 q101 -1 101 -101q0 -55 -68 -96l-346 -201h-117z" />
<glyph unicode="&#xd4;" horiz-adv-x="1769" d="M98 668q0 317 215 511.5t549 194.5q340 0 551 -191.5t211 -510.5q0 -315 -215 -508t-547 -193q-342 0 -553 188.5t-211 508.5zM424 668q0 -590 438 -590q217 0 330 164q106 156 106 432q0 598 -436 598q-213 0 -325.5 -161t-112.5 -443zM543 1466l227 336q53 41 92 41 q59 0 92 -41l226 -336h-101l-217 197l-219 -197h-100z" />
<glyph unicode="&#xd5;" horiz-adv-x="1769" d="M98 668q0 317 215 511.5t549 194.5q340 0 551 -191.5t211 -510.5q0 -315 -215 -508t-547 -193q-342 0 -553 188.5t-211 508.5zM424 668q0 -590 438 -590q217 0 330 164q106 156 106 432q0 598 -436 598q-213 0 -325.5 -161t-112.5 -443zM532 1458q33 123 62 168 q53 84 154 84q43 0 144 -43t132 -43q47 0 78 102h90q-25 -115 -57 -165q-51 -82 -150 -82q-45 0 -147.5 42t-137.5 42q-49 0 -79 -107z" />
<glyph unicode="&#xd6;" horiz-adv-x="1769" d="M98 668q0 317 215 511.5t549 194.5q340 0 551 -191.5t211 -510.5q0 -315 -215 -508t-547 -193q-342 0 -553 188.5t-211 508.5zM424 668q0 -590 438 -590q217 0 330 164q106 156 106 432q0 598 -436 598q-213 0 -325.5 -161t-112.5 -443zM520 1593q0 55 41 97.5t96 42.5 q57 0 99.5 -42.5t42.5 -97.5q0 -59 -41 -100t-101 -41q-57 0 -97 41t-40 100zM926 1593q0 55 43 97.5t98 42.5q57 0 98 -42.5t41 -97.5q0 -59 -40 -100t-99 -41q-57 0 -99 41t-42 100z" />
<glyph unicode="&#xd7;" horiz-adv-x="1724" d="M287 147l481 482l-481 481l98 98l481 -481l480 481l100 -98l-481 -481l481 -482l-100 -98l-480 481l-481 -481z" />
<glyph unicode="&#xd8;" horiz-adv-x="1769" d="M98 688q0 328 221.5 528.5t565.5 200.5q178 0 327 -53l80 129h131l-106 -176q354 -193 354 -625q0 -326 -221 -523.5t-565 -197.5q-197 0 -357 64l-88 -146h-133l119 195q-328 193 -328 604zM432 688q0 -283 98 -434l607 989q-100 70 -252 70q-217 0 -335 -167t-118 -458 zM610 162q104 -84 275 -84q225 0 342 170q110 161 110 446q0 311 -116 467z" />
<glyph unicode="&#xd9;" horiz-adv-x="1611" d="M123 1280v72h381q-8 -561 -8 -668q0 -291 65 -416q80 -147 287 -147q211 0 295 143q59 104 69 344q4 88 5 342q0 299 -11 312q-14 20 -57 20h-19v70h324v-74h-20q-55 0 -62 -33q-6 -174 -6 -313v-115q2 -78 2 -119q0 -344 -88 -499q-125 -225 -473 -226 q-293 0 -450.5 151.5t-157.5 446.5q0 53 4 344q2 207 -2 342q-12 23 -58 23h-20zM442 1765q0 39 34 69t89 30q76 0 140 -74l270 -324h-119l-344 203q-70 39 -70 96z" />
<glyph unicode="&#xda;" horiz-adv-x="1611" d="M123 1280v72h381q-8 -561 -8 -668q0 -291 65 -416q80 -147 287 -147q211 0 295 143q59 104 69 344q4 88 5 342q0 299 -11 312q-14 20 -57 20h-19v70h324v-74h-20q-55 0 -62 -33q-6 -174 -6 -313v-115q2 -78 2 -119q0 -344 -88 -499q-125 -225 -473 -226 q-293 0 -450.5 151.5t-157.5 446.5q0 53 4 344q2 207 -2 342q-12 23 -58 23h-20zM592 1466l291 324q68 74 139 74q100 -1 100 -99q0 -57 -67 -96l-346 -203h-117z" />
<glyph unicode="&#xdb;" horiz-adv-x="1611" d="M123 1280v72h381q-8 -561 -8 -668q0 -291 65 -416q80 -147 287 -147q211 0 295 143q59 104 69 344q4 88 5 342q0 299 -11 312q-14 20 -57 20h-19v70h324v-74h-20q-55 0 -62 -33q-6 -174 -6 -313v-115q2 -78 2 -119q0 -344 -88 -499q-125 -225 -473 -226 q-293 0 -450.5 151.5t-157.5 446.5q0 53 4 344q2 207 -2 342q-12 23 -58 23h-20zM494 1466l229 336q51 41 92 41q57 0 90 -41l228 -336h-101l-219 197l-219 -197h-100z" />
<glyph unicode="&#xdc;" horiz-adv-x="1611" d="M123 1280v72h381q-8 -561 -8 -668q0 -291 65 -416q80 -147 287 -147q211 0 295 143q59 104 69 344q4 88 5 342q0 299 -11 312q-14 20 -57 20h-19v70h324v-74h-20q-55 0 -62 -33q-6 -174 -6 -313v-115q2 -78 2 -119q0 -344 -88 -499q-125 -225 -473 -226 q-293 0 -450.5 151.5t-157.5 446.5q0 53 4 344q2 207 -2 342q-12 23 -58 23h-20zM489 1593q0 55 41 97.5t97 42.5q57 0 99 -42.5t42 -97.5q0 -59 -41 -100t-100 -41q-57 0 -97.5 41t-40.5 100zM897 1593q0 55 42 97.5t97 42.5q57 0 98.5 -42.5t41.5 -97.5q0 -59 -40 -100 t-100 -41q-57 0 -98 41t-41 100z" />
<glyph unicode="&#xdd;" horiz-adv-x="1269" d="M-4 1323v72h373q178 -401 368 -688q76 125 301 608q-14 6 -41 6h-20v74h303q-203 -326 -471 -815q-4 -133 -4 -185q0 -137 8 -299q14 -25 59 -24h21v-72h-399q12 205 12 303q0 119 -10 264q-111 195 -447 752q-12 4 -33 4h-20zM428 1460l293 322q66 76 137 76 q103 -1 103 -101q0 -55 -70 -96l-344 -201h-119z" />
<glyph unicode="&#xde;" horiz-adv-x="1308" d="M90 1321v74h402q0 -43 -5 -187q141 10 218 11q233 0 372 -121q131 -117 131 -297q0 -203 -147.5 -327t-405.5 -124q-92 0 -172 12v-43q0 -76 9 -221q12 -27 59 -26h20v-72l-399 -2q12 352 12 512q0 545 -10 778q-8 33 -65 33h-19zM479 463q90 -10 111 -10q295 -1 295 329 q0 156 -49 230q-68 100 -242 100q-25 0 -105 -6q-10 -205 -10 -428v-215z" />
<glyph unicode="&#xdf;" horiz-adv-x="1368" d="M111 0v61h20q45 0 59 25q4 94 5 346l-2 629q0 211 145 342q139 125 342 125q182 0 291 -58q121 -63 121 -184q0 -82 -56 -151q-51 -51 -104 -103q-55 -57 -55 -108q0 -80 110 -160q203 -150 205 -152q111 -104 111 -241q0 -182 -134 -289q-125 -100 -317 -100 q-57 0 -138 18t-104 39v213h74v-21q0 -66 48 -110.5t118 -44.5q88 0 137 65q45 59 45 146q0 100 -80 182q-55 55 -184 131t-129 195q0 86 116.5 224t116.5 243q0 82 -46 130t-121 48q-152 0 -193 -154q-33 -119 -33 -534v-72q0 -449 17 -680h-385z" />
<glyph unicode="&#xe0;" horiz-adv-x="1099" d="M37 244q0 180 174 260q57 25 321 82q82 16 111 39v30q0 137 -35 197q-41 70 -145 70q-94 0 -177 -69t-106 -157h-69v193q70 59 192 92q106 31 211 31q209 0 303 -74q111 -86 111 -301v-428q0 -82 6 -100q12 -37 61 -37h21v-72h-350l-21 104q-135 -123 -315 -122 q-139 0 -216 68.5t-77 193.5zM184 1401q0 41 33 70.5t90 29.5q76 0 137 -74l273 -323h-119l-344 201q-70 41 -70 96zM340 250q0 -137 123 -137q72 0 124 56.5t52 158.5v192q-188 -33 -252 -102q-47 -53 -47 -168z" />
<glyph unicode="&#xe1;" horiz-adv-x="1099" d="M37 244q0 180 174 260q57 25 321 82q82 16 111 39v30q0 137 -35 197q-41 70 -145 70q-94 0 -177 -69t-106 -157h-69v193q70 59 192 92q106 31 211 31q209 0 303 -74q111 -86 111 -301v-428q0 -82 6 -100q12 -37 61 -37h21v-72h-350l-21 104q-135 -123 -315 -122 q-139 0 -216 68.5t-77 193.5zM301 1104l293 323q66 74 137 74q103 0 103 -100q0 -55 -70 -96l-344 -201h-119zM340 250q0 -137 123 -137q72 0 124 56.5t52 158.5v192q-188 -33 -252 -102q-47 -53 -47 -168z" />
<glyph unicode="&#xe2;" horiz-adv-x="1099" d="M37 244q0 180 174 260q57 25 321 82q82 16 111 39v30q0 137 -35 197q-41 70 -145 70q-94 0 -177 -69t-106 -157h-69v193q70 59 192 92q106 31 211 31q209 0 303 -74q111 -86 111 -301v-428q0 -82 6 -100q12 -37 61 -37h21v-72h-350l-21 104q-135 -123 -315 -122 q-139 0 -216 68.5t-77 193.5zM205 1104l227 336q53 41 92 41q59 0 92 -41l226 -336h-101l-217 194l-219 -194h-100zM340 250q0 -137 123 -137q72 0 124 56.5t52 158.5v192q-188 -33 -252 -102q-47 -53 -47 -168z" />
<glyph unicode="&#xe3;" horiz-adv-x="1099" d="M37 244q0 180 174 260q57 25 321 82q82 16 111 39v30q0 137 -35 197q-41 70 -145 70q-94 0 -177 -69t-106 -157h-69v193q70 59 192 92q106 31 211 31q209 0 303 -74q111 -86 111 -301v-428q0 -82 6 -100q12 -37 61 -37h21v-72h-350l-21 104q-135 -123 -315 -122 q-139 0 -216 68.5t-77 193.5zM205 1155q33 125 61 170q53 84 152 84q43 0 145.5 -43t132.5 -43q47 0 78 100l88 2q-23 -115 -55 -168q-51 -80 -150 -79q-45 0 -147 42t-137 42q-49 0 -80 -109zM340 250q0 -137 123 -137q72 0 124 56.5t52 158.5v192q-188 -33 -252 -102 q-47 -53 -47 -168z" />
<glyph unicode="&#xe4;" horiz-adv-x="1099" d="M37 244q0 180 174 260q57 25 321 82q82 16 111 39v30q0 137 -35 197q-41 70 -145 70q-94 0 -177 -69t-106 -157h-69v193q70 59 192 92q106 31 211 31q209 0 303 -74q111 -86 111 -301v-428q0 -82 6 -100q12 -37 61 -37h21v-72h-350l-21 104q-135 -123 -315 -122 q-139 0 -216 68.5t-77 193.5zM180 1290q0 57 40 99.5t97 42.5q55 0 98.5 -42.5t43.5 -99.5q0 -59 -41 -99t-101 -40q-59 0 -98 40t-39 99zM340 250q0 -137 123 -137q72 0 124 56.5t52 158.5v192q-188 -33 -252 -102q-47 -53 -47 -168zM586 1290q0 57 43 99.5t98 42.5 q57 0 97 -42.5t40 -99.5q0 -59 -39 -99t-98 -40q-57 0 -99 40t-42 99z" />
<glyph unicode="&#xe5;" horiz-adv-x="1099" d="M37 244q0 180 174 260q57 25 321 82q82 16 111 39v30q0 137 -35 197q-41 70 -145 70q-94 0 -177 -69t-106 -157h-69v193q70 59 192 92q106 31 211 31q209 0 303 -74q111 -86 111 -301v-428q0 -82 6 -100q12 -37 61 -37h21v-72h-350l-21 104q-135 -123 -315 -122 q-139 0 -216 68.5t-77 193.5zM301 1337q0 90 59.5 148.5t149.5 58.5q92 0 151.5 -56.5t59.5 -146.5q0 -94 -61.5 -152.5t-153.5 -58.5q-88 0 -146.5 60.5t-58.5 146.5zM340 250q0 -137 123 -137q72 0 124 56.5t52 158.5v192q-188 -33 -252 -102q-47 -53 -47 -168zM403 1335 q0 -133 105 -133q106 0 106 141q0 131 -104 132q-106 0 -107 -140z" />
<glyph unicode="&#xe6;" horiz-adv-x="1787" d="M82 246q0 127 90 200q70 55 205 89q111 20 221 40q82 18 111 39v33q0 276 -201 277q-96 0 -184 -70t-109 -158h-70v195q70 57 197 92q111 29 217 29q254 0 328 -131q129 131 342 131q199 0 326.5 -123t127.5 -318q0 -10 -2 -28v-27h-661v-33q0 -403 270 -403 q104 0 187.5 48t83.5 110v20h75v-178q-139 -102 -401 -103q-317 0 -447 203q-109 -199 -342 -198q-176 0 -270 68.5t-94 195.5zM387 256q0 -164 154 -164q57 0 111.5 67.5t54.5 157.5v193q-195 -35 -263 -94q-57 -51 -57 -160zM707 502zM1024 621h358q0 154 -30 219 q-35 82 -131 82q-94 0 -145.5 -84t-51.5 -217z" />
<glyph unicode="&#xe7;" horiz-adv-x="1060" d="M84 492q0 227 155.5 372.5t389.5 145.5q225 0 350 -80v-209h-76v22q0 63 -53 115q-63 57 -164 57q-291 0 -291 -421q0 -195 77 -307.5t220 -112.5q90 0 159 58t69 116v18h71v-190q-129 -100 -383 -101q-25 0 -51 2l-27 -65q20 2 50 2q72 0 124 -39t52 -113 q0 -88 -70 -138t-176 -50q-98 0 -166 20q-35 10 -111 50l48 82q111 -61 200 -62q51 0 82 31q27 25 27 57q0 86 -105 86q-12 0 -65 -10l61 162q-174 39 -282 172q-115 139 -115 330z" />
<glyph unicode="&#xe8;" horiz-adv-x="1155" d="M84 492q0 229 145.5 374.5t374.5 145.5q209 0 333 -122t124 -315v-30q-2 -18 -2 -29h-662v-31q0 -399 285 -399q102 0 183 50t81 112v20h76v-188q-141 -102 -416 -103q-221 0 -371.5 146.5t-150.5 368.5zM246 1401q0 41 32.5 70.5t88.5 29.5q78 0 139 -74l270 -323h-117 l-346 201q-68 41 -67 96zM401 635h365q0 145 -23 201q-37 84 -147 84q-180 0 -195 -285z" />
<glyph unicode="&#xe9;" horiz-adv-x="1155" d="M84 492q0 229 145.5 374.5t374.5 145.5q209 0 333 -122t124 -315v-30q-2 -18 -2 -29h-662v-31q0 -399 285 -399q102 0 183 50t81 112v20h76v-188q-141 -102 -416 -103q-221 0 -371.5 146.5t-150.5 368.5zM367 1104l292 323q66 74 138 74q102 0 102 -100q0 -55 -70 -96 l-344 -201h-118zM401 635h365q0 145 -23 201q-37 84 -147 84q-180 0 -195 -285z" />
<glyph unicode="&#xea;" horiz-adv-x="1155" d="M84 492q0 229 145.5 374.5t374.5 145.5q209 0 333 -122t124 -315v-30q-2 -18 -2 -29h-662v-31q0 -399 285 -399q102 0 183 50t81 112v20h76v-188q-141 -102 -416 -103q-221 0 -371.5 146.5t-150.5 368.5zM283 1104l229 336q51 41 92 41q59 0 90 -41l228 -336h-101 l-219 194l-219 -194h-100zM401 635h365q0 145 -23 201q-37 84 -147 84q-180 0 -195 -285z" />
<glyph unicode="&#xeb;" horiz-adv-x="1155" d="M84 492q0 229 145.5 374.5t374.5 145.5q209 0 333 -122t124 -315v-30q-2 -18 -2 -29h-662v-31q0 -399 285 -399q102 0 183 50t81 112v20h76v-188q-141 -102 -416 -103q-221 0 -371.5 146.5t-150.5 368.5zM268 1290q0 57 41 99.5t99 42.5q55 0 97 -42.5t42 -99.5 q0 -59 -41 -99t-98 -40q-59 0 -99.5 40t-40.5 99zM401 635h365q0 145 -23 201q-37 84 -147 84q-180 0 -195 -285zM676 1290q0 57 42 99.5t99 42.5q55 0 96 -42.5t41 -99.5q0 -59 -40 -99t-97 -40q-59 0 -100 40t-41 99z" />
<glyph unicode="&#xec;" horiz-adv-x="653" d="M25 1401q0 41 30.5 70.5t83.5 29.5q70 0 127 -76l252 -327h-108l-320 205q-66 41 -65 98zM102 934v72h381q-10 -266 -10 -486q0 -201 6 -416q10 -31 66 -30h18v-74h-379q12 291 13 520q0 358 -12.5 386t-61.5 28h-21z" />
<glyph unicode="&#xed;" horiz-adv-x="653" d="M84 1094l270 331q61 76 129 76q95 0 95 -102q0 -57 -66 -99l-319 -206h-109zM102 934v72h381q-10 -266 -10 -486q0 -201 6 -416q10 -31 66 -30h18v-74h-379q12 291 13 520q0 358 -12.5 386t-61.5 28h-21z" />
<glyph unicode="&#xee;" horiz-adv-x="653" d="M49 1100l195 340q45 41 78 41q51 0 77 -41l193 -340h-84l-186 198l-187 -198h-86zM102 934v72h381q-10 -266 -10 -486q0 -201 6 -416q10 -31 66 -30h18v-74h-379q12 291 13 520q0 358 -12.5 386t-61.5 28h-21z" />
<glyph unicode="&#xef;" horiz-adv-x="653" d="M-6 1278q0 51 40 90t93 39q55 0 96 -39t41 -90q0 -55 -40 -93t-97 -38q-55 0 -94 38t-39 93zM102 934v72h381q-10 -266 -10 -486q0 -201 6 -416q10 -31 66 -30h18v-74h-379q12 291 13 520q0 358 -12.5 386t-61.5 28h-21zM387 1278q0 51 41 90t96 39q53 0 93 -39t40 -90 q0 -55 -38.5 -93t-94.5 -38q-57 0 -97 38t-40 93z" />
<glyph unicode="&#xf0;" horiz-adv-x="1243" d="M84 475q0 225 160 369q152 139 377 139q88 0 182 -59q-43 197 -193 323q-72 -53 -200 -166l-72 93q63 39 197 141q-59 59 -238 135l199 72q57 -35 159 -117q31 31 129 127l80 -86q-35 -23 -133 -103q201 -195 283 -323q143 -227 143 -512q0 -231 -156.5 -379.5 t-379.5 -148.5q-227 0 -377 131q-160 139 -160 364zM401 477q0 -397 220 -397q221 0 221 397q0 231 -58 326q-51 80 -166 80q-113 0 -165 -96.5t-52 -309.5z" />
<glyph unicode="&#xf1;" horiz-adv-x="1337" d="M100 913v72h361q16 -123 16 -164q111 195 318 195q170 0 267 -97.5t97 -277.5q0 -49 -2 -166t-2 -164q0 -35 3 -101.5t3 -100.5q0 -47 68 -48h20v-61h-387q10 158 10 590q0 154 -30 219q-35 76 -123 76q-115 0 -182 -119q-57 -104 -58 -246v-151q0 -106 4 -258 q8 -47 68 -48h18v-63h-387q12 168 13 344v311q0 92 -7 211q-4 47 -67 47h-21zM367 1155q33 125 61 170q53 84 152 84q43 0 145 -43t133 -43q47 0 76 100l90 2q-23 -115 -55 -168q-51 -80 -150 -79q-45 0 -147.5 42t-136.5 42q-49 0 -80 -109z" />
<glyph unicode="&#xf2;" horiz-adv-x="1251" d="M84 492q0 248 168 389q152 129 377 129q233 0 377 -125q161 -139 161 -393q0 -268 -166 -404q-141 -113 -376 -113q-231 0 -377 123q-164 137 -164 394zM262 1401q0 41 33 70.5t90 29.5q76 0 137 -74l273 -323h-119l-344 201q-70 41 -70 96zM395 494q0 -219 47 -318 q53 -109 183 -108q129 0 182 106q49 94 49 305q0 225 -47 324q-53 113 -182 112q-127 0 -183 -108q-49 -98 -49 -313z" />
<glyph unicode="&#xf3;" horiz-adv-x="1251" d="M84 492q0 248 168 389q152 129 377 129q233 0 377 -125q161 -139 161 -393q0 -268 -166 -404q-141 -113 -376 -113q-231 0 -377 123q-164 137 -164 394zM395 494q0 -219 47 -318q53 -109 183 -108q129 0 182 106q49 94 49 305q0 225 -47 324q-53 113 -182 112 q-127 0 -183 -108q-49 -98 -49 -313zM412 1104l293 323q66 74 137 74q102 0 102 -100q0 -55 -70 -96l-344 -201h-118z" />
<glyph unicode="&#xf4;" horiz-adv-x="1251" d="M84 492q0 248 168 389q152 129 377 129q233 0 377 -125q161 -139 161 -393q0 -268 -166 -404q-141 -113 -376 -113q-231 0 -377 123q-164 137 -164 394zM305 1104l227 336q53 41 93 41q59 0 92 -41l225 -336h-100l-217 194l-219 -194h-101zM395 494q0 -219 47 -318 q53 -109 183 -108q129 0 182 106q49 94 49 305q0 225 -47 324q-53 113 -182 112q-127 0 -183 -108q-49 -98 -49 -313z" />
<glyph unicode="&#xf5;" horiz-adv-x="1251" d="M84 492q0 248 168 389q152 129 377 129q233 0 377 -125q161 -139 161 -393q0 -268 -166 -404q-141 -113 -376 -113q-231 0 -377 123q-164 137 -164 394zM291 1155q33 125 61 170q53 84 152 84q43 0 145.5 -43t132.5 -43q47 0 78 100l88 2q-23 -115 -55 -168 q-51 -80 -150 -79q-45 0 -147 42t-137 42q-49 0 -80 -109zM395 494q0 -219 47 -318q53 -109 183 -108q129 0 182 106q49 94 49 305q0 225 -47 324q-53 113 -182 112q-127 0 -183 -108q-49 -98 -49 -313z" />
<glyph unicode="&#xf6;" horiz-adv-x="1251" d="M84 492q0 248 168 389q152 129 377 129q233 0 377 -125q161 -139 161 -393q0 -268 -166 -404q-141 -113 -376 -113q-231 0 -377 123q-164 137 -164 394zM274 1290q0 57 40 99.5t98 42.5q57 0 99 -42.5t42 -99.5q0 -59 -41 -99t-100 -40t-98.5 40t-39.5 99zM395 494 q0 -219 47 -318q53 -109 183 -108q129 0 182 106q49 94 49 305q0 225 -47 324q-53 113 -182 112q-127 0 -183 -108q-49 -98 -49 -313zM680 1290q0 57 43 99.5t98 42.5q57 0 97 -42.5t40 -99.5q0 -59 -38.5 -99t-98.5 -40q-57 0 -99 40t-42 99z" />
<glyph unicode="&#xf7;" horiz-adv-x="1673" d="M236 492v237h1202v-237h-1202zM674 215q0 68 48 116t116 48t115.5 -48t47.5 -116q0 -66 -49 -114t-114 -48q-68 0 -116 47t-48 115zM674 1012q0 68 48 116t116 48t115.5 -48t47.5 -116q0 -66 -49 -114t-114 -48q-68 0 -116 47t-48 115z" />
<glyph unicode="&#xf8;" horiz-adv-x="1251" d="M84 492q0 248 168 389q152 129 377 129q123 0 225 -37l57 92h125l-84 -139q215 -137 215 -434q0 -268 -166 -404q-141 -113 -376 -113q-123 0 -226 37l-69 -114h-125l96 161q-217 135 -217 433zM389 494q0 -129 29 -244l362 602q-53 66 -153 66q-129 0 -185 -109 q-53 -100 -53 -315zM471 131q53 -66 154 -65q129 0 186 106q51 98 51 307q0 133 -28 252z" />
<glyph unicode="&#xf9;" horiz-adv-x="1308" d="M90 913v72h385q-14 -139 -18 -348v-242q0 -150 20 -198q31 -76 141 -76q238 0 238 395v106.5v90.5q0 59 -8 172q-10 29 -68 28h-18v72h381q-20 -461 -2 -891q14 -23 59 -22h19v-72h-347q-10 53 -20 154q-37 -74 -143.5 -125.5t-202.5 -51.5q-332 0 -332 347q0 543 -2 563 q-14 27 -63 26h-19zM252 1401q0 41 32.5 70.5t90.5 29.5q76 0 137 -74l272 -323h-118l-344 201q-70 41 -70 96z" />
<glyph unicode="&#xfa;" horiz-adv-x="1308" d="M90 913v72h385q-14 -139 -18 -348v-242q0 -150 20 -198q31 -76 141 -76q238 0 238 395v106.5v90.5q0 59 -8 172q-10 29 -68 28h-18v72h381q-20 -461 -2 -891q14 -23 59 -22h19v-72h-347q-10 53 -20 154q-37 -74 -143.5 -125.5t-202.5 -51.5q-332 0 -332 347q0 543 -2 563 q-14 27 -63 26h-19zM410 1104l292 323q66 74 138 74q102 0 102 -100q0 -55 -70 -96l-344 -201h-118z" />
<glyph unicode="&#xfb;" horiz-adv-x="1308" d="M90 913v72h385q-14 -139 -18 -348v-242q0 -150 20 -198q31 -76 141 -76q238 0 238 395v106.5v90.5q0 59 -8 172q-10 29 -68 28h-18v72h381q-20 -461 -2 -891q14 -23 59 -22h19v-72h-347q-10 53 -20 154q-37 -74 -143.5 -125.5t-202.5 -51.5q-332 0 -332 347q0 543 -2 563 q-14 27 -63 26h-19zM313 1104l228 336q53 41 92 41q59 0 92 -41l225 -336h-100l-217 194l-219 -194h-101z" />
<glyph unicode="&#xfc;" horiz-adv-x="1308" d="M90 913v72h385q-14 -139 -18 -348v-242q0 -150 20 -198q31 -76 141 -76q238 0 238 395v106.5v90.5q0 59 -8 172q-10 29 -68 28h-18v72h381q-20 -461 -2 -891q14 -23 59 -22h19v-72h-347q-10 53 -20 154q-37 -74 -143.5 -125.5t-202.5 -51.5q-332 0 -332 347q0 543 -2 563 q-14 27 -63 26h-19zM299 1290q0 57 40 99.5t97 42.5q55 0 98.5 -42.5t43.5 -99.5q0 -59 -42 -99t-100 -40q-59 0 -98 40t-39 99zM705 1290q0 57 41.5 99.5t99.5 42.5q55 0 96 -42.5t41 -99.5q0 -59 -40 -99t-97 -40q-59 0 -100 40t-41 99z" />
<glyph unicode="&#xfd;" horiz-adv-x="1095" d="M0 913v72h369q43 -152 125 -352q72 -174 143 -346q66 147 131 297q66 160 111 321q-14 8 -43 8h-21v72h277q-70 -137 -218 -446l-284 -602q-92 -197 -203 -480h-229q158 201 270 443l33 69q-92 248 -404 938q-12 6 -37 6h-20zM358 1104l293 323q66 74 137 74 q103 0 103 -100q0 -55 -70 -96l-344 -201h-119z" />
<glyph unicode="&#xfe;" horiz-adv-x="1363" d="M84 1452v74h383q-10 -199 -10 -639q106 137 309 137q209 0 341 -139t132 -379q0 -229 -147 -379q-141 -141 -344 -141q-197 0 -287 106v-158q0 -37 8 -374q12 -31 63 -31h19v-72h-12h-371q6 184 6 844q0 1118 -10 1131q-16 20 -60 20h-20zM453 496q0 -209 47 -303 q49 -100 162 -101q125 0 195.5 109.5t70.5 310.5q0 190 -72 293.5t-194 103.5q-98 0 -153.5 -109.5t-55.5 -303.5z" />
<glyph unicode="&#xff;" horiz-adv-x="1095" d="M0 913v72h369q43 -152 125 -352q72 -174 143 -346q66 147 131 297q66 160 111 321q-14 8 -43 8h-21v72h277q-70 -137 -218 -446l-284 -602q-92 -197 -203 -480h-229q158 201 270 443l33 69q-92 248 -404 938q-12 6 -37 6h-20zM231 1290q0 57 41 99.5t97 42.5 q57 0 99 -42.5t42 -99.5q0 -59 -41 -99t-100 -40q-57 0 -97.5 40t-40.5 99zM639 1290q0 57 42 99.5t97 42.5q57 0 98.5 -42.5t41.5 -99.5q0 -59 -40 -99t-100 -40q-57 0 -98 40t-41 99z" />
<glyph unicode="&#x152;" horiz-adv-x="2152" d="M98 692q0 332 204 528.5t542 196.5q205 0 336 -98q-2 49 -2 76h856v-219h-72q0 63 -23 77q-203 16 -419 17h-27q-4 -225 -4 -414v-68l496 11v-133q-285 12 -498 12v-72q0 -104 4 -477h31q199 0 450 18q18 14 19 76h73q0 -39 -2 -112v-109q-127 4 -358 4q-383 0 -533 -4 q2 37 5 76q-131 -102 -332 -103q-346 0 -546 191.5t-200 525.5zM434 688q0 -303 98 -442q102 -147 332 -148q119 0 191 39q66 35 129 123q4 177 4 451q0 193 -4 428q-63 86 -131 121.5t-189 35.5q-430 0 -430 -608z" />
<glyph unicode="&#x153;" horiz-adv-x="1927" d="M84 492q0 248 168 389q152 129 377 129q242 0 387 -136q147 137 360 138q209 0 333 -122t124 -315v-30q-2 -18 -2 -29h-662v-31q0 -399 285 -399q102 0 183 50t81 112v20h76v-188q-141 -102 -418 -103q-205 0 -352 132q-143 -133 -399 -134q-231 0 -377 123 q-164 137 -164 394zM395 494q0 -219 47 -318q53 -109 183 -108q129 0 182 106q49 94 49 305q0 225 -47 324q-53 113 -182 112q-127 0 -183 -108q-49 -98 -49 -313zM1174 621h364q0 141 -27 206q-39 92 -143 93q-178 0 -194 -299z" />
<glyph unicode="&#x178;" horiz-adv-x="1269" d="M-4 1284v68h362q174 -389 359 -666q72 119 291 590q-14 6 -41 6h-19v70h293q-195 -315 -457 -789q-4 -131 -4 -180q0 -133 8 -289q14 -25 58 -24h20v-70h-387q12 199 13 293q0 117 -11 258q-109 186 -432 729q-12 4 -33 4h-20zM311 1593q0 55 41 97.5t97 42.5 q57 0 99 -42.5t42 -97.5q0 -59 -41 -100t-100 -41q-57 0 -97.5 41t-40.5 100zM719 1593q0 55 42 97.5t97 42.5q57 0 98 -42.5t41 -97.5q0 -59 -39.5 -100t-99.5 -41q-57 0 -98 41t-41 100z" />
<glyph unicode="&#x2c6;" horiz-adv-x="653" d="M8 1104l228 336q51 41 92 41q59 0 92 -41l225 -336h-100l-219 194l-217 -194h-101z" />
<glyph unicode="&#x2dc;" horiz-adv-x="653" d="M2 1155q33 125 61 170q51 84 152 84q43 0 144.5 -43t132.5 -43q47 0 77 100l90 2q-23 -115 -55 -168q-51 -80 -149 -79q-45 0 -147.5 42t-139.5 42q-47 0 -78 -109z" />
<glyph unicode="&#x2000;" horiz-adv-x="933" />
<glyph unicode="&#x2001;" horiz-adv-x="1866" />
<glyph unicode="&#x2002;" horiz-adv-x="933" />
<glyph unicode="&#x2003;" horiz-adv-x="1866" />
<glyph unicode="&#x2004;" horiz-adv-x="622" />
<glyph unicode="&#x2005;" horiz-adv-x="466" />
<glyph unicode="&#x2006;" horiz-adv-x="311" />
<glyph unicode="&#x2007;" horiz-adv-x="311" />
<glyph unicode="&#x2008;" horiz-adv-x="233" />
<glyph unicode="&#x2009;" horiz-adv-x="373" />
<glyph unicode="&#x200a;" horiz-adv-x="103" />
<glyph unicode="&#x2010;" horiz-adv-x="948" d="M109 475v234h731v-234h-731z" />
<glyph unicode="&#x2011;" horiz-adv-x="948" d="M109 475v234h731v-234h-731z" />
<glyph unicode="&#x2012;" horiz-adv-x="948" d="M109 475v234h731v-234h-731z" />
<glyph unicode="&#x2013;" horiz-adv-x="1013" d="M-10 408v174h1032v-174h-1032z" />
<glyph unicode="&#x2014;" horiz-adv-x="2004" d="M-10 408v174h2025v-174h-2025z" />
<glyph unicode="&#x2018;" horiz-adv-x="532" d="M92 895q0 236 258 473l88 -8q-49 -72 -100 -143q-33 -59 -33 -150q0 -39 63.5 -82t63.5 -119q0 -68 -53 -111.5t-125 -43.5t-117 49t-45 135z" />
<glyph unicode="&#x2019;" horiz-adv-x="532" d="M88 780q49 70 98 142q35 59 35 149q0 41 -64.5 83t-64.5 118q0 68 54.5 111.5t125.5 43.5q72 0 116 -49t44 -135q0 -236 -258 -473z" />
<glyph unicode="&#x201a;" horiz-adv-x="532" d="M88 -346q49 72 98 141q35 59 35 152q0 39 -64.5 82t-64.5 118q0 68 53.5 111t126.5 43q72 0 116 -49t44 -135q0 -233 -258 -471z" />
<glyph unicode="&#x201c;" horiz-adv-x="962" d="M102 895q0 236 258 473l89 -8q-49 -72 -101 -143q-33 -59 -33 -150q0 -39 63.5 -82t63.5 -119q0 -68 -53 -111.5t-125 -43.5t-117 49t-45 135zM532 895q0 236 259 473l88 -8q-51 -72 -101 -143q-35 -59 -35 -150q0 -39 64.5 -82t64.5 -119q0 -68 -53 -111.5t-127 -43.5 q-70 0 -115 49t-45 135z" />
<glyph unicode="&#x201d;" horiz-adv-x="962" d="M90 762q49 70 100 141q35 59 35 150q0 41 -64.5 83t-64.5 117q0 68 53.5 112t124.5 44q72 0 117 -49t45 -135q0 -236 -258 -473zM524 762q51 70 101 141q35 59 34 150q0 41 -64.5 83t-64.5 117q0 68 53.5 112t125.5 44t116.5 -49t44.5 -135q0 -236 -258 -473z" />
<glyph unicode="&#x201e;" horiz-adv-x="962" d="M88 -346q51 72 100 141q35 59 35 152q0 39 -64.5 82t-64.5 118q0 68 53.5 111t124.5 43q72 0 117 -49t45 -135q0 -233 -258 -471zM522 -346q51 72 101 141q35 59 34 152q0 39 -64.5 82t-64.5 118q0 68 53.5 111t127.5 43q70 0 114.5 -49t44.5 -135q0 -233 -258 -471z" />
<glyph unicode="&#x2022;" horiz-adv-x="1191" d="M328 758q0 111 78.5 187.5t189.5 76.5q109 0 187.5 -77.5t78.5 -186.5q0 -111 -78.5 -190t-189.5 -79t-188.5 78t-77.5 191z" />
<glyph unicode="&#x2026;" horiz-adv-x="2004" d="M178 135q0 68 48 115t116 47t116 -47t48 -115t-48 -116t-116 -48t-116 48.5t-48 115.5zM844 135q0 68 48 115t116 47t115.5 -47t47.5 -115t-48 -116t-115 -48q-68 0 -116 48.5t-48 115.5zM1509 135q0 68 48.5 115t115.5 47q68 0 116 -47t48 -115t-48 -116t-116 -48 t-116 48.5t-48 115.5z" />
<glyph unicode="&#x202f;" horiz-adv-x="373" />
<glyph unicode="&#x2039;" horiz-adv-x="620" d="M68 487l448 478l43 -82l-205 -396l205 -397l-43 -80z" />
<glyph unicode="&#x203a;" horiz-adv-x="624" d="M72 90l202 397l-202 396l43 82l448 -478l-448 -477z" />
<glyph unicode="&#x205f;" horiz-adv-x="466" />
<glyph unicode="&#x2122;" horiz-adv-x="1734" d="M68 1294v152q96 -2 292 -2q211 0 306 2l2 -152h-70q0 53 -2 62q-70 10 -143 10h-4q-4 -59 -5 -205q0 -135 5 -368q6 -2 38 -2v-64l-202 -2q6 252 6 483v158q-104 0 -150 -4q-4 -8 -4 -68h-69zM721 719q43 190 94 608l14 125h91q86 -172 262 -514q88 172 268 514h84 q4 -55 78 -659h53v-74h-215q-4 209 -39 444q-164 -287 -219 -442h-92q-61 162 -205 434q-14 -121 -43 -358q4 -2 53 -2v-76h-184z" />
<glyph unicode="&#x25fc;" horiz-adv-x="983" d="M0 0v983h983v-983h-983z" />
</font>
</defs>
</svg>
