<?xml version="1.0" standalone="no"?>
<!DOCTYPE svg PUBLIC "-//W3C//DTD SVG 1.1//EN" "http://www.w3.org/Graphics/SVG/1.1/DTD/svg11.dtd" >
<svg xmlns="http://www.w3.org/2000/svg">
<metadata></metadata>
<defs>
<font id="jaguarjcbook" horiz-adv-x="1144" >
<font-face units-per-em="2048" ascent="1638" descent="-410" />
<missing-glyph horiz-adv-x="581" />
<glyph horiz-adv-x="0" />
<glyph unicode="&#xd;" horiz-adv-x="581" />
<glyph unicode=" "  horiz-adv-x="581" />
<glyph unicode="&#x09;" horiz-adv-x="581" />
<glyph unicode="&#xa0;" horiz-adv-x="581" />
<glyph unicode="!" horiz-adv-x="692" d="M213 115q0 55 39 94t94 39t94 -39t39 -94q0 -53 -40 -94t-93 -41q-57 0 -95 39.5t-38 95.5zM227 1294q0 129 117 129q119 0 119 -129q0 -240 -84 -915h-68q-84 678 -84 915z" />
<glyph unicode="&#x22;" horiz-adv-x="589" d="M80 1286q-2 88 28.5 119t67.5 31q35 0 64 -27q36 -37 18 -117l-102 -456l-68 2zM373 1286q-2 88 28.5 119t67.5 31q35 0 63 -27q37 -37 19 -117l-102 -456l-68 2z" />
<glyph unicode="#" horiz-adv-x="1593" d="M74 457l45 123h325l109 299h-352l41 122h354l158 447h143l-154 -447h308l159 447h144l-156 -447h315l-43 -122h-317l-106 -299h339l-43 -123h-339l-168 -480h-148l172 480h-311l-172 -480h-146l170 480h-327zM592 580h311l105 299h-312z" />
<glyph unicode="$" d="M131 303q59 -100 109 -139q109 -86 299 -86v553q-182 74 -263 141q-125 106 -124 262q0 158 106.5 259.5t280.5 115.5v115h94v-113q160 -8 303 -80v-217q-39 76 -84 115q-84 74 -219 88v-494q186 -76 258 -139q119 -102 119 -266q0 -166 -102.5 -277.5t-274.5 -144.5 v-158h-94v148q-18 -2 -37 -2q-229 0 -369 108zM334 1098q0 -86 57 -144q46 -45 148 -90v455q-88 -10 -146.5 -75.5t-58.5 -145.5zM633 94q84 31 139 101.5t55 150.5q0 156 -194 244v-496z" />
<glyph unicode="%" horiz-adv-x="1593" d="M61 1018q0 152 97.5 252t240.5 100q141 0 230.5 -92t89.5 -248q0 -166 -94.5 -265t-247.5 -99q-141 0 -228.5 97t-87.5 255zM242 1042q0 -297 147 -297q148 0 148 256q0 289 -148 289q-66 0 -106.5 -65.5t-40.5 -182.5zM315 -57l836 1489h129l-831 -1489h-134zM874 348 q0 154 96.5 253t239.5 99t231.5 -92t88.5 -248q0 -166 -94.5 -265t-247.5 -99q-141 0 -227.5 97t-86.5 255zM1063 373q0 -297 145 -297q148 0 148 254q0 289 -148 288q-63 0 -104 -61q-41 -68 -41 -184z" />
<glyph unicode="&#x26;" horiz-adv-x="1376" d="M96 334q0 143 88 254q82 104 262 205q-127 162 -127 315q0 152 89.5 243t240.5 91q129 0 218 -71t89 -185q0 -184 -284 -367q223 -285 352 -432q98 152 98 299q0 31 -14 57h172q-45 -238 -197 -426l160 -188q37 -43 123 -129h-276q-45 68 -132 168q-190 -195 -458 -195 q-182 0 -293 99.5t-111 261.5zM299 389q0 -119 80 -203t199 -84q215 1 319 136q-178 195 -399 487q-199 -121 -199 -336zM494 1167q0 -121 133 -286q164 121 164 299q0 80 -38 132t-104 52q-156 0 -155 -197z" />
<glyph unicode="'" horiz-adv-x="315" d="M100 1286q-2 88 29 119t68 31q35 0 63 -27q37 -37 19 -117l-103 -456l-67 2z" />
<glyph unicode="(" horiz-adv-x="583" d="M127 598q0 510 336 868l72 -61q-133 -180 -189 -379q-51 -178 -51 -420q0 -512 237 -801l-65 -77q-178 190 -259 398t-81 472z" />
<glyph unicode=")" horiz-adv-x="583" d="M51 -203q242 317 242 799q0 506 -240 801l64 78q344 -356 344 -854q0 -524 -324 -871l-12 -14z" />
<glyph unicode="*" horiz-adv-x="1032" d="M160 1178q47 57 73 125q160 -119 250 -183q-10 96 -43 307q74 -10 142 0q-23 -190 -31 -309q135 96 244 193q25 -59 69 -123q-158 -63 -286 -127q130 -58 292 -115q-45 -61 -71 -123l-252 181q18 -176 45 -310q-72 12 -146 0q27 168 37 310q-147 -104 -245 -191 q-25 68 -70 123q152 63 283 127q-109 51 -291 115z" />
<glyph unicode="+" horiz-adv-x="1724" d="M244 559v139h551v562h139v-562h547v-139h-547v-561h-139v561h-551z" />
<glyph unicode="," horiz-adv-x="581" d="M131 -336q82 119 96 146q43 80 43 153q0 33 -52 66.5t-52 95.5q0 53 43 89t102 36q57 0 93 -40t36 -110q0 -188 -239 -444z" />
<glyph unicode="-" horiz-adv-x="702" d="M80 428v172h543v-172h-543z" />
<glyph unicode="." horiz-adv-x="581" d="M156 113q0 57 40 96t95 39t95 -39t40 -96q0 -53 -41 -93t-94 -40q-55 0 -95 38.5t-40 94.5z" />
<glyph unicode="/" horiz-adv-x="595" d="M-61 -193l575 1768h131l-573 -1768h-133z" />
<glyph unicode="0" d="M70 684q0 719 499 719q506 0 506 -711q0 -725 -506 -725q-246 0 -372.5 183.5t-126.5 533.5zM291 686q0 -629 280 -629q150 0 216.5 148.5t66.5 488.5q0 618 -283 619q-145 0 -212.5 -151.5t-67.5 -475.5z" />
<glyph unicode="1" d="M240 1051l2 147q218 72 497 215q-20 -387 -20 -713q0 -283 10 -700h-203q14 477 15 702q0 440 -2 517q-100 -72 -299 -168z" />
<glyph unicode="2" d="M96 -2v63q305 301 410 431q231 291 231 516q0 135 -65.5 212.5t-175.5 77.5q-242 0 -340 -278v237q127 145 395 146q197 0 308.5 -103.5t111.5 -285.5q0 -205 -238 -473q-135 -150 -407 -373q55 -2 202 -2q158 0 383 16q14 14 15 49v21h61v-254q-137 2 -450 4 q-76 2 -441 -4z" />
<glyph unicode="3" d="M152 76v211q158 -225 331 -226q289 0 289 332q0 125 -73.5 208t-180.5 83q-100 0 -151 -14v116q41 -6 79 -6q260 0 261 273q0 115 -61.5 184.5t-151.5 69.5q-98 0 -191.5 -65.5t-122.5 -147.5v198q123 111 342 111q186 0 293 -91t107 -251q0 -209 -226 -320 q301 -49 301 -338q0 -211 -138 -324.5t-378 -113.5q-86 0 -186 35q-92 33 -143 76z" />
<glyph unicode="4" d="M57 397v58q279 375 645 942l162 2q-10 -188 -10 -625q0 -258 -2 -237h49q131 -1 178 34l-26 -168q-72 0 -201 3q2 23 2 -185q0 -129 8 -221l-205 2q12 207 13 219v178q-188 4 -285 4q-150 0 -328 -6zM250 539h424v628q-174 -250 -424 -628z" />
<glyph unicode="5" d="M152 70v209q156 -221 344 -222q127 0 206.5 106.5t79.5 276.5q0 137 -76.5 217t-201.5 80q-121 0 -217 -65l-58 12q14 121 15 246q0 23 6 221q4 129 -4 221l350 -4l356 4v-235h-47q-14 61 -53 63l-223 4l-258 -4q-12 -180 -13 -366v-31q84 53 230 53q182 0 299 -111.5 t117 -295.5q0 -215 -140.5 -349.5t-382.5 -134.5q-162 0 -329 105z" />
<glyph unicode="6" d="M106 565q0 379 169 611.5t442 232.5q104 0 217 -35l-2 -143q-104 78 -234 78q-156 0 -264 -172t-108 -435q137 141 319 142q180 0 289.5 -110t109.5 -290q0 -217 -128 -347t-341 -130q-219 0 -344 159t-125 439zM334 410q0 -154 70.5 -250.5t173.5 -96.5q113 0 181 93.5 t68 257.5q0 324 -237 323q-111 0 -183.5 -90t-72.5 -237z" />
<glyph unicode="7" d="M162 1372h893v-78q-381 -649 -649 -1292l-205 -2q123 184 344 596q164 301 327 604l-337 4l-263 -4q-33 0 -47 -31q-6 -20 -12 -41h-49z" />
<glyph unicode="8" d="M100 387q0 281 295 377q-106 31 -165.5 109.5t-59.5 181.5q0 158 112.5 253t295.5 95q188 0 295.5 -86t107.5 -238q0 -111 -57 -192q-61 -88 -166 -115q286 -98 286 -356q0 -215 -124.5 -332t-339.5 -117q-223 0 -351.5 111.5t-128.5 308.5zM324 389q0 -156 69.5 -249 t186.5 -93q111 0 176 93t65 249q0 330 -243 330q-254 0 -254 -330zM387 1061q0 -123 51 -195.5t140 -72.5q88 0 139 72.5t51 189.5q0 272 -193 272q-90 0 -139 -73.5t-49 -192.5z" />
<glyph unicode="9" d="M94 956q0 209 133 332q125 117 320 117q225 0 354 -143q135 -149 135 -428q0 -408 -145 -633q-150 -231 -426 -232q-184 0 -264 51v156q135 -104 280 -104q336 0 336 606q-115 -143 -313 -143q-178 0 -294 117.5t-116 303.5zM299 963q0 -137 73.5 -221.5t190.5 -84.5 q109 0 174 72q74 78 74 232q0 168 -69.5 260t-186.5 92q-256 0 -256 -350z" />
<glyph unicode=":" horiz-adv-x="688" d="M211 113q0 55 39 94t94 39t95 -39t40 -94q0 -53 -41 -93t-94 -40q-55 0 -94 38.5t-39 94.5zM211 829q0 55 39 94.5t94 39.5t95 -39.5t40 -94.5t-41 -95t-94 -40q-55 0 -94 40t-39 95z" />
<glyph unicode=";" horiz-adv-x="581" d="M131 -336q82 119 96 146q43 80 43 153q0 33 -52 66.5t-52 95.5q0 53 43 89t102 36q57 0 93 -40t36 -110q0 -188 -239 -444zM162 827q0 57 40 96.5t95 39.5t95 -39.5t40 -96.5q0 -53 -41 -93t-94 -40q-55 0 -95 39t-40 94z" />
<glyph unicode="&#x3c;" horiz-adv-x="1724" d="M254 573v111l1216 500v-154l-987 -401l987 -400v-153z" />
<glyph unicode="=" horiz-adv-x="1724" d="M244 373v139h1237v-139h-1237zM244 745v140h1237v-140h-1237z" />
<glyph unicode="&#x3e;" horiz-adv-x="1724" d="M254 76v153l987 400l-987 401v154l1216 -500v-111z" />
<glyph unicode="?" horiz-adv-x="808" d="M164 1126v107q2 74 2 106q139 84 262 84q145 0 239.5 -82t94.5 -221q0 -145 -158 -272l-94 -76q-72 -57 -94 -86q-27 -35 -27 -80q0 -80 31 -137q25 -35 49 -70l-74 -12q-57 57 -112 115q-66 76 -66 141q0 68 35 115q18 23 104 98l117 102q96 84 96 197q0 72 -46 115 t-115 43q-96 0 -162 -60q-20 -43 -21 -127h-61zM285 113q0 55 38.5 94t94.5 39q55 0 94 -39t39 -94q0 -53 -40 -93t-93 -40q-57 0 -95 38.5t-38 94.5z" />
<glyph unicode="@" horiz-adv-x="2048" d="M106 555q0 412 308 680q293 258 710 258q334 0 572 -176q264 -194 264 -520q0 -360 -252 -559q-145 -115 -322 -115q-190 0 -210 135q-106 -135 -273 -135q-334 0 -334 348q0 240 140.5 403.5t345.5 163.5q176 0 252 -137l47 98h133l-146 -585q-16 -63 -16 -88 q0 -72 86 -72q100 0 199 78q197 156 196 471q0 240 -186 397q-193 162 -498 162q-369 0 -610 -229q-248 -236 -248 -603q0 -324 225 -512q211 -178 543 -178q344 0 639 201l62 -88q-315 -238 -680 -238q-408 0 -668 211q-279 229 -279 629zM733 463q0 -215 187 -215 q170 0 251 176q26 49 89 311q-37 178 -193 178q-145 0 -239.5 -128t-94.5 -322z" />
<glyph unicode="A" horiz-adv-x="1341" d="M20 -2q143 283 605 1407h92q178 -442 549 -1327q23 -16 65 -17h19v-61h-287q-90 274 -189 508q-78 4 -239 4q-160 0 -238 -4q-102 -238 -168 -445q12 -2 37 -2h21v-63h-267zM436 614l191 -4q29 0 92 2q72 2 115 2q-68 182 -199 514q-63 -137 -199 -514z" />
<glyph unicode="B" horiz-adv-x="1189" d="M94 1333v60l434 2q258 0 381 -74q133 -78 133 -248q0 -229 -276 -321q334 -74 334 -332q0 -207 -151.5 -316.5t-424.5 -109.5q-51 0 -128 4t-107 4q-39 0 -123 -4q18 262 18 627q0 432 -10 682q-12 26 -56 26h-3h-21zM373 500q0 -264 10 -389q63 -14 117 -15 q383 0 383 301q0 297 -391 297q-33 0 -119 -8v-186zM373 797q49 -4 90 -4q362 0 362 268q0 111 -84 175t-237 64q-53 0 -123 -8q-8 -100 -8 -237v-258z" />
<glyph unicode="C" horiz-adv-x="1314" d="M96 694q0 326 191.5 525.5t529.5 199.5q244 0 410 -104l2 -250h-62v20q0 25 -20 70q-117 172 -336 172q-229 0 -354 -178q-121 -168 -121 -457t137 -450q131 -160 361 -160q218 0 415 219l-2 -168q-188 -160 -438 -160q-344 0 -528.5 182.5t-184.5 538.5z" />
<glyph unicode="D" horiz-adv-x="1474" d="M98 1331v64q100 0 266 2t273 2q737 0 737 -668q0 -350 -198 -541q-204 -196 -588 -196h-4q-45 0 -111.5 4t-118.5 4q6 0 -178 -4q8 231 8 696q0 418 -6 611q-12 26 -56 26h-3h-21zM381 748q0 -373 8 -646q111 -8 127 -8q340 0 494 160q139 150 139 459q0 317 -133 452 t-430 135q-70 0 -199 -8q-6 -266 -6 -544z" />
<glyph unicode="E" horiz-adv-x="1067" d="M113 1331v64h835v-199h-61q0 63 -23 78q-203 16 -430 16h-26q-4 -225 -5 -440v-68l496 11v-121q-285 12 -498 12v-72q0 -135 5 -508h30q209 0 461 19q18 14 18 76h64q0 -70 -2 -201h-789q16 264 17 713q0 575 -13.5 597.5t-58.5 22.5h-20z" />
<glyph unicode="F" horiz-adv-x="1056" d="M109 1331v64h860v-205h-64q0 61 -16 76q-143 20 -453 20h-28q-8 -139 -9 -307v-205q156 0 512 12l2 -124q-360 12 -514 12v-432q0 -74 4 -154q20 -27 82 -27v-61h-297q16 229 17 686q0 594 -17 623q-13 22 -55 22h-4h-20z" />
<glyph unicode="G" horiz-adv-x="1492" d="M96 676q0 332 199 532q207 211 567 211q270 0 469 -125v-229h-61v20q0 14 -15 58q-162 182 -424 182q-233 0 -368 -174t-135 -459q0 -270 139 -444q145 -180 387 -180q158 0 307 98l4 167v-3q0 41 -4 188q-14 23 -61 23h-29v63h291q-8 -231 -8 -272q0 -154 10 -246 q-225 -111 -549 -111q-352 0 -541 195q-178 184 -178 506z" />
<glyph unicode="H" horiz-adv-x="1546" d="M113 1331v64h301q-14 -119 -15 -525v-57q31 0 197 -4q123 -2 199 -2q74 0 176 2q135 4 176 4v57q0 244 -10 424q-37 37 -68 37h-18v64h303q-14 -305 -15 -645q0 -297 13 -660q14 -29 69 -29h15v-61h-306q16 268 17 612v74q-193 6 -352 6q-201 0 -396 -6v-74 q0 -399 4 -516q10 -35 72 -35h14v-61h-303q18 291 19 750q0 371 -8 548q-8 33 -66 33h-18z" />
<glyph unicode="I" horiz-adv-x="604" d="M113 1331v64h301q-14 -289 -15 -652q0 -530 4 -647q10 -35 72 -35h14v-61h-303q18 289 19 750q0 371 -8 548q-8 33 -66 33h-18z" />
<glyph unicode="J" horiz-adv-x="526" d="M-70 -399q158 176 213 307q61 141 62 360v473q-4 553 -19.5 572.5t-58.5 19.5h-18v62h290q-10 -256 -10 -523q0 -221 4 -441t4 -222q0 -188 -110 -342q-31 -45 -244 -268zM391 725z" />
<glyph unicode="K" horiz-adv-x="1308" d="M115 1333v62h297q-14 -154 -15 -342v-584q0 -213 9 -383q14 -25 61 -25h18v-61h-295q14 238 15 606q0 457 -10 703q-13 24 -57 24h-3h-20zM408 739l514 609q14 16 20 49l266 -2v-62h-20q-74 0 -180 -102q-145 -141 -400 -440q262 -375 580 -721q29 -12 57 -13h21v-61 h-297q-154 211 -240 317q-119 160 -321 426z" />
<glyph unicode="L" horiz-adv-x="989" d="M113 1331v64h299q-16 -416 -17 -705q0 -350 8 -579q35 -2 117 -2q207 0 340 20q23 14 23 59v21h61v-211q-371 6 -479 6q-135 0 -275 -6q12 365 13 696q0 330 -10 611q-14 26 -57 26h-3h-20z" />
<glyph unicode="M" horiz-adv-x="1787" d="M61 0q78 344 211 1405h74q131 -266 260 -535q156 -317 275 -532q227 408 557 1067h71q14 -139 158 -1339q14 -6 39 -7h20v-61h-272q-47 670 -94 954q-362 -612 -481 -952h-84q-139 377 -447 944q-76 -541 -88 -852q14 -31 62 -31h20v-61h-281z" />
<glyph unicode="N" horiz-adv-x="1562" d="M109 0v61h20q45 0 59 25q23 522 23 1104v207h88q467 -541 926 -1004q4 86 4 137q0 750 -15.5 776.5t-60.5 26.5h-20v62h321v-62h-18q-47 0 -62 -26q-12 -432 -12 -865q0 -147 4 -448h-76q-137 170 -493 553l-447 481q-4 -131 -4 -221q0 -283 12 -721q14 -25 60 -25h20 v-61h-329z" />
<glyph unicode="O" horiz-adv-x="1667" d="M98 692q0 332 199 529.5t537 197.5q344 0 539.5 -195.5t195.5 -531.5q0 -324 -200 -522.5t-535 -198.5q-346 0 -541 193.5t-195 527.5zM332 688q0 -295 133 -456.5t369 -161.5q233 0 367 164.5t134 459.5q0 301 -132 464t-369 163q-225 0 -361 -166q-141 -172 -141 -467z " />
<glyph unicode="P" horiz-adv-x="1185" d="M94 1333v62h520q221 0 346 -93.5t125 -267.5q0 -411 -529 -411h-3q-117 0 -172 2v-269q0 -123 8 -268q12 -27 60 -27h20v-61l-297 -2q12 352 12 696q0 594 -13 616.5t-56 22.5h-21zM379 715q43 -2 110 -2q375 0 375 303q0 289 -370 289q-51 0 -105 -5q-10 -205 -10 -411 v-174z" />
<glyph unicode="Q" horiz-adv-x="1667" d="M98 692q0 332 199 528.5t537 196.5q346 0 540.5 -194.5t194.5 -530.5q0 -244 -117 -422t-326 -252q78 -88 92.5 -103t81.5 -75q120 -108 211 -108h2q41 0 117 26l21 -65q-145 -61 -217 -62q-158 0 -258 93q-88 86 -269 249q-35 -2 -73 -2q-346 0 -541 193.5t-195 527.5z M332 688q0 -295 133 -456.5t369 -161.5t369.5 164.5t133.5 459.5q0 301 -132 464t-371 163q-225 0 -361 -166q-141 -172 -141 -467z" />
<glyph unicode="R" horiz-adv-x="1200" d="M92 1331v64h21q29 0 85 -3t85 -3q37 0 133 4t164 4q467 0 467 -340q0 -295 -351 -373q121 -186 400 -573l37 -35q29 -6 35 -10.5t8 -4.5h20v-63q2 0 -149 0q-78 0 -107 10q-45 14 -84 70q-55 96 -162 274q-104 168 -129 205q-80 125 -129 182h31q367 0 367 293 q0 123 -76 193q-83 75 -242 75h-4q-43 0 -123 -4q-10 -82 -10 -204v-775q0 -111 6 -241q27 -14 68 -15h20v-63h-303q16 250 16 696q0 594 -14 615.5t-59 21.5h-21z" />
<glyph unicode="S" horiz-adv-x="999" d="M55 82v213h62v-19q0 -23 12 -51q146 -157 326 -157h2q115 0 192.5 81.5t77.5 190.5q0 174 -195 256q-219 92 -292 149q-143 113 -144 289q0 176 121 279.5t318 103.5q162 0 323 -82v-219h-61v21q0 29 -17 59q-119 129 -274 129q-98 0 -160.5 -67.5t-62.5 -157.5 q0 -94 47 -150q41 -51 147 -96q231 -100 295 -149q139 -109 139 -293q0 -203 -134 -321t-357 -118t-365 109z" />
<glyph unicode="T" horiz-adv-x="1116" d="M39 1190v205h1034v-207h-61v20q0 43 -15 62q-146 22 -280 22h-12h-39q-10 -158 -11 -538q0 -664 14.5 -678.5t53.5 -14.5h20v-61h-292q10 631 10 766l-2 526h-35q-188 0 -301 -12q-23 -12 -23 -72v-18h-61z" />
<glyph unicode="U" horiz-adv-x="1509" d="M123 1329v66h289l-9 -742q0 -299 74 -415q86 -141 332 -142q211 0 303 135q74 111 82 344q4 94 4 388v103q0 235 -8 245q-16 20 -60 20h-20v64h334v-66h-21q-57 0 -65 -35q-6 -178 -6 -333q0 -39 2 -119v-121q0 -354 -88 -516q-131 -231 -490 -232q-575 0 -575 617 q0 53 4 358q1 108 1 198t-1 161q-15 22 -58 22h-4h-20z" />
<glyph unicode="V" horiz-adv-x="1318" d="M-4 1333v62h268q164 -465 461 -1157q123 299 393 1071q-13 24 -54 24h-3h-21v62h289q-326 -770 -567 -1401h-156q-283 741 -547 1329q-14 10 -43 10h-20z" />
<glyph unicode="W" horiz-adv-x="1984" d="M4 1333v62h279q156 -578 329 -1127q176 485 324 1041q-13 24 -56 24h-3h-21v62q82 0 260 2q170 -551 369 -1110q172 502 307 1016q-14 30 -58 30h-3h-21v62h281q-162 -465 -469 -1401h-168q-141 492 -350 1073q-195 -573 -351 -1073h-164q-154 510 -415 1325 q-14 14 -49 14h-21z" />
<glyph unicode="X" horiz-adv-x="1214" d="M31 0q166 238 489 711l-418 618q-10 2 -26 2h-21v64h262q98 -193 318 -535q203 295 297 467q-14 4 -35 4h-20v64h282q-154 -209 -452 -639q55 -92 231 -369q203 -319 214 -322.5t28 -3.5h20v-61h-16h-262q-154 303 -334 604q-195 -285 -328 -536q14 -6 39 -7h20v-61h-288 z" />
<glyph unicode="Y" horiz-adv-x="1167" d="M-4 1331v64h270q154 -348 379 -688q98 162 311 618q-14 6 -41 6h-20v64h283q-203 -328 -471 -815q-4 -133 -5 -185q0 -147 9 -309q14 -25 59 -25h21v-61h-297q12 205 12 303q0 119 -10 264q-252 436 -447 760q-12 4 -33 4h-20z" />
<glyph unicode="Z" horiz-adv-x="1206" d="M20 -2q410 604 824 1292q-41 2 -164 2q-285 0 -506 -18q-27 -14 -27 -62v-18h-61v201h1085q-180 -244 -423 -627q-207 -330 -414 -659q127 -4 198 -5q264 0 551 19q25 14 25 59v21h61v-207z" />
<glyph unicode="[" horiz-adv-x="567" d="M137 -221q6 100 6 399v817q0 299 -6 400h23q23 0 71 -2h72h76q49 2 76 2h20v-117q-53 14 -98 14h-72q-8 -150 -8 -479v-453q0 -328 8 -479h72q45 0 98 15v-117q-72 4 -174 4q-94 0 -164 -4z" />
<glyph unicode="\" horiz-adv-x="577" d="M-59 1528h129l557 -1714h-129z" />
<glyph unicode="]" horiz-adv-x="567" d="M59 -104q53 -14 99 -15h71q8 121 9 479v453q0 360 -9 479h-71q-45 0 -99 -14v117h21q27 0 76 -2h75.5h73.5q47 2 70 2h22q-6 -94 -6 -391v-824q0 -299 6 -401q-68 4 -166 4q-100 0 -172 -4v117z" />
<glyph unicode="^" horiz-adv-x="2004" d="M373 791l553 661h153l551 -661h-192l-434 514l-439 -514h-192z" />
<glyph unicode="_" horiz-adv-x="1013" d="M-10 -334h1032v-135h-1032v135z" />
<glyph unicode="`" horiz-adv-x="550" d="M8 1401q0 90 90 90q47 0 109 -64l311 -323h-96l-344 201q-70 41 -70 96z" />
<glyph unicode="a" horiz-adv-x="1017" d="M88 244q0 129 78 198q59 53 180 82q104 20 209 41q80 16 109 39v31q0 276 -201 276q-90 0 -158.5 -70.5t-93.5 -164.5h-59v192q143 121 364 121q176 0 253 -86t77 -266v-438q0 -82 6 -101q12 -37 61 -37h21v-61h-248l-20 104q-134 -122 -281 -122h-2q-139 0 -217 68.5 t-78 193.5zM289 250q0 -168 166 -168q76 0 178 102q26 27 26 72v254q-201 -35 -285.5 -96.5t-84.5 -163.5z" />
<glyph unicode="b" horiz-adv-x="1163" d="M74 1464v64h280q-12 -264 -12 -559v-131q124 151 301 151h2q193 0 307.5 -127t114.5 -344q0 -242 -127 -391.5t-332 -149.5q-152 0 -289 117q-20 -16 -38 -55q-25 -47 -37 -62h-88q2 29 6 537l2 565q0 174 -6 353q-8 32 -61 32h-3h-20zM334 438q0 -372 251 -372h1 q127 0 200.5 116.5t73.5 327.5q0 379 -256 379q-129 0 -199.5 -116t-70.5 -335z" />
<glyph unicode="c" horiz-adv-x="972" d="M84 481q0 231 134 369.5t364 138.5q184 0 309 -80v-198h-66v22q0 63 -53 115q-63 57 -164 57q-145 0 -230 -112.5t-85 -309.5q0 -188 93 -304t239 -116q88 0 155 60q61 55 62 115v18h61v-180q-129 -100 -342 -101q-215 0 -346 138.5t-131 367.5z" />
<glyph unicode="d" horiz-adv-x="1175" d="M96 471q0 233 124 377.5t317 144.5q186 0 297 -139v293q0 162 -5 295q-13 24 -57 24h-4h-20v62h136h138q-8 -258 -8 -658q0 -772 14 -790.5t55 -18.5h21v-61h-242q-20 104 -20 147v9q-119 -174 -328 -174q-188 0 -303 134t-115 355zM303 477q0 -188 67.5 -294.5 t184.5 -106.5q131 0 206 114.5t75 323.5q0 180 -70 281.5t-188 101.5q-127 0 -201 -110.5t-74 -309.5z" />
<glyph unicode="e" horiz-adv-x="1032" d="M84 481q0 229 129 368.5t346 139.5q195 0 301.5 -112.5t106.5 -307.5v-30q-2 -18 -2 -29h-672v-31q0 -184 80 -291q85 -112 230 -112h3q100 0 175 49t75 113v20h66v-178q-141 -102 -351 -103q-219 0 -353 140.5t-134 363.5zM297 600h471q0 131 -47 213q-55 96 -170 96 q-100 0 -176 -84q-78 -90 -78 -225z" />
<glyph unicode="f" horiz-adv-x="610" d="M27 864v99q74 -6 141 -7q0 199 72 361q92 209 262 209q86 0 147 -23v-207h-69v19q0 92 -88 92q-78 0 -123 -66q-37 -57 -37 -143q0 -172 6 -242q119 0 207 9v-107q-150 12 -203 12q0 -584 8 -755q8 -53 72 -54h18v-61h-16h-279q16 147 17 623v247q-10 0 -135 -6z" />
<glyph unicode="g" horiz-adv-x="968" d="M31 -285q0 131 182 232h106q-68 -47 -92 -82q-31 -47 -30 -125q0 -84 76.5 -143.5t195.5 -59.5q299 0 299 256q0 109 -70 156q-78 51 -262 51q-309 0 -309 193q0 57 47 108q45 45 105 64q-195 84 -195 278q0 346 401 346q53 0 137.5 -8t108.5 -8q88 0 100 4q39 12 39 67 v21h74v-21q0 -68 -2 -79q-6 -76 -84 -76q-16 0 -90 12q111 -82 111 -233q0 -158 -112 -250t-288 -92q-27 0 -62.5 4t-45.5 4q-41 0 -75 -21.5t-34 -52.5q0 -96 170 -96q242 0 359 -62q151 -77 151 -271q0 -163 -137 -265q-139 -109 -369 -109q-178 0 -289 68 q-117 70 -116 190zM281 659q0 -119 55 -190.5t147 -71.5q187 0 187 262t-189 263q-98 0 -149 -73t-51 -190z" />
<glyph unicode="h" horiz-adv-x="1165" d="M84 1462v64h281q-10 -201 -11 -465v-254q98 182 297 182q334 0 334 -360q0 -39 -3 -141.5t-3 -165.5q0 -72 6 -230q10 -31 64 -31h20v-61l-278 -2q10 383 10 549q0 168 -48 247.5t-159 79.5q-238 0 -238 -380v-244q0 -70 2 -166q16 -23 62 -23h20v-63h-276q10 252 10 461 v344q0 627 -10 639q-16 20 -60 20h-20z" />
<glyph unicode="i" horiz-adv-x="550" d="M102 903v62h279q-10 0 -10 -455q0 -201 6 -416q10 -31 65 -31h19v-63h-17h-260q12 291 13 510q0 172 -7 346q-8 47 -67 47h-21zM158 1290q0 49 35.5 84t85.5 35q49 0 84.5 -35t35.5 -84t-35.5 -85t-84.5 -36t-85 36t-36 85z" />
<glyph unicode="j" horiz-adv-x="550" d="M-23 -541q156 141 197 287q25 88 25 336q0 479 -13 776q-6 45 -67 45h-19v62h279q-8 -94 -8 -238l2 -715q0 -182 -51 -305q-53 -131 -181 -252zM158 1290q0 49 33.5 84t84.5 35q49 0 85 -35t36 -84t-35.5 -85t-85.5 -36q-51 0 -84.5 36t-33.5 85z" />
<glyph unicode="k" horiz-adv-x="1034" d="M80 1464v64h285q-10 -426 -11 -750v-403q0 -135 6 -269q10 -45 68 -45h18v-61h-278q0 129 4 384t4 382q0 365 -8 647q-8 51 -68 51h-20zM377 541q100 104 203 207q121 127 192 217h219q-145 -98 -440 -377q133 -182 188 -254q109 -145 211 -258q29 -14 45 -15h29v-61 h-258l-8 10q-125 176 -381 531z" />
<glyph unicode="l" horiz-adv-x="555" d="M104 1464v64h279q-9 -246 -9 -549q0 -101 1 -209v-136q0 -272 6 -552q18 -20 59 -21h19v-61h-273q8 377 9 764q0 668 -13 680q-14 20 -57 20h-21z" />
<glyph unicode="m" horiz-adv-x="1742" d="M109 903v62h129.5t109.5 0q23 -117 23 -158q90 188 282 188q225 0 289 -194q96 192 303 192h2q150 0 234 -92t84 -260q0 -193 -2 -317q-1 -98 -1 -157t1 -79q14 -27 59 -27h20v-61h-268q8 150 8 567q0 162 -36 232q-43 78 -150 78q-145 0 -192 -129q-37 -100 -37 -383 q0 -137 4 -277q12 -27 59 -27h21v-61h-277q16 238 17 547q0 327 -188 327h-1q-164 0 -211 -190q-18 -80 -18 -319q0 -135 6 -279q14 -25 59 -25h21v-61h-275q10 102 11 326v323q0 117 -7 228q-14 26 -56 26h-3h-20z" />
<glyph unicode="n" horiz-adv-x="1183" d="M100 903v62h258q16 -127 17 -168q112 198 295 198h2q334 0 334 -374q0 -49 -2.5 -156t-2.5 -154q0 -35 3.5 -101.5t3.5 -100.5q0 -47 67 -48h21v-61h-19h-266q10 158 10 580q0 158 -35 219q-42 75 -160 75h-3q-123 0 -189 -104q-57 -90 -57 -229v-172q0 -106 4 -258 q8 -47 68 -48h18v-63h-16h-269q12 168 13 344v301q0 92 -7 211q-4 47 -67 47h-21z" />
<glyph unicode="o" horiz-adv-x="1148" d="M84 481q0 223 139 365.5t350 142.5q217 0 354.5 -141.5t137.5 -366.5q0 -227 -138.5 -366.5t-353.5 -139.5q-217 0 -353 136.5t-136 369.5zM293 483q0 -426 280 -426q135 0 209 106.5t74 305.5q0 211 -73.5 323.5t-211.5 112.5q-279 0 -278 -422z" />
<glyph unicode="p" horiz-adv-x="1165" d="M74 905v62h14h260q-1 -23 -1 -55t1 -72q118 157 312 157h2q203 0 311 -133t108 -379q0 -233 -120.5 -371.5t-317.5 -138.5q-180 0 -287 127v-178q0 -35 6 -373q12 -30 61 -30h3h20v-64h-14h-268q6 184 6 844q0 406 -4 537q-4 67 -70 67h-2h-20zM348 485q0 -413 259 -413 h1q123 0 194.5 109.5t71.5 310.5q0 190 -72.5 295.5t-193.5 105.5q-119 0 -189.5 -107.5t-70.5 -300.5z" />
<glyph unicode="q" horiz-adv-x="1161" d="M96 451q0 250 113 391q118 151 341 151h3q152 0 291 -116q47 39 92 94h70q0 -33 -5 -516l-2 -564q0 -160 5 -337q8 -33 65 -33h21v-62h-283q10 221 10 531q0 14 -2 131q-117 -139 -289 -139q-193 0 -311.5 127t-118.5 342zM305 459q0 -182 70.5 -280.5t195.5 -98.5h1 q259 0 259 450q0 180 -66.5 276.5t-189.5 96.5q-270 0 -270 -444z" />
<glyph unicode="r" horiz-adv-x="784" d="M100 903v62h244q12 -118 12 -185v-18q129 223 273 223q66 0 127 -22v-240h-70v20q0 96 -88 97q-98 0 -162 -80q-76 -96 -76 -281q0 -270 5 -389q10 -29 65 -29h21v-63h-43h-230q6 100 10 299l2 362q0 147 -6 230q-25 14 -63 14h-21z" />
<glyph unicode="s" horiz-adv-x="827" d="M84 57v205h66v-20q0 -102 79 -152q61 -41 152 -41q88 0 141 55.5t53 126.5q0 127 -143 166q-178 51 -229 84q-102 68 -103 213q0 129 94.5 212t239.5 83q150 0 279 -80v-192h-66v20q0 76 -62.5 124t-148.5 48q-76 0 -123 -49t-47 -117q0 -106 133 -145q186 -55 238 -90 q113 -72 113 -219q0 -141 -107.5 -226.5t-275.5 -85.5q-166 0 -283 80z" />
<glyph unicode="t" horiz-adv-x="671" d="M57 858v107q74 -6 127 -9v45q0 92 -4 211l197 45q-8 -156 -8 -184v-123q92 2 247 15l-2 -105q-127 8 -196 8q-35 0 -51 -2l-5 -88q0 -57 -4 -209.5t-4 -251.5q0 -129 31 -179t111 -50q47 0 122 72l50 -72q-89 -108 -233 -108h-3q-143 0 -202.5 69.5t-59.5 220.5 q0 29 5 213.5t5 333.5v49h-2q-45 0 -121 -8z" />
<glyph unicode="u" horiz-adv-x="1155" d="M90 903v62h283q-14 -141 -19 -338v-113q2 -88 2 -119q0 -152 39 -219q47 -82 168 -82q242 0 242 422q0 39 -2 101.5t-2 84.5q0 115 -4 172q-10 29 -68 29h-18v62h280q-11 -254 -11 -498q0 -195 7 -383q14 -23 60 -23h18v-61h-244q-10 57 -20 160q-39 -78 -122 -130.5 t-173 -52.5q-162 0 -247 91.5t-85 255.5q0 532 -2 553q-14 26 -60 26h-3h-19z" />
<glyph unicode="v" horiz-adv-x="997" d="M0 903v62h18h244q63 -246 281 -734q152 299 258 660q-6 12 -35 12h-18v62h16h223q-219 -489 -409 -977h-146q-98 322 -354 893q-25 23 -58 22h-20z" />
<glyph unicode="w" horiz-adv-x="1554" d="M6 903v62h252q43 -180 244 -705q104 238 215 604q-10 39 -64 39h-20v62h250q70 -264 233 -709q166 360 242 621q-14 26 -57 26h-3h-20v62h266q-70 -152 -207 -461q-137 -330 -186 -512h-150q-14 90 -59 229q-51 150 -168 461q-162 -395 -235 -692l-142 2 q-41 174 -174 516q-53 143 -155 387q-14 8 -41 8h-21z" />
<glyph unicode="x" horiz-adv-x="1040" d="M47 0q150 172 389 485q-96 137 -303 412q-14 6 -61 6h-19v62h273q63 -160 227 -367q147 176 195 295q-14 10 -46 10h-18v62q313 0 309 0q-225 -248 -379 -439q104 -154 332 -456q18 -8 43 -9h19v-61h-256q-53 129 -244 397q-109 -129 -215 -327q14 -8 43 -9h18v-61h-307z " />
<glyph unicode="y" horiz-adv-x="993" d="M0 903v62h266q49 -176 273 -725q133 305 137 315q72 178 117 340q-14 8 -43 8h-21v62h256q-88 -170 -201 -426l-266 -602q-74 -166 -100 -236q-53 -133 -82 -244h-193q133 227 240 469l43 99l-82 211q-55 147 -287 661q-12 6 -37 6h-20z" />
<glyph unicode="z" horiz-adv-x="897" d="M27 0v66q117 141 297 401q143 207 286 412h-41q-283 0 -415 -13q-6 -14 -7 -41v-18h-61v158h766v-56q-125 -158 -299 -405q-143 -207 -287 -414q334 4 520 23q10 14 11 45v20h61l4 -178h-835z" />
<glyph unicode="{" horiz-adv-x="1013" d="M160 481v105q10 0 30 -2h33q123 0 173 64.5t50 207.5v234q0 217 70 297.5t277 80.5h65v-100h-55q-119 0 -162 -68q-35 -55 -35 -200v-234q0 -141 -28 -211q-35 -84 -123 -123q88 -39 123 -122q29 -70 28 -211v-234q0 -143 33 -201q41 -68 156 -67q6 0 20 2h23h20v-100 h-65q-209 0 -281 84q-66 76 -66 292v236q0 143 -50 207.5t-173 64.5h-33q-20 -2 -30 -2z" />
<glyph unicode="|" horiz-adv-x="1013" d="M434 -428v1935h146v-1935h-146z" />
<glyph unicode="}" horiz-adv-x="1013" d="M158 -301h57q117 0 158 65q37 55 37 201v234q0 141 26 211q35 84 125 122q-90 39 -125 123q-27 70 -26 211v234q0 145 -35 203q-41 68 -154 67q-8 0 -22 -2h-23h-18v100h65q207 0 279 -84q66 -78 65 -294v-234q0 -143 51.5 -207.5t174.5 -64.5h30q23 2 33 2v-105 q-35 2 -63 2q-123 0 -174.5 -64.5t-51.5 -207.5v-236q0 -215 -65 -292q-72 -84 -279 -84h-65v100z" />
<glyph unicode="~" horiz-adv-x="1673" d="M164 436v158q246 172 393 172q104 0 286.5 -98.5t274.5 -98.5q96 0 211 66q31 18 184 129v-160q-238 -168 -395 -168q-102 0 -283.5 97.5t-277.5 97.5q-94 0 -209 -68q-29 -16 -184 -127z" />
<glyph unicode="&#xa1;" horiz-adv-x="692" d="M213 1288q0 53 39 94t94 41t94 -40t39 -95t-39 -94t-94 -39t-94 39t-39 94zM229 109q0 240 84 915h68q84 -677 84 -915q0 -129 -117 -129q-119 0 -119 129z" />
<glyph unicode="&#xa2;" d="M127 481q0 231 134 369.5t364 138.5q47 0 88 -4l67 182h107l-76 -202q68 -20 123 -56v-198q-51 90 -158 153l-276 -749q74 -51 168 -52q167 0 278 193v-180q-129 -100 -340 -101q-80 0 -151 21l-88 -242h-107l102 279q-236 129 -235 448zM336 483q0 -178 84 -293l262 713 q-14 2 -31 2q-145 0 -230 -112.5t-85 -309.5z" />
<glyph unicode="&#xa3;" d="M154 594v131q39 -4 190 -4q-6 82 -6 153q0 526 410 527q172 0 276 -96v-230q-98 221 -266 221q-96 0 -163 -87t-67 -224q0 -94 15 -266q260 0 319 8v-127q-78 8 -313 8v-26q0 -301 -158 -455q174 61 381 61q101 0 289 -20v-178q-209 33 -412 33q-240 0 -446 -48l-45 97 q135 57 170 131q33 66 32 254q0 72 -6 147q-133 0 -200 -10z" />
<glyph unicode="&#xa4;" d="M31 109l200 202q-82 117 -81 248q0 131 81 250l-200 201l92 90l201 -201q113 82 249 82q139 0 252 -82l201 201l90 -90l-201 -201q80 -117 80 -250t-80 -248l201 -202l-90 -93l-201 201q-115 -82 -252 -82q-135 0 -249 82l-201 -201zM279 561q0 -123 87 -210t209 -87 q121 0 206 87t85 210q0 119 -85 205t-206 86q-123 0 -209.5 -86t-86.5 -205z" />
<glyph unicode="&#xa5;" d="M25 1331v64h245q111 -264 346 -639q111 193 277 569q-12 6 -39 6h-18v64h266q-127 -213 -377 -650h295v-88h-336l-12 -22q-2 -47 -2 -123h350v-88h-352q0 -176 8 -338q14 -25 57 -25h19v-61h-273q12 205 13 344v80h-367v88h362q-2 41 -4 111l-20 34h-338v88h297 q-115 188 -346 582q-12 4 -33 4h-18z" />
<glyph unicode="&#xa6;" horiz-adv-x="1044" d="M449 -352v798h149v-798h-149zM449 672v798h149v-798h-149z" />
<glyph unicode="&#xa7;" d="M150 616q0 166 139 283q-51 72 -51 174q0 168 116 270q106 94 262 95q78 0 163 -31t124 -78v-196q-39 82 -125 144t-178 62q-86 0 -154.5 -62.5t-68.5 -148.5q0 -106 153 -176q143 -61 287 -123q154 -87 154 -239q0 -137 -119 -264q68 -68 68 -191q0 -176 -134 -278 q-117 -92 -284 -93q-180 0 -320 103v194q123 -176 353 -176q100 0 165 45q74 49 74 144q0 109 -162 178q-150 61 -301 123q-162 88 -161 241zM289 690q0 -88 203 -184q147 -61 292 -125q45 73 45 139q0 63 -69 115q-31 20 -127 65q-72 33 -144 64q-86 39 -137 78 q-63 -53 -63 -152z" />
<glyph unicode="&#xa8;" horiz-adv-x="550" d="M-14 1272q0 47 33.5 82t80.5 35t82 -35t35 -82q0 -49 -33.5 -83t-83.5 -34q-49 0 -81.5 34t-32.5 83zM324 1272q0 47 35.5 82t82.5 35t81 -35t34 -82q0 -49 -34 -83t-81 -34q-49 0 -83.5 34t-34.5 83z" />
<glyph unicode="&#xa9;" horiz-adv-x="1673" d="M106 719q0 301 214.5 516t515.5 215q305 0 518 -213t213 -518q0 -303 -214 -517t-517 -214q-297 0 -513.5 216t-216.5 515zM195 719q0 -262 190 -457.5t451 -195.5q266 0 455.5 191.5t189.5 459.5q0 272 -187.5 464.5t-457.5 192.5q-262 0 -451.5 -195.5t-189.5 -459.5z M459 717q0 188 110.5 305t309.5 117q143 0 243 -64v-157h-55v20q0 12 -10 35q-66 94 -183 94q-125 0 -192.5 -95t-67.5 -257q0 -160 74 -249t199 -89q121 0 246 139v-125q-111 -96 -261 -96q-414 0 -413 422z" />
<glyph unicode="&#xaa;" horiz-adv-x="722" d="M66 891q0 121 106 168q23 10 205 49q45 10 63 20v17q0 170 -121 170q-117 0 -155 -154h-55v139q100 86 245 86q225 0 226 -239v-287q0 -51 2 -61q6 -16 30 -17h25v-61h-180l-13 70q-84 -82 -176 -82q-203 0 -202 182zM70 479v99h596v-99h-596zM217 895q0 -100 96 -100 q47 0 109 63q16 14 16 39v154q-221 -41 -221 -156z" />
<glyph unicode="&#xab;" horiz-adv-x="880" d="M78 487l344 478l43 -82l-203 -396l203 -397l-43 -80zM430 487l346 478l43 -82l-205 -396l205 -395l-43 -82z" />
<glyph unicode="&#xac;" horiz-adv-x="1673" d="M236 733v137h1202v-526h-133v389h-1069z" />
<glyph unicode="&#xad;" horiz-adv-x="702" d="M80 428v172h543v-172h-543z" />
<glyph unicode="&#xae;" horiz-adv-x="1673" d="M106 719q0 301 214.5 516t515.5 215q305 0 518 -213t213 -518q0 -303 -214 -517t-517 -214q-297 0 -513.5 216t-216.5 515zM195 719q0 -262 190 -457.5t451 -195.5q266 0 455.5 191.5t189.5 459.5q0 272 -187.5 464.5t-457.5 192.5q-262 0 -451.5 -195.5t-189.5 -459.5z M541 1100v55h20q16 0 49 -2h49q20 0 84 2h105q276 0 276 -203q0 -170 -192 -219q68 -102 233 -332q37 -6 43 -6v-55h-94q-49 0 -68.5 8t-41.5 41q-45 66 -101 156q-47 88 -139 235h39q180 0 180 158q0 143 -172 143q-33 0 -82 -4q-4 -35 -4 -106v-439q0 -88 2 -133 q14 -6 29 -6h22v-53h-194q10 170 10 405q0 188 -6 326q-18 29 -27 29h-20z" />
<glyph unicode="&#xaf;" horiz-adv-x="550" d="M4 1192v129h541v-129h-541z" />
<glyph unicode="&#xb0;" horiz-adv-x="673" d="M47 1155q0 121 85 206t206 85q119 0 203 -85t84 -206q0 -119 -84 -204t-205 -85t-205 84t-84 205zM156 1155q0 -76 53 -128t129 -52t128 52t52 128t-53 129t-127 53q-76 0 -129 -53t-53 -129z" />
<glyph unicode="&#xb1;" horiz-adv-x="1673" d="M236 -14h1202v-136h-1202v136zM236 600v135h534v436h135v-436h533v-135h-533v-436h-135v436h-534z" />
<glyph unicode="&#xb2;" horiz-adv-x="761" d="M82 535v59q203 201 250 256q145 174 145 305q0 158 -131 158q-96 0 -149 -62q-29 -37 -70 -137v197q84 96 252 96q121 0 192.5 -66.5t71.5 -181.5q0 -186 -391 -518h110q90 0 220 8q2 6 2 64h67q0 -65 2 -178q-199 2 -286 2q-84 0 -285 -2z" />
<glyph unicode="&#xb3;" horiz-adv-x="761" d="M92 586v162q98 -143 215 -144q158 0 158 180q0 70 -40 115t-97 45q-53 0 -107 -10v104q41 -6 64 -6q141 0 141 148q0 63 -33 100t-80 37q-92 0 -137 -45q-35 -35 -65 -123v182q84 74 219 74q115 0 185.5 -59.5t70.5 -161.5q0 -117 -109 -185q154 -44 154 -208 q0 -133 -91 -206t-241 -73q-117 0 -207 74z" />
<glyph unicode="&#xb4;" horiz-adv-x="550" d="M43 1104l313 323q61 63 107 64q92 0 92 -90q0 -55 -70 -96l-344 -201h-98z" />
<glyph unicode="&#xb6;" horiz-adv-x="1013" d="M72 1038q0 160 109.5 258.5t291.5 98.5h469v-107h-125v-1495h-119v1495h-141v-1495h-121v889q-168 12 -266 109.5t-98 246.5z" />
<glyph unicode="&#xb7;" horiz-adv-x="565" d="M162 678q0 49 34.5 85t86.5 36q49 0 84.5 -36t35.5 -85q0 -51 -34.5 -86t-85.5 -35t-86 35t-35 86z" />
<glyph unicode="&#xb8;" horiz-adv-x="550" d="M8 -356l43 69q88 -49 215 -49q53 0 86 31t33 67q0 76 -115 76q-23 0 -75 -10l81 211h60l-47 -117q20 2 39 2q92 0 147 -42t55 -120q0 -88 -69.5 -138t-175.5 -50q-98 0 -166 20q-35 10 -111 50z" />
<glyph unicode="&#xb9;" horiz-adv-x="761" d="M160 1268q152 55 334 155q-12 -266 -13 -456q0 -78 6 -441l-155 2q10 258 10 439q0 184 -2 303q-61 -45 -178 -107z" />
<glyph unicode="&#xba;" horiz-adv-x="833" d="M88 1047q0 150 94 244.5t236 94.5q145 0 236 -93.5t91 -245.5t-92 -245t-235 -93q-145 0 -237.5 91t-92.5 247zM94 479v99h645v-99h-645zM246 1049q0 -264 172 -265q170 0 170 254q0 272 -172 273q-170 0 -170 -262z" />
<glyph unicode="&#xbb;" horiz-adv-x="880" d="M80 90l205 397l-205 396l45 82l344 -478l-344 -477zM436 92l203 395l-203 396l41 82l346 -478l-346 -477z" />
<glyph unicode="&#xbc;" horiz-adv-x="1775" d="M139 1268q152 55 334 155q-12 -266 -12 -456q0 -78 6 -441l-156 2q10 258 11 439q0 184 -3 303q-61 -45 -178 -107zM356 -57l836 1489h129l-832 -1489h-133zM1065 236v55q127 170 395 575h121q-8 -127 -8 -389v-71v-76q63 0 76 2q22 6 65 39l-24 -131h-117v-60 q0 -37 0 -35q0 -78 6 -147h-156q8 141 9 147v41v52q-98 2 -156 2q-88 0 -211 -4zM1200 332h234v340z" />
<glyph unicode="&#xbd;" horiz-adv-x="1775" d="M139 1268q152 55 334 155q-12 -266 -12 -456q0 -78 6 -441l-156 2q10 258 11 439q0 184 -3 303q-61 -45 -178 -107zM356 -57l836 1489h129l-832 -1489h-133zM1094 -2v61q205 199 249 254q147 176 148 305q0 160 -133 160q-94 0 -148 -63q-31 -35 -71 -137v196 q86 96 252 96q121 0 192.5 -66.5t71.5 -180.5q0 -117 -133 -281q-102 -123 -246 -236h98q90 0 221 9v61h68q0 -65 2 -178q-199 2 -287 2q-82 0 -284 -2z" />
<glyph unicode="&#xbe;" horiz-adv-x="1777" d="M92 586v162q98 -143 215 -144q158 0 158 180q0 70 -40 115t-97 45q-53 0 -107 -10v104q41 -6 64 -6q141 0 141 148q0 63 -33 100t-80 37q-92 0 -137 -45q-35 -35 -65 -123v182q84 74 219 74q115 0 185.5 -59.5t70.5 -161.5q0 -117 -109 -185q154 -44 154 -208 q0 -133 -91 -206t-241 -73q-117 0 -207 74zM403 -57l836 1489h129l-831 -1489h-134zM1085 236v55q127 170 396 575h121q-8 -127 -9 -389v-71v-76h13q55 0 71.5 5t57.5 36l-25 -131h-117v-60q0 -37 0 -35q0 -78 6 -147h-155q8 141 8 147v41v52q-98 2 -156 2q-88 0 -211 -4z M1223 332h231v342z" />
<glyph unicode="&#xbf;" horiz-adv-x="808" d="M123 283q0 141 158 270l94 78q72 59 92 86q29 35 29 80q0 80 -33 137q-25 35 -47 70l73 12q55 -57 113 -115q66 -76 66 -141q0 -68 -37 -115q-18 -23 -103 -98l-116 -103q-96 -84 -97 -196q0 -72 45.5 -115t116.5 -43q94 0 160 60q20 41 20 126h64q0 -39 -2 -106v-107 q-139 -84 -262 -83q-145 0 -239.5 81.5t-94.5 221.5zM334 1290q0 53 39 93t94 40t94 -39t39 -94t-39 -94t-94 -39t-94 39t-39 94z" />
<glyph unicode="&#xc0;" horiz-adv-x="1341" d="M20 -2q139 274 586 1366h90q172 -430 533 -1288q20 -16 63 -17h19v-59h-281q-86 266 -182 494q-74 2 -232 2q-156 0 -229 -2q-100 -231 -164 -433q12 -2 35 -2h21v-61h-259zM342 1765q0 88 92 88q45 0 107 -63l313 -324h-98l-344 203q-70 39 -70 96zM424 596l184 -4 q29 0 93.5 2t107.5 2q-66 176 -193 498q-61 -131 -192 -498z" />
<glyph unicode="&#xc1;" horiz-adv-x="1341" d="M20 -2q139 274 586 1366h90q172 -430 533 -1288q20 -16 63 -17h19v-59h-281q-86 266 -182 494q-74 2 -232 2q-156 0 -229 -2q-100 -231 -164 -433q12 -2 35 -2h21v-61h-259zM397 1466l314 324q61 63 106 63q92 0 92 -88q0 -57 -69 -96l-344 -203h-99zM424 596l184 -4 q29 0 93.5 2t107.5 2q-66 176 -193 498q-61 -131 -192 -498z" />
<glyph unicode="&#xc2;" horiz-adv-x="1341" d="M20 -2q139 274 586 1366h90q172 -430 533 -1288q20 -16 63 -17h19v-59h-281q-86 266 -182 494q-74 2 -232 2q-156 0 -229 -2q-100 -231 -164 -433q12 -2 35 -2h21v-61h-259zM332 1466l250 336q27 41 69 41q43 0 68 -41l250 -336h-101l-217 197l-219 -197h-100zM424 596 l184 -4q29 0 93.5 2t107.5 2q-66 176 -193 498q-61 -131 -192 -498z" />
<glyph unicode="&#xc3;" horiz-adv-x="1341" d="M20 -2q139 274 586 1366h90q172 -430 533 -1288q20 -16 63 -17h19v-59h-281q-86 266 -182 494q-74 2 -232 2q-156 0 -229 -2q-100 -231 -164 -433q12 -2 35 -2h21v-61h-259zM311 1479q29 111 62 153q51 68 151 68q43 0 139.5 -43t127.5 -43q49 0 77 92h88 q-20 -104 -55 -152q-49 -66 -149 -65q-45 0 -141.5 42t-131.5 42q-51 0 -80 -96zM424 596l184 -4q29 0 93.5 2t107.5 2q-66 176 -193 498q-61 -131 -192 -498z" />
<glyph unicode="&#xc4;" horiz-adv-x="1341" d="M20 -2q139 274 586 1366h90q172 -430 533 -1288q20 -16 63 -17h19v-59h-281q-86 266 -182 494q-74 2 -232 2q-156 0 -229 -2q-100 -231 -164 -433q12 -2 35 -2h21v-61h-259zM362 1595q0 45 34 81t81 36t82 -36t35 -81q0 -51 -34 -84.5t-83 -33.5t-82 33.5t-33 84.5z M424 596l184 -4q29 0 93.5 2t107.5 2q-66 176 -193 498q-61 -131 -192 -498zM702 1595q0 45 35 81t82 36t81 -36t34 -81q0 -51 -33 -84.5t-82 -33.5t-83 33.5t-34 84.5z" />
<glyph unicode="&#xc5;" horiz-adv-x="1341" d="M20 -2q139 274 586 1366h90q172 -430 533 -1288q20 -16 63 -17h19v-59h-281q-86 266 -182 494q-74 2 -232 2q-156 0 -229 -2q-100 -231 -164 -433q12 -2 35 -2h21v-61h-259zM424 596l184 -4q29 0 93.5 2t107.5 2q-66 176 -193 498q-61 -131 -192 -498zM446 1665 q0 90 59.5 148.5t149.5 58.5q92 0 151.5 -56.5t59.5 -146.5q0 -94 -61.5 -152.5t-153.5 -58.5q-88 0 -146.5 60.5t-58.5 146.5zM549 1663q0 -133 104 -133q107 0 107 141q0 131 -105 131q-106 0 -106 -139z" />
<glyph unicode="&#xc6;" horiz-adv-x="1640" d="M-20 -2q434 858 659 1395l883 2v-199h-62q0 63 -22 78q-203 16 -430 16h-27q-4 -225 -4 -440v-68l496 11v-121q-285 12 -498 12v-72q0 -135 4 -508h31q209 0 460 19q18 14 19 76h63q0 -39 -2 -103v-98q-127 4 -358 4q-281 0 -430 -4q14 215 16 510q-84 4 -151 4 q-160 0 -238 -4q-51 -109 -100 -217q-59 -133 -90 -228q12 -2 37 -2h18v-63h-274zM428 614l190 -4q29 0 71 2t89 2v97q0 313 -8 538l-2 51h-43q-129 -315 -297 -686z" />
<glyph unicode="&#xc7;" horiz-adv-x="1314" d="M96 694q0 326 191.5 525.5t529.5 199.5q244 0 410 -104l2 -250h-62v20q0 25 -20 70q-117 172 -336 172q-229 0 -354 -178q-121 -168 -121 -457t137 -450q131 -160 361 -160q218 0 415 219l-2 -168q-188 -160 -438 -160q-45 0 -88 2l-23 -53q20 2 39 2q92 0 147.5 -42 t55.5 -120q0 -88 -69.5 -138t-176.5 -50q-98 0 -166 20q-35 10 -110 50l43 69q88 -49 215 -49q53 0 86 31t33 67q0 76 -115 76q-23 0 -76 -10l60 154q-567 76 -568 712z" />
<glyph unicode="&#xc8;" horiz-adv-x="1067" d="M113 1292v60h811v-191h-62q0 61 -20 76q-197 14 -418 14h-25q-4 -217 -4 -428v-65l479 12l3 -119q-279 12 -484 13v-70q0 -131 4 -492h29q203 0 448 17q18 14 19 74h59q0 -68 -2 -195h-764q16 256 17 692q0 557 -13.5 579.5t-56.5 22.5h-20zM236 1765q0 88 90 88 q47 0 108 -63l314 -324h-99l-344 203q-70 39 -69 96z" />
<glyph unicode="&#xc9;" horiz-adv-x="1067" d="M113 1292v60h811v-191h-62q0 61 -20 76q-197 14 -418 14h-25q-4 -217 -4 -428v-65l479 12l3 -119q-279 12 -484 13v-70q0 -131 4 -492h29q203 0 448 17q18 14 19 74h59q0 -68 -2 -195h-764q16 256 17 692q0 557 -13.5 579.5t-56.5 22.5h-20zM311 1466l314 324 q61 63 106 63q92 0 92 -88q0 -57 -69 -96l-344 -203h-99z" />
<glyph unicode="&#xca;" horiz-adv-x="1067" d="M113 1292v60h811v-191h-62q0 61 -20 76q-197 14 -418 14h-25q-4 -217 -4 -428v-65l479 12l3 -119q-279 12 -484 13v-70q0 -131 4 -492h29q203 0 448 17q18 14 19 74h59q0 -68 -2 -195h-764q16 256 17 692q0 557 -13.5 579.5t-56.5 22.5h-20zM221 1466l250 336 q27 41 70 41q41 0 67 -41l250 -336h-100l-219 197l-217 -197h-101z" />
<glyph unicode="&#xcb;" horiz-adv-x="1067" d="M113 1292v60h811v-191h-62q0 61 -20 76q-197 14 -418 14h-25q-4 -217 -4 -428v-65l479 12l3 -119q-279 12 -484 13v-70q0 -131 4 -492h29q203 0 448 17q18 14 19 74h59q0 -68 -2 -195h-764q16 256 17 692q0 557 -13.5 579.5t-56.5 22.5h-20zM254 1595q0 45 34 81t81 36 t81.5 -36t34.5 -81q0 -51 -33.5 -84.5t-82.5 -33.5t-82 33.5t-33 84.5zM592 1595q0 45 36 81t83 36t80.5 -36t33.5 -81q0 -51 -33.5 -84.5t-80.5 -33.5q-49 0 -84 33.5t-35 84.5z" />
<glyph unicode="&#xcc;" horiz-adv-x="604" d="M14 1765q0 88 92 88q45 0 107 -63l313 -324h-98l-344 203q-70 39 -70 96zM109 1292v60h292q-14 -281 -14 -631q0 -516 4 -629q10 -33 70 -33h14v-59h-295q18 281 19 727q0 360 -9 533q-8 33 -63 32h-18z" />
<glyph unicode="&#xcd;" horiz-adv-x="604" d="M47 1466l311 324q61 63 109 63q90 0 90 -88q0 -57 -68 -96l-346 -203h-96zM109 1292v60h292q-14 -281 -14 -631q0 -516 4 -629q10 -33 70 -33h14v-59h-295q18 281 19 727q0 360 -9 533q-8 33 -63 32h-18z" />
<glyph unicode="&#xce;" horiz-adv-x="604" d="M-16 1466l239 336q25 41 66 41q39 0 63 -41l238 -336h-94l-209 197l-207 -197h-96zM109 1292v60h292q-14 -281 -14 -631q0 -516 4 -629q10 -33 70 -33h14v-59h-295q18 281 19 727q0 360 -9 533q-8 33 -63 32h-18z" />
<glyph unicode="&#xcf;" horiz-adv-x="604" d="M-2 1575q0 45 34 81t81 36t82.5 -36t35.5 -81q0 -51 -34.5 -85t-83.5 -34q-47 0 -81 34t-34 85zM109 1292v60h292q-14 -281 -14 -631q0 -516 4 -629q10 -33 70 -33h14v-59h-295q18 281 19 727q0 360 -9 533q-8 33 -63 32h-18zM338 1575q0 45 35 81t82 36t80.5 -36 t33.5 -81q0 -51 -32.5 -85t-81.5 -34t-83 34t-34 85z" />
<glyph unicode="&#xd0;" horiz-adv-x="1474" d="M-27 694v92h211q0 326 -4 519q-14 27 -61 26h-21v64q102 0 277 2q168 4 274 4q737 0 737 -670q0 -348 -206.5 -542.5t-595.5 -194.5q-45 0 -111.5 4t-116.5 4q4 0 -180 -4q8 233 8 696h-211zM381 694q0 -322 8 -592q113 -8 127 -8q342 0 498 158q143 150 143 457 q0 322 -137 460q-133 131 -434 131q-68 0 -199 -8q-6 -252 -6 -506h317v-92h-317z" />
<glyph unicode="&#xd1;" horiz-adv-x="1501" d="M106 0v59h19q45 0 59 25q20 506 21 1069v203h86q453 -524 899 -975q2 84 2 133q0 727 -16 756q-12 23 -58 22h-18v60l311 2v-62h-18q-45 0 -60 -24q-12 -420 -12 -838q0 -143 4 -436h-74q-133 164 -479 536l-432 467q-4 -127 -4 -215q0 -274 12 -698q14 -25 58 -25h20 v-59h-320zM436 1479q29 111 62 153q51 68 151 68q43 0 139.5 -43t126.5 -43q49 0 76 92h90q-20 -104 -55 -152q-49 -66 -149 -65q-45 0 -141.5 42t-131.5 42q-51 0 -80 -96z" />
<glyph unicode="&#xd2;" horiz-adv-x="1667" d="M98 672q0 322 192.5 513t522.5 191q334 0 522.5 -189t188.5 -515q0 -315 -192.5 -508t-518.5 -193q-338 0 -526.5 187.5t-188.5 513.5zM326 668q0 -285 129 -442.5t358 -157.5q225 0 355 159.5t130 446.5q0 293 -128 450.5t-357 157.5q-219 0 -353 -164t-134 -450z M502 1765q0 88 92 88q45 0 106 -63l314 -324h-99l-344 203q-70 39 -69 96z" />
<glyph unicode="&#xd3;" horiz-adv-x="1667" d="M98 672q0 322 192.5 513t522.5 191q334 0 522.5 -189t188.5 -515q0 -315 -192.5 -508t-518.5 -193q-338 0 -526.5 187.5t-188.5 513.5zM326 668q0 -285 129 -442.5t358 -157.5q225 0 355 159.5t130 446.5q0 293 -128 450.5t-357 157.5q-219 0 -353 -164t-134 -450z M596 1468l311 324q61 63 109 63q90 0 90 -90q0 -55 -68 -96l-346 -201h-96z" />
<glyph unicode="&#xd4;" horiz-adv-x="1667" d="M98 672q0 322 192.5 513t522.5 191q334 0 522.5 -189t188.5 -515q0 -315 -192.5 -508t-518.5 -193q-338 0 -526.5 187.5t-188.5 513.5zM326 668q0 -285 129 -442.5t358 -157.5q225 0 355 159.5t130 446.5q0 293 -128 450.5t-357 157.5q-219 0 -353 -164t-134 -450z M492 1466l249 336q27 41 70 41t68 -41l249 -336h-100l-217 197l-219 -197h-100z" />
<glyph unicode="&#xd5;" horiz-adv-x="1667" d="M98 672q0 322 192.5 513t522.5 191q334 0 522.5 -189t188.5 -515q0 -315 -192.5 -508t-518.5 -193q-338 0 -526.5 187.5t-188.5 513.5zM326 668q0 -285 129 -442.5t358 -157.5q225 0 355 159.5t130 446.5q0 293 -128 450.5t-357 157.5q-219 0 -353 -164t-134 -450z M487 1479q29 111 62 153q51 68 153 68q43 0 138.5 -43t126.5 -43q49 0 77 92h91q-23 -104 -58 -152q-49 -66 -149 -65q-45 0 -141.5 42t-131.5 42q-51 0 -80 -96z" />
<glyph unicode="&#xd6;" horiz-adv-x="1667" d="M98 672q0 322 192.5 513t522.5 191q334 0 522.5 -189t188.5 -515q0 -315 -192.5 -508t-518.5 -193q-338 0 -526.5 187.5t-188.5 513.5zM326 668q0 -285 129 -442.5t358 -157.5q225 0 355 159.5t130 446.5q0 293 -128 450.5t-357 157.5q-219 0 -353 -164t-134 -450z M526 1575q0 45 34 81t81 36t82 -36t35 -81q0 -51 -34 -85t-83 -34q-47 0 -81 34t-34 85zM866 1575q0 45 35 81t82 36t81 -36t34 -81q0 -51 -33 -85t-82 -34t-83 34t-34 85z" />
<glyph unicode="&#xd7;" horiz-adv-x="1724" d="M287 147l481 482l-481 481l98 98l481 -481l480 481l100 -98l-481 -481l481 -482l-100 -98l-480 481l-481 -481z" />
<glyph unicode="&#xd8;" horiz-adv-x="1667" d="M98 692q0 332 199 528.5t537 196.5q178 0 319 -53l78 129h131l-111 -178q318 -187 318 -623q0 -324 -200 -522.5t-535 -198.5q-207 0 -363 70l-92 -152h-133l131 209q-279 190 -279 594zM332 688q0 -293 131 -450l620 1013q-131 70 -249 70q-225 0 -361 -166 q-141 -172 -141 -467zM545 164q139 -94 289 -94q236 0 369.5 164.5t133.5 459.5q0 336 -163 494z" />
<glyph unicode="&#xd9;" horiz-adv-x="1509" d="M123 1290v62h280l-8 -717q0 -291 72 -406q84 -135 321 -135q205 0 293 131q72 106 82 332q4 92 4 377q0 326 -10 338q-16 20 -57 20h-19v60h324v-64h-21q-55 0 -63 -33q-6 -174 -6 -323q0 -37 2 -115v-119q0 -344 -86 -499q-127 -225 -473 -226q-559 0 -559 598 q0 53 4 349q2 211 -2 348q-12 23 -58 22h-20zM442 1765q0 88 93 88q47 0 108 -63l311 -324h-98l-344 203q-70 39 -70 96z" />
<glyph unicode="&#xda;" horiz-adv-x="1509" d="M123 1290v62h280l-8 -717q0 -291 72 -406q84 -135 321 -135q205 0 293 131q72 106 82 332q4 92 4 377q0 326 -10 338q-16 20 -57 20h-19v60h324v-64h-21q-55 0 -63 -33q-6 -174 -6 -323q0 -37 2 -115v-119q0 -344 -86 -499q-127 -225 -473 -226q-559 0 -559 598 q0 53 4 349q2 211 -2 348q-12 23 -58 22h-20zM551 1466l311 324q61 63 109 63q90 0 90 -88q0 -57 -68 -96l-346 -203h-96z" />
<glyph unicode="&#xdb;" horiz-adv-x="1509" d="M123 1290v62h280l-8 -717q0 -291 72 -406q84 -135 321 -135q205 0 293 131q72 106 82 332q4 92 4 377q0 326 -10 338q-16 20 -57 20h-19v60h324v-64h-21q-55 0 -63 -33q-6 -174 -6 -323q0 -37 2 -115v-119q0 -344 -86 -499q-127 -225 -473 -226q-559 0 -559 598 q0 53 4 349q2 211 -2 348q-12 23 -58 22h-20zM442 1466l252 336q25 41 70 41q41 0 65 -41l252 -336h-100l-219 197l-219 -197h-101z" />
<glyph unicode="&#xdc;" horiz-adv-x="1509" d="M123 1290v62h280l-8 -717q0 -291 72 -406q84 -135 321 -135q205 0 293 131q72 106 82 332q4 92 4 377q0 326 -10 338q-16 20 -57 20h-19v60h324v-64h-21q-55 0 -63 -33q-6 -174 -6 -323q0 -37 2 -115v-119q0 -344 -86 -499q-127 -225 -473 -226q-559 0 -559 598 q0 53 4 349q2 211 -2 348q-12 23 -58 22h-20zM492 1575q0 45 34.5 81t81.5 36q45 0 81 -36t36 -81q0 -51 -35 -85t-82 -34q-49 0 -82.5 34t-33.5 85zM831 1575q0 45 35 81t82 36t81 -36t34 -81q0 -51 -33 -85t-82 -34t-83 34t-34 85z" />
<glyph unicode="&#xdd;" horiz-adv-x="1167" d="M-4 1331v64h270q154 -348 379 -688q98 162 311 618q-14 6 -41 6h-20v64h283q-203 -328 -471 -815q-4 -133 -5 -185q0 -147 9 -309q14 -25 59 -25h21v-61h-297q12 205 12 303q0 119 -10 264q-252 434 -447 760q-12 4 -33 4h-20zM367 1501l313 322q61 66 106 65 q93 0 93 -90q0 -55 -70 -96l-344 -201h-98z" />
<glyph unicode="&#xde;" horiz-adv-x="1206" d="M90 1329v64h299q0 -2 -4 -185q141 10 217 11q233 0 373 -121q131 -117 131 -297q0 -203 -147.5 -327t-405.5 -124q-92 0 -172 12v-43q0 -86 8 -231q12 -27 60 -27h20v-61l-297 -2q12 352 12 512q0 553 -10 786q-8 33 -65 33h-19zM377 449q90 -10 110 -11q188 0 297 101 q101 96 101 243q0 154 -101 246q-106 94 -292 94q-25 0 -105 -6q-10 -205 -10 -452v-215z" />
<glyph unicode="&#xdf;" horiz-adv-x="1163" d="M111 0v61h20q45 0 59 25q4 94 5 346l-2 629q0 217 110.5 342t304.5 125q141 0 225.5 -64.5t84.5 -177.5q0 -106 -113 -236t-113 -188q0 -59 111 -137q43 -29 121 -84q174 -124 174 -276q0 -170 -92 -271q-106 -115 -308 -114q-121 0 -190 59v213h63v-21q0 -156 156 -155 q94 0 150 63q53 57 53 142q0 96 -105 188q-20 18 -182 133q-127 90 -127 193q0 86 127 224t127 243q0 82 -46 130t-122 48q-152 0 -192 -154q-33 -119 -33 -534v-72q0 -449 16 -680h-282z" />
<glyph unicode="&#xe0;" horiz-adv-x="1017" d="M88 244q0 129 78 198q59 53 180 82q104 20 209 41q80 16 109 39v31q0 276 -201 276q-90 0 -158.5 -70.5t-93.5 -164.5h-59v192q143 121 364 121q176 0 253 -86t77 -266v-438q0 -82 6 -101q12 -37 61 -37h21v-61h-248l-20 104q-135 -123 -283 -122q-139 0 -217 68.5 t-78 193.5zM205 1401q0 90 92 90q45 0 106 -64l314 -323h-99l-344 201q-70 41 -69 96zM289 250q0 -168 166 -168q76 0 178 102q26 27 26 72v254q-201 -35 -285.5 -96.5t-84.5 -163.5z" />
<glyph unicode="&#xe1;" horiz-adv-x="1017" d="M88 244q0 129 78 198q59 53 180 82q104 20 209 41q80 16 109 39v31q0 276 -201 276q-90 0 -158.5 -70.5t-93.5 -164.5h-59v192q143 121 364 121q176 0 253 -86t77 -266v-438q0 -82 6 -101q12 -37 61 -37h21v-61h-248l-20 104q-135 -123 -283 -122q-139 0 -217 68.5 t-78 193.5zM260 1104l313 323q61 63 107 64q92 0 92 -90q0 -55 -70 -96l-344 -201h-98zM289 250q0 -168 166 -168q76 0 178 102q26 27 26 72v254q-201 -35 -285.5 -96.5t-84.5 -163.5z" />
<glyph unicode="&#xe2;" horiz-adv-x="1017" d="M88 244q0 129 78 198q59 53 180 82q104 20 209 41q80 16 109 39v31q0 276 -201 276q-90 0 -158.5 -70.5t-93.5 -164.5h-59v192q143 121 364 121q176 0 253 -86t77 -266v-438q0 -82 6 -101q12 -37 61 -37h21v-61h-248l-20 104q-135 -123 -283 -122q-139 0 -217 68.5 t-78 193.5zM174 1104l250 336q27 41 70 41t67 -41l250 -336h-100l-217 194l-220 -194h-100zM289 250q0 -168 166 -168q76 0 178 102q26 27 26 72v254q-201 -35 -285.5 -96.5t-84.5 -163.5z" />
<glyph unicode="&#xe3;" horiz-adv-x="1017" d="M88 244q0 129 78 198q59 53 180 82q104 20 209 41q80 16 109 39v31q0 276 -201 276q-90 0 -158.5 -70.5t-93.5 -164.5h-59v192q143 121 364 121q176 0 253 -86t77 -266v-438q0 -82 6 -101q12 -37 61 -37h21v-61h-248l-20 104q-135 -123 -283 -122q-139 0 -217 68.5 t-78 193.5zM170 1176q29 111 61 155q51 68 152 68q43 0 139 -43t127 -43q49 0 78 90l88 2q-20 -106 -55 -152q-49 -66 -150 -65q-45 0 -141 42t-131 42q-51 0 -80 -98zM289 250q0 -168 166 -168q76 0 178 102q26 27 26 72v254q-201 -35 -285.5 -96.5t-84.5 -163.5z" />
<glyph unicode="&#xe4;" horiz-adv-x="1017" d="M88 244q0 129 78 198q59 53 180 82q104 20 209 41q80 16 109 39v31q0 276 -201 276q-90 0 -158.5 -70.5t-93.5 -164.5h-59v192q143 121 364 121q176 0 253 -86t77 -266v-438q0 -82 6 -101q12 -37 61 -37h21v-61h-248l-20 104q-135 -123 -283 -122q-139 0 -217 68.5 t-78 193.5zM207 1272q0 47 33.5 82t81.5 35q47 0 81.5 -35t34.5 -82q0 -49 -33.5 -83t-82.5 -34t-82 34t-33 83zM289 250q0 -168 166 -168q76 0 178 102q26 27 26 72v254q-201 -35 -285.5 -96.5t-84.5 -163.5zM547 1272q0 47 34.5 82t82.5 35q47 0 80.5 -35t33.5 -82 q0 -49 -32.5 -83t-81.5 -34t-83 34t-34 83z" />
<glyph unicode="&#xe5;" horiz-adv-x="1017" d="M88 244q0 129 78 198q59 53 180 82q104 20 209 41q80 16 109 39v31q0 276 -201 276q-90 0 -158.5 -70.5t-93.5 -164.5h-59v192q143 121 364 121q176 0 253 -86t77 -266v-438q0 -82 6 -101q12 -37 61 -37h21v-61h-248l-20 104q-135 -123 -283 -122q-139 0 -217 68.5 t-78 193.5zM277 1337q0 90 59 148.5t149 58.5q92 0 151.5 -56.5t59.5 -146.5q0 -94 -61 -152.5t-154 -58.5q-88 0 -146 60.5t-58 146.5zM289 250q0 -168 166 -168q76 0 178 102q26 27 26 72v254q-201 -35 -285.5 -96.5t-84.5 -163.5zM379 1335q0 -133 104 -133 q107 0 107 141q0 131 -105 132q-106 0 -106 -140z" />
<glyph unicode="&#xe6;" horiz-adv-x="1603" d="M82 246q0 127 76 196q61 55 182 84q102 20 207 39q82 18 110 39v33q0 276 -200 276q-92 0 -164 -75q-66 -66 -88 -162h-60v194q145 121 363 121q213 0 287 -131q129 131 335 131q193 0 304 -125q106 -117 106 -297q0 -10 -2 -28v-29h-672v-33q0 -184 80 -291 q84 -113 232 -112q102 0 175.5 49t73.5 113v20h66v-178q-139 -102 -350 -103q-266 0 -406 203q-109 -199 -362 -198q-139 0 -216 69.5t-77 194.5zM285 250q0 -168 166 -168q63 0 129 59q75 68 75 156v213q-201 -35 -285.5 -96.5t-84.5 -163.5zM655 502zM870 600h471 q-8 311 -219 311q-94 0 -169.5 -95t-82.5 -216z" />
<glyph unicode="&#xe7;" horiz-adv-x="972" d="M84 481q0 231 134 369.5t364 138.5q184 0 309 -80v-198h-66v22q0 63 -53 115q-63 57 -164 57q-145 0 -230 -112.5t-85 -309.5q0 -188 93 -304t239 -116q88 0 155 60q61 55 62 115v18h61v-180q-129 -100 -342 -101h-45l-22 -53q20 2 38 2q92 0 147.5 -42t55.5 -120 q0 -88 -69.5 -138t-176.5 -50q-98 0 -165 20q-35 10 -111 50l43 69q88 -49 215 -49q53 0 86 31t33 67q0 76 -115 76q-23 0 -76 -10l60 156q-172 33 -273.5 165t-101.5 332z" />
<glyph unicode="&#xe8;" horiz-adv-x="1032" d="M84 481q0 229 129 368.5t346 139.5q195 0 301.5 -112.5t106.5 -307.5v-30q-2 -18 -2 -29h-672v-31q0 -184 80 -291q86 -113 233 -112q100 0 175 49t75 113v20h66v-178q-141 -102 -351 -103q-219 0 -353 140.5t-134 363.5zM246 1401q0 90 90 90q47 0 108 -64l312 -323h-97 l-346 201q-68 41 -67 96zM297 600h471q0 131 -47 213q-55 96 -170 96q-100 0 -176 -84q-78 -90 -78 -225z" />
<glyph unicode="&#xe9;" horiz-adv-x="1032" d="M84 481q0 229 129 368.5t346 139.5q195 0 301.5 -112.5t106.5 -307.5v-30q-2 -18 -2 -29h-672v-31q0 -184 80 -291q86 -113 233 -112q100 0 175 49t75 113v20h66v-178q-141 -102 -351 -103q-219 0 -353 140.5t-134 363.5zM297 600h471q0 131 -47 213q-55 96 -170 96 q-100 0 -176 -84q-78 -90 -78 -225zM305 1104l313 323q61 63 107 64q92 0 92 -90q0 -55 -69 -96l-345 -201h-98z" />
<glyph unicode="&#xea;" horiz-adv-x="1032" d="M84 481q0 229 129 368.5t346 139.5q195 0 301.5 -112.5t106.5 -307.5v-30q-2 -18 -2 -29h-672v-31q0 -184 80 -291q86 -113 233 -112q100 0 175 49t75 113v20h66v-178q-141 -102 -351 -103q-219 0 -353 140.5t-134 363.5zM217 1104l252 336q27 41 70 41q41 0 65 -41 l252 -336h-100l-219 194l-220 -194h-100zM297 600h471q0 131 -47 213q-55 96 -170 96q-100 0 -176 -84q-78 -90 -78 -225z" />
<glyph unicode="&#xeb;" horiz-adv-x="1032" d="M84 481q0 229 129 368.5t346 139.5q195 0 301.5 -112.5t106.5 -307.5v-30q-2 -18 -2 -29h-672v-31q0 -184 80 -291q86 -113 233 -112q100 0 175 49t75 113v20h66v-178q-141 -102 -351 -103q-219 0 -353 140.5t-134 363.5zM252 1272q0 47 33.5 82t81.5 35q47 0 81.5 -35 t34.5 -82q0 -49 -33.5 -83t-82.5 -34t-82 34t-33 83zM297 600h471q0 131 -47 213q-55 96 -170 96q-100 0 -176 -84q-78 -90 -78 -225zM590 1272q0 47 36 82t83 35q45 0 79.5 -35t34.5 -82q0 -49 -33.5 -83t-80.5 -34q-49 0 -84 34t-35 83z" />
<glyph unicode="&#xec;" horiz-adv-x="550" d="M25 1401q0 90 86 90q43 0 98 -66l291 -327h-90l-320 205q-66 41 -65 98zM102 903v62h279q-10 -266 -10 -455q0 -201 6 -416q10 -31 65 -31h19v-63h-17h-260q12 291 13 510q0 172 -7 346q-8 47 -67 47h-21z" />
<glyph unicode="&#xed;" horiz-adv-x="550" d="M25 1094l288 331q57 66 101 66q84 0 84 -92q0 -57 -64 -99l-319 -206h-90zM102 903v62h279q-10 -266 -10 -455q0 -201 6 -416q10 -31 65 -31h19v-63h-17h-260q12 291 13 510q0 172 -7 346q-8 47 -67 47h-21z" />
<glyph unicode="&#xee;" horiz-adv-x="550" d="M-12 1100l213 340q23 41 59 41q35 0 57 -41l213 -340h-86l-186 198l-186 -198h-84zM102 903v62h279q-10 -266 -10 -455q0 -201 6 -416q10 -31 65 -31h19v-63h-17h-260q12 291 13 510q0 172 -7 346q-8 47 -67 47h-21z" />
<glyph unicode="&#xef;" horiz-adv-x="550" d="M-27 1272q0 47 34 82t81 35t82 -35t35 -82q0 -49 -34 -83t-83 -34t-82 34t-33 83zM102 903v62h279q-10 -266 -10 -455q0 -201 6 -416q10 -31 65 -31h19v-63h-17h-260q12 291 13 510q0 172 -7 346q-8 47 -67 47h-21zM311 1272q0 47 36 82t83 35q45 0 80 -35t35 -82 q0 -49 -34 -83t-81 -34q-49 0 -84 34t-35 83z" />
<glyph unicode="&#xf0;" horiz-adv-x="1140" d="M84 475q0 231 133 369.5t352 138.5q68 0 137.5 -35t100.5 -78q-29 96 -101.5 216t-132.5 171q-76 -63 -174 -161l-61 78q51 37 170 137q-59 59 -211 139l96 72q76 -47 197 -144q31 33 129 127l67 -78q-35 -23 -133 -102q402 -387 402 -817q0 -238 -134.5 -383 t-351.5 -145q-221 0 -353 132t-132 363zM299 477q0 -406 270 -405q273 -1 273 405q0 236 -70 330q-61 84 -205 84q-268 0 -268 -414z" />
<glyph unicode="&#xf1;" horiz-adv-x="1183" d="M100 903v62h258q16 -127 17 -168q113 199 297 198q334 0 334 -374q0 -49 -2.5 -156t-2.5 -154q0 -35 3.5 -101.5t3.5 -100.5q0 -47 67 -48h21v-61h-19h-266q10 158 10 580q0 158 -35 219q-43 76 -163 75q-123 0 -189 -104q-57 -90 -57 -229v-172q0 -106 4 -258 q8 -47 68 -48h18v-63h-18h-267q12 168 13 344v301q0 92 -7 211q-4 47 -67 47h-21zM254 1176q29 111 61 155q51 68 152 68q43 0 139 -43t127 -43q49 0 76 90l90 2q-20 -106 -55 -152q-49 -66 -150 -65q-45 0 -141 42t-131 42q-51 0 -80 -98z" />
<glyph unicode="&#xf2;" horiz-adv-x="1148" d="M84 481q0 223 139 365.5t350 142.5q217 0 354.5 -141.5t137.5 -366.5q0 -227 -138.5 -366.5t-353.5 -139.5q-217 0 -353 136.5t-136 369.5zM252 1401q0 90 92 90q45 0 107 -64l313 -323h-98l-344 201q-70 41 -70 96zM293 483q0 -426 280 -426q135 0 209 106.5t74 305.5 q0 211 -73.5 323.5t-211.5 112.5q-279 0 -278 -422z" />
<glyph unicode="&#xf3;" horiz-adv-x="1148" d="M84 481q0 223 139 365.5t350 142.5q217 0 354.5 -141.5t137.5 -366.5q0 -227 -138.5 -366.5t-353.5 -139.5q-217 0 -353 136.5t-136 369.5zM293 483q0 -426 280 -426q135 0 209 106.5t74 305.5q0 211 -73.5 323.5t-211.5 112.5q-279 0 -278 -422zM371 1104l313 323 q61 63 107 64q92 0 92 -90q0 -55 -70 -96l-344 -201h-98z" />
<glyph unicode="&#xf4;" horiz-adv-x="1148" d="M84 481q0 223 139 365.5t350 142.5q217 0 354.5 -141.5t137.5 -366.5q0 -227 -138.5 -366.5t-353.5 -139.5q-217 0 -353 136.5t-136 369.5zM244 1104l250 336q27 41 69 41q43 0 68 -41l250 -336h-101l-217 194l-219 -194h-100zM293 483q0 -426 280 -426q135 0 209 106.5 t74 305.5q0 211 -73.5 323.5t-211.5 112.5q-279 0 -278 -422z" />
<glyph unicode="&#xf5;" horiz-adv-x="1148" d="M84 481q0 223 139 365.5t350 142.5q217 0 354.5 -141.5t137.5 -366.5q0 -227 -138.5 -366.5t-353.5 -139.5q-217 0 -353 136.5t-136 369.5zM244 1176q29 111 61 155q51 68 152 68q43 0 139 -43t127 -43q49 0 78 90l88 2q-20 -106 -55 -152q-49 -66 -150 -65 q-45 0 -141.5 42t-130.5 42q-51 0 -80 -98zM293 483q0 -426 280 -426q135 0 209 106.5t74 305.5q0 211 -73.5 323.5t-211.5 112.5q-279 0 -278 -422z" />
<glyph unicode="&#xf6;" horiz-adv-x="1148" d="M84 481q0 223 139 365.5t350 142.5q217 0 354.5 -141.5t137.5 -366.5q0 -227 -138.5 -366.5t-353.5 -139.5q-217 0 -353 136.5t-136 369.5zM285 1272q0 47 33.5 82t80.5 35t82 -35t35 -82q0 -49 -33.5 -83t-83.5 -34q-49 0 -81.5 34t-32.5 83zM293 483q0 -426 280 -426 q135 0 209 106.5t74 305.5q0 211 -73.5 323.5t-211.5 112.5q-279 0 -278 -422zM625 1272q0 47 34.5 82t81.5 35t81 -35t34 -82q0 -49 -32.5 -83t-82.5 -34q-49 0 -82.5 34t-33.5 83z" />
<glyph unicode="&#xf7;" horiz-adv-x="1673" d="M236 543v135h1202v-135h-1202zM715 268q0 51 36.5 87t86.5 36q51 0 87 -36t36 -87t-35 -87t-88 -36q-51 0 -87 36t-36 87zM715 950q0 51 36.5 89t86.5 38q51 0 87 -37t36 -90q0 -49 -35 -86t-88 -37t-88 36t-35 87z" />
<glyph unicode="&#xf8;" horiz-adv-x="1148" d="M84 481q0 223 140.5 365.5t350.5 142.5q123 0 236 -57l66 112h104l-96 -157q180 -144 180 -406q0 -227 -138.5 -366.5t-351.5 -139.5q-111 0 -217 45l-84 -143h-104l111 184q-197 135 -197 420zM289 483q0 -186 65 -303l398 660q-63 66 -179 65q-135 0 -209.5 -108.5 t-74.5 -313.5zM414 106q59 -49 161 -49q135 0 210 106.5t75 305.5q0 170 -55 289z" />
<glyph unicode="&#xf9;" horiz-adv-x="1155" d="M90 903v62h283q-14 -141 -19 -338v-113q2 -88 2 -119q0 -152 39 -219q47 -82 168 -82q242 0 242 422q0 39 -2 101.5t-2 84.5q0 115 -4 172q-10 29 -68 29h-18v62h278q-18 -457 -2 -881q14 -23 60 -23h18v-61h-244q-10 57 -20 160q-39 -78 -122 -130.5t-173 -52.5 q-162 0 -247 91.5t-85 255.5q0 532 -2 553q-14 27 -63 26h-19zM262 1401q0 90 92 90q45 0 107 -64l313 -323h-98l-344 201q-70 41 -70 96z" />
<glyph unicode="&#xfa;" horiz-adv-x="1155" d="M90 903v62h283q-14 -141 -19 -338v-113q2 -88 2 -119q0 -152 39 -219q47 -82 168 -82q242 0 242 422q0 39 -2 101.5t-2 84.5q0 115 -4 172q-10 29 -68 29h-18v62h278q-18 -457 -2 -881q14 -23 60 -23h18v-61h-244q-10 57 -20 160q-39 -78 -122 -130.5t-173 -52.5 q-162 0 -247 91.5t-85 255.5q0 532 -2 553q-14 27 -63 26h-19zM334 1104l313 323q61 63 107 64q92 0 92 -90q0 -55 -70 -96l-344 -201h-98z" />
<glyph unicode="&#xfb;" horiz-adv-x="1155" d="M90 903v62h283q-14 -141 -19 -338v-113q2 -88 2 -119q0 -152 39 -219q47 -82 168 -82q242 0 242 422q0 39 -2 101.5t-2 84.5q0 115 -4 172q-10 29 -68 29h-18v62h278q-18 -457 -2 -881q14 -23 60 -23h18v-61h-244q-10 57 -20 160q-39 -78 -122 -130.5t-173 -52.5 q-162 0 -247 91.5t-85 255.5q0 532 -2 553q-14 27 -63 26h-19zM242 1104l250 336q27 41 69 41q43 0 68 -41l250 -336h-101l-217 194l-219 -194h-100z" />
<glyph unicode="&#xfc;" horiz-adv-x="1155" d="M90 903v62h283q-14 -141 -19 -338v-113q2 -88 2 -119q0 -152 39 -219q47 -82 168 -82q242 0 242 422q0 39 -2 101.5t-2 84.5q0 115 -4 172q-10 29 -68 29h-18v62h278q-18 -457 -2 -881q14 -23 60 -23h18v-61h-244q-10 57 -20 160q-39 -78 -122 -130.5t-173 -52.5 q-162 0 -247 91.5t-85 255.5q0 532 -2 553q-14 27 -63 26h-19zM270 1272q0 47 34 82t81 35t82 -35t35 -82q0 -49 -34 -83t-83 -34t-82 34t-33 83zM610 1272q0 47 35 82t82 35t81 -35t34 -82q0 -49 -33 -83t-82 -34t-83 34t-34 83z" />
<glyph unicode="&#xfd;" horiz-adv-x="993" d="M0 903v62h266q49 -176 273 -725q133 305 137 315q72 178 117 340q-14 8 -43 8h-21v62h256q-88 -170 -201 -426l-266 -602q-74 -166 -100 -236q-53 -133 -82 -244h-193q133 227 240 469l43 99l-82 211q-55 147 -287 661q-12 6 -37 6h-20zM297 1104l313 323q61 63 107 64 q92 0 92 -90q0 -55 -70 -96l-344 -201h-98z" />
<glyph unicode="&#xfe;" horiz-adv-x="1165" d="M84 1462v64h281q-10 -197 -11 -680q123 158 310 158q421 0 421 -498q0 -236 -121.5 -378t-318.5 -142q-180 0 -287 127v-179q0 -47 9 -385q12 -31 63 -30h19v-62h-13h-268q6 184 6 844q0 1128 -10 1141q-16 20 -60 20h-20zM350 496q0 -414 260 -414q123 0 195 113.5 t72 316.5q0 188 -74 291q-70 96 -193 96q-119 0 -189.5 -105.5t-70.5 -297.5z" />
<glyph unicode="&#xff;" horiz-adv-x="993" d="M0 903v62h266q49 -176 273 -725q133 305 137 315q72 178 117 340q-14 8 -43 8h-21v62h256q-88 -170 -201 -426l-266 -602q-74 -166 -100 -236q-53 -133 -82 -244h-193q133 227 240 469l43 99l-82 211q-55 147 -287 661q-12 6 -37 6h-20zM193 1272q0 47 33.5 82t80.5 35 t83 -35t36 -82q0 -49 -35 -83t-84 -34q-47 0 -80.5 34t-33.5 83zM532 1272q0 47 35 82t82 35t81 -35t34 -82q0 -49 -33 -83t-82 -34t-83 34t-34 83z" />
<glyph unicode="&#x152;" horiz-adv-x="2029" d="M98 692q0 336 185.5 530.5t519.5 194.5q199 0 356 -119q-2 49 -2 97h754v-209h-62q0 63 -22 78q-203 16 -430 16h-27q-4 -225 -4 -430v-68l496 11v-121q-285 12 -498 12v-72q0 -125 4 -497h31q209 0 461 18q18 14 18 76h64q0 -39 -3 -107v-104q-127 4 -358 4 q-281 0 -430 -4q2 35 4 96q-158 -123 -352 -123q-342 0 -527 195q-178 188 -178 526zM332 688q0 -604 471 -604q236 0 360 172q4 176 4 455q0 193 -4 428q-123 168 -360 168q-223 0 -347 -161t-124 -458z" />
<glyph unicode="&#x153;" horiz-adv-x="1804" d="M84 481q0 223 140.5 365.5t350.5 142.5q242 0 381 -174q131 176 375 176q193 0 301.5 -118t108.5 -304q0 -8 -2 -18v-21v-18h-672v-33q0 -184 80 -291q84 -113 231 -112q102 0 176 49t74 113v20h66v-178q-139 -102 -351 -103q-246 0 -382 175q-139 -176 -386 -177 q-219 0 -352 134q-139 139 -139 372zM293 483q0 -426 282 -426q281 1 281 441q0 197 -75.5 302t-207.5 105q-281 0 -280 -422zM1071 600h471q-8 311 -219 311q-94 0 -170 -95t-82 -216z" />
<glyph unicode="&#x178;" horiz-adv-x="1167" d="M-4 1292v60h264q147 -336 367 -666q96 156 301 600q-14 6 -41 6h-19v60q230 0 275 2q-197 -319 -459 -791q-2 -131 -2 -180q0 -141 8 -299q12 -25 58 -25h18v-59h-287q12 199 13 293q0 117 -11 258q-244 422 -432 737q-12 4 -33 4h-20zM279 1595q0 45 33.5 81t80.5 36 t83 -36t36 -81q0 -51 -35 -84.5t-84 -33.5q-47 0 -80.5 33.5t-33.5 84.5zM618 1595q0 45 35 81t82 36t81 -36t34 -81q0 -51 -33 -84.5t-82 -33.5t-83 33.5t-34 84.5z" />
<glyph unicode="&#x2c6;" horiz-adv-x="550" d="M-43 1104l250 336q27 41 69 41q41 0 68 -41l250 -336h-100l-220 194l-217 -194h-100z" />
<glyph unicode="&#x2dc;" horiz-adv-x="550" d="M-43 1176q29 111 61 155q51 68 152 68q43 0 138 -43t126 -43q51 0 78 90l90 2q-20 -106 -55 -152q-49 -66 -150 -65q-45 0 -141 42t-133 42q-51 0 -78 -98z" />
<glyph unicode="&#x2000;" horiz-adv-x="944" />
<glyph unicode="&#x2001;" horiz-adv-x="1888" />
<glyph unicode="&#x2002;" horiz-adv-x="944" />
<glyph unicode="&#x2003;" horiz-adv-x="1888" />
<glyph unicode="&#x2004;" horiz-adv-x="629" />
<glyph unicode="&#x2005;" horiz-adv-x="472" />
<glyph unicode="&#x2006;" horiz-adv-x="314" />
<glyph unicode="&#x2007;" horiz-adv-x="314" />
<glyph unicode="&#x2008;" horiz-adv-x="236" />
<glyph unicode="&#x2009;" horiz-adv-x="377" />
<glyph unicode="&#x200a;" horiz-adv-x="104" />
<glyph unicode="&#x2010;" horiz-adv-x="702" d="M80 428v172h543v-172h-543z" />
<glyph unicode="&#x2011;" horiz-adv-x="702" d="M80 428v172h543v-172h-543z" />
<glyph unicode="&#x2012;" horiz-adv-x="702" d="M80 428v172h543v-172h-543z" />
<glyph unicode="&#x2013;" horiz-adv-x="1013" d="M-10 428v133h1032v-133h-1032z" />
<glyph unicode="&#x2014;" horiz-adv-x="2004" d="M-10 428v133h2025v-133h-2025z" />
<glyph unicode="&#x2018;" horiz-adv-x="563" d="M150 1108q0 180 227 424l65 -8q-76 -113 -90 -140q-41 -76 -41 -145q0 -31 49.5 -62.5t49.5 -91.5q0 -51 -41 -83.5t-97 -32.5q-55 0 -88.5 36.5t-33.5 102.5z" />
<glyph unicode="&#x2019;" horiz-adv-x="563" d="M137 989q78 113 92 139q41 76 41 146q0 31 -49 62.5t-49 90.5q0 51 41 84t96 33t89 -36.5t34 -102.5q0 -180 -227 -424z" />
<glyph unicode="&#x201a;" horiz-adv-x="581" d="M121 -326q78 113 92 140q41 76 41 145q0 31 -49 63.5t-49 90.5q0 51 41 84.5t96 33.5q53 0 87 -37.5t34 -103.5q0 -180 -226 -422z" />
<glyph unicode="&#x201c;" horiz-adv-x="886" d="M150 1108q0 180 227 424l65 -8q-76 -113 -90 -140q-41 -76 -41 -145q0 -31 49.5 -62.5t49.5 -91.5q0 -51 -41 -83.5t-97 -32.5q-55 0 -88.5 36.5t-33.5 102.5zM477 1108q0 180 228 424l65 -8q-76 -113 -90 -140q-41 -76 -41 -145q0 -31 49 -62.5t49 -91.5 q0 -51 -41 -83.5t-96 -32.5t-89 36.5t-34 102.5z" />
<glyph unicode="&#x201d;" horiz-adv-x="886" d="M150 975q78 113 92 139q41 76 41 146q0 31 -49.5 63.5t-49.5 89.5q0 51 41 85t97 34q53 0 86.5 -37.5t33.5 -103.5q0 -180 -225 -422zM481 975q78 113 92 139q41 76 41 146q0 31 -49 63.5t-49 89.5q0 51 41 85t96 34q53 0 87 -37.5t34 -103.5q0 -180 -225 -422z" />
<glyph unicode="&#x201e;" horiz-adv-x="886" d="M109 -326q78 113 92 140q41 76 41 145q0 31 -49.5 63.5t-49.5 90.5q0 51 41 84.5t97 33.5q53 0 86.5 -37.5t33.5 -103.5q0 -180 -225 -422zM440 -326q78 113 92 140q41 76 41 145q0 31 -49 63.5t-49 90.5q0 51 41 84.5t96 33.5q53 0 87 -37.5t34 -103.5q0 -180 -225 -422 z" />
<glyph unicode="&#x2022;" horiz-adv-x="1191" d="M328 758q0 111 78.5 187.5t189.5 76.5q109 0 187.5 -77.5t78.5 -186.5q0 -111 -78.5 -190t-189.5 -79t-188.5 78t-77.5 191z" />
<glyph unicode="&#x2026;" horiz-adv-x="2004" d="M211 111q0 53 38 92t93 39q53 0 92 -39t39 -92t-39 -91t-92 -38q-55 0 -93 36.5t-38 92.5zM872 111q0 53 38 92t94 39q53 0 92 -39t39 -92t-40 -91t-91 -38q-55 0 -93.5 36.5t-38.5 92.5zM1534 111q0 53 39 92t92 39q55 0 93 -39t38 -92t-39 -91t-92 -38t-92 36.5 t-39 92.5z" />
<glyph unicode="&#x202f;" horiz-adv-x="377" />
<glyph unicode="&#x2039;" horiz-adv-x="518" d="M68 487l346 478l43 -82l-205 -396l205 -397l-43 -80z" />
<glyph unicode="&#x203a;" horiz-adv-x="522" d="M72 90l202 397l-202 396l43 82l346 -478l-346 -477z" />
<glyph unicode="&#x205f;" horiz-adv-x="472" />
<glyph unicode="&#x2122;" horiz-adv-x="1673" d="M82 1315v131q96 -2 289 -2q186 0 280 2l2 -131h-63q0 43 -2 51q-70 10 -146 10h-4q-4 -59 -4 -215q0 -135 4 -368q6 -2 39 -2v-64l-182 -2q6 252 6 494v157q-106 0 -151 -4q-4 -8 -5 -57h-63zM700 719q43 190 95 608l14 125h59q86 -172 262 -514q88 172 269 514h63 q12 -123 78 -670h47v-63h-184q-10 156 -43 444q-164 -287 -219 -442h-62q-61 162 -205 434q-14 -125 -43 -369q4 -2 48 -2v-65h-179z" />
<glyph unicode="&#x25fc;" horiz-adv-x="962" d="M0 0v963h963v-963h-963z" />
</font>
</defs>
</svg>
